solid LED Numbers
facet normal -0.7071067811866271 0.7071067811864681 0.0
  outer loop
    vertex 12.500000000013323 139.6213203435594 20.0
    vertex 23.50000000001209 150.62132034356063 18.0
    vertex 12.500000000013323 139.6213203435594 18.0
  endloop
endfacet
facet normal -0.7071067811866271 0.7071067811864681 0.0
  outer loop
    vertex 23.50000000001209 150.62132034356063 18.0
    vertex 12.500000000013323 139.6213203435594 20.0
    vertex 23.50000000001209 150.62132034356063 20.0
  endloop
endfacet
facet normal -1.0 -1.1035616864774056e-13 0.0
  outer loop
    vertex 23.50000000001209 150.62132034356063 20.0
    vertex 23.50000000000119 249.3786796564415 18.0
    vertex 23.50000000001209 150.62132034356063 18.0
  endloop
endfacet
facet normal -1.0 -1.1035616864774056e-13 0.0
  outer loop
    vertex 23.50000000000119 249.3786796564415 18.0
    vertex 23.50000000001209 150.62132034356063 20.0
    vertex 23.50000000000119 249.3786796564415 20.0
  endloop
endfacet
facet normal 1.0 1.1035616864774056e-13 0.0
  outer loop
    vertex 2.2500000000012745 249.06801948465932 17.999999999999996
    vertex 2.2500000000121045 150.9319805153381 1.5
    vertex 2.2500000000012745 249.06801948465932 1.5
  endloop
endfacet
facet normal 1.0 1.1035616864774056e-13 0.0
  outer loop
    vertex 2.2500000000121045 150.9319805153381 1.5
    vertex 2.2500000000012745 249.06801948465932 17.999999999999996
    vertex 2.2500000000121045 150.9319805153381 17.999999999999996
  endloop
endfacet
facet normal 0.707106781186471 0.7071067811866242 0.0
  outer loop
    vertex 1.500000000012129 150.6213203435582 20.0
    vertex 12.500000000013323 139.6213203435594 18.0
    vertex 1.500000000012129 150.6213203435582 18.0
  endloop
endfacet
facet normal 0.707106781186471 0.7071067811866242 0.0
  outer loop
    vertex 12.500000000013323 139.6213203435594 18.0
    vertex 1.500000000012129 150.6213203435582 20.0
    vertex 12.500000000013323 139.6213203435594 20.0
  endloop
endfacet
facet normal -0.7071067811864709 -0.7071067811866243 0.0
  outer loop
    vertex 23.50000000000119 249.3786796564415 20.0
    vertex 12.499999999999996 260.3786796564403 18.0
    vertex 23.50000000000119 249.3786796564415 18.0
  endloop
endfacet
facet normal -0.7071067811864709 -0.7071067811866243 0.0
  outer loop
    vertex 12.499999999999996 260.3786796564403 18.0
    vertex 23.50000000000119 249.3786796564415 20.0
    vertex 12.499999999999996 260.3786796564403 20.0
  endloop
endfacet
facet normal 0.0 0.0 1.0
  outer loop
    vertex 1.5000000000012303 249.37867965643906 18.0
    vertex 12.500000000000114 259.31801948466045 17.999999999999996
    vertex 12.499999999999996 260.3786796564403 18.0
  endloop
endfacet
facet normal 0.0 0.0 1.0
  outer loop
    vertex 12.500000000000114 259.31801948466045 17.999999999999996
    vertex 1.5000000000012303 249.37867965643906 18.0
    vertex 2.2500000000012745 249.06801948465932 17.999999999999996
  endloop
endfacet
facet normal 0.0 0.0 1.0
  outer loop
    vertex 2.2500000000012745 249.06801948465932 17.999999999999996
    vertex 1.5000000000012303 249.37867965643906 18.0
    vertex 1.500000000012129 150.6213203435582 18.0
  endloop
endfacet
facet normal 0.0 0.0 1.0
  outer loop
    vertex 2.2500000000012745 249.06801948465932 17.999999999999996
    vertex 1.500000000012129 150.6213203435582 18.0
    vertex 2.2500000000121045 150.9319805153381 17.999999999999996
  endloop
endfacet
facet normal 0.0 0.0 1.0
  outer loop
    vertex 2.2500000000121045 150.9319805153381 17.999999999999996
    vertex 1.500000000012129 150.6213203435582 18.0
    vertex 12.500000000013205 140.6819805153392 17.999999999999996
  endloop
endfacet
facet normal 0.0 0.0 1.0
  outer loop
    vertex 12.500000000013205 140.6819805153392 17.999999999999996
    vertex 1.500000000012129 150.6213203435582 18.0
    vertex 12.500000000013323 139.6213203435594 18.0
  endloop
endfacet
facet normal 0.0 0.0 1.0
  outer loop
    vertex 12.500000000000114 259.31801948466045 17.999999999999996
    vertex 23.50000000000119 249.3786796564415 18.0
    vertex 12.499999999999996 260.3786796564403 18.0
  endloop
endfacet
facet normal 0.0 0.0 1.0
  outer loop
    vertex 23.50000000000119 249.3786796564415 18.0
    vertex 12.500000000000114 259.31801948466045 17.999999999999996
    vertex 22.75000000000121 249.06801948466156 17.999999999999996
  endloop
endfacet
facet normal 0.0 0.0 1.0
  outer loop
    vertex 23.50000000000119 249.3786796564415 18.0
    vertex 22.75000000000121 249.06801948466156 17.999999999999996
    vertex 23.50000000001209 150.62132034356063 18.0
  endloop
endfacet
facet normal 0.0 0.0 1.0
  outer loop
    vertex 23.50000000001209 150.62132034356063 18.0
    vertex 22.75000000000121 249.06801948466156 17.999999999999996
    vertex 22.750000000012044 150.93198051534037 17.999999999999996
  endloop
endfacet
facet normal 0.0 0.0 1.0
  outer loop
    vertex 23.50000000001209 150.62132034356063 18.0
    vertex 22.750000000012044 150.93198051534037 17.999999999999996
    vertex 12.500000000013205 140.6819805153392 17.999999999999996
  endloop
endfacet
facet normal 0.0 0.0 1.0
  outer loop
    vertex 23.50000000001209 150.62132034356063 18.0
    vertex 12.500000000013205 140.6819805153392 17.999999999999996
    vertex 12.500000000013323 139.6213203435594 18.0
  endloop
endfacet
facet normal 0.707106781186627 -0.7071067811864682 0.0
  outer loop
    vertex 12.499999999999996 260.3786796564403 20.0
    vertex 1.5000000000012303 249.37867965643906 18.0
    vertex 12.499999999999996 260.3786796564403 18.0
  endloop
endfacet
facet normal 0.707106781186627 -0.7071067811864682 0.0
  outer loop
    vertex 1.5000000000012303 249.37867965643906 18.0
    vertex 12.499999999999996 260.3786796564403 20.0
    vertex 1.5000000000012303 249.37867965643906 20.0
  endloop
endfacet
facet normal -0.7071067811864712 -0.707106781186624 0.0
  outer loop
    vertex 22.75000000000121 249.06801948466156 17.999999999999996
    vertex 12.500000000000114 259.31801948466045 1.5
    vertex 22.75000000000121 249.06801948466156 1.5
  endloop
endfacet
facet normal -0.7071067811864712 -0.707106781186624 0.0
  outer loop
    vertex 12.500000000000114 259.31801948466045 1.5
    vertex 22.75000000000121 249.06801948466156 17.999999999999996
    vertex 12.500000000000114 259.31801948466045 17.999999999999996
  endloop
endfacet
facet normal -1.0 -1.1035616864774056e-13 0.0
  outer loop
    vertex 22.750000000012044 150.93198051534037 17.999999999999996
    vertex 22.75000000000121 249.06801948466156 1.5
    vertex 22.750000000012044 150.93198051534037 1.5
  endloop
endfacet
facet normal -1.0 -1.1035616864774056e-13 0.0
  outer loop
    vertex 22.75000000000121 249.06801948466156 1.5
    vertex 22.750000000012044 150.93198051534037 17.999999999999996
    vertex 22.75000000000121 249.06801948466156 17.999999999999996
  endloop
endfacet
facet normal 0.7071067811866273 -0.7071067811864679 0.0
  outer loop
    vertex 12.500000000000114 259.31801948466045 17.999999999999996
    vertex 2.2500000000012745 249.06801948465932 1.5
    vertex 12.500000000000114 259.31801948466045 1.5
  endloop
endfacet
facet normal 0.7071067811866273 -0.7071067811864679 0.0
  outer loop
    vertex 2.2500000000012745 249.06801948465932 1.5
    vertex 12.500000000000114 259.31801948466045 17.999999999999996
    vertex 2.2500000000012745 249.06801948465932 17.999999999999996
  endloop
endfacet
facet normal -0.707106781186628 0.7071067811864672 0.0
  outer loop
    vertex 12.500000000013205 140.6819805153392 17.999999999999996
    vertex 22.750000000012044 150.93198051534037 1.5
    vertex 12.500000000013205 140.6819805153392 1.5
  endloop
endfacet
facet normal -0.707106781186628 0.7071067811864672 0.0
  outer loop
    vertex 22.750000000012044 150.93198051534037 1.5
    vertex 12.500000000013205 140.6819805153392 17.999999999999996
    vertex 22.750000000012044 150.93198051534037 17.999999999999996
  endloop
endfacet
facet normal 1.0 1.1035616864774056e-13 0.0
  outer loop
    vertex 1.5000000000012303 249.37867965643906 20.0
    vertex 1.500000000012129 150.6213203435582 18.0
    vertex 1.5000000000012303 249.37867965643906 18.0
  endloop
endfacet
facet normal 1.0 1.1035616864774056e-13 0.0
  outer loop
    vertex 1.500000000012129 150.6213203435582 18.0
    vertex 1.5000000000012303 249.37867965643906 20.0
    vertex 1.500000000012129 150.6213203435582 20.0
  endloop
endfacet
facet normal -1.0 -1.1035616864774056e-13 0.0
  outer loop
    vertex 1.2177703290205956e-11 149.99999999999847 20.0
    vertex 1.1420864254318985e-12 249.99999999999847 0.0
    vertex 1.2177703290205956e-11 149.99999999999847 0.0
  endloop
endfacet
facet normal -1.0 -1.1035616864774056e-13 0.0
  outer loop
    vertex 1.1420864254318985e-12 249.99999999999847 0.0
    vertex 1.2177703290205956e-11 149.99999999999847 20.0
    vertex 1.1420864254318985e-12 249.99999999999847 20.0
  endloop
endfacet
facet normal -0.7071067811866255 0.7071067811864695 0.0
  outer loop
    vertex 12.499999999999762 262.4999999999999 20.0
    vertex 1.1420864254318985e-12 249.99999999999847 0.0
    vertex 1.1420864254318985e-12 249.99999999999847 20.0
  endloop
endfacet
facet normal -0.7071067811866255 0.7071067811864695 0.0
  outer loop
    vertex 1.1420864254318985e-12 249.99999999999847 0.0
    vertex 12.499999999999762 262.4999999999999 20.0
    vertex 12.499999999999762 262.4999999999999 0.0
  endloop
endfacet
facet normal -0.7071067811864699 -0.7071067811866253 0.0
  outer loop
    vertex 12.500000000013557 137.4999999999998 20.0
    vertex 1.2177703290205956e-11 149.99999999999847 0.0
    vertex 12.500000000013557 137.4999999999998 0.0
  endloop
endfacet
facet normal -0.7071067811864699 -0.7071067811866253 0.0
  outer loop
    vertex 1.2177703290205956e-11 149.99999999999847 0.0
    vertex 12.500000000013557 137.4999999999998 20.0
    vertex 1.2177703290205956e-11 149.99999999999847 20.0
  endloop
endfacet
facet normal 0.0 0.0 1.0
  outer loop
    vertex 1.1420864254318985e-12 249.99999999999847 20.0
    vertex 12.499999999999996 260.3786796564403 20.0
    vertex 12.499999999999762 262.4999999999999 20.0
  endloop
endfacet
facet normal 0.0 0.0 1.0
  outer loop
    vertex 12.499999999999996 260.3786796564403 20.0
    vertex 1.1420864254318985e-12 249.99999999999847 20.0
    vertex 1.5000000000012303 249.37867965643906 20.0
  endloop
endfacet
facet normal 0.0 0.0 1.0
  outer loop
    vertex 1.5000000000012303 249.37867965643906 20.0
    vertex 1.1420864254318985e-12 249.99999999999847 20.0
    vertex 1.2177703290205956e-11 149.99999999999847 20.0
  endloop
endfacet
facet normal 0.0 0.0 1.0
  outer loop
    vertex 1.5000000000012303 249.37867965643906 20.0
    vertex 1.2177703290205956e-11 149.99999999999847 20.0
    vertex 1.500000000012129 150.6213203435582 20.0
  endloop
endfacet
facet normal 0.0 0.0 1.0
  outer loop
    vertex 1.500000000012129 150.6213203435582 20.0
    vertex 1.2177703290205956e-11 149.99999999999847 20.0
    vertex 12.500000000013323 139.6213203435594 20.0
  endloop
endfacet
facet normal 0.0 0.0 1.0
  outer loop
    vertex 12.500000000013323 139.6213203435594 20.0
    vertex 1.2177703290205956e-11 149.99999999999847 20.0
    vertex 12.500000000013557 137.4999999999998 20.0
  endloop
endfacet
facet normal 0.0 0.0 1.0
  outer loop
    vertex 12.499999999999996 260.3786796564403 20.0
    vertex 25.00000000000114 250.00000000000122 20.0
    vertex 12.499999999999762 262.4999999999999 20.0
  endloop
endfacet
facet normal 0.0 0.0 1.0
  outer loop
    vertex 25.00000000000114 250.00000000000122 20.0
    vertex 12.499999999999996 260.3786796564403 20.0
    vertex 23.50000000000119 249.3786796564415 20.0
  endloop
endfacet
facet normal 0.0 0.0 1.0
  outer loop
    vertex 25.00000000000114 250.00000000000122 20.0
    vertex 23.50000000000119 249.3786796564415 20.0
    vertex 25.000000000012175 150.00000000000122 20.0
  endloop
endfacet
facet normal 0.0 0.0 1.0
  outer loop
    vertex 25.000000000012175 150.00000000000122 20.0
    vertex 23.50000000000119 249.3786796564415 20.0
    vertex 23.50000000001209 150.62132034356063 20.0
  endloop
endfacet
facet normal 0.0 0.0 1.0
  outer loop
    vertex 25.000000000012175 150.00000000000122 20.0
    vertex 23.50000000001209 150.62132034356063 20.0
    vertex 12.500000000013323 139.6213203435594 20.0
  endloop
endfacet
facet normal 0.0 0.0 1.0
  outer loop
    vertex 25.000000000012175 150.00000000000122 20.0
    vertex 12.500000000013323 139.6213203435594 20.0
    vertex 12.500000000013557 137.4999999999998 20.0
  endloop
endfacet
facet normal 0.0 0.0 -1.0
  outer loop
    vertex 15.500000000012351 148.36602540378473 0.0
    vertex 12.500000000012342 148.4999999999999 0.0
    vertex 16.000000000012403 148.50000000000028 0.0
  endloop
endfacet
facet normal 0.0 0.0 -1.0
  outer loop
    vertex 12.500000000012342 148.4999999999999 0.0
    vertex 15.500000000012351 148.36602540378473 0.0
    vertex 13.000000000012333 148.36602540378445 0.0
  endloop
endfacet
facet normal 0.0 0.0 -1.0
  outer loop
    vertex 13.000000000012333 148.36602540378445 0.0
    vertex 15.500000000012351 148.36602540378473 0.0
    vertex 15.133974596227981 148.00000000000026 0.0
  endloop
endfacet
facet normal 0.0 0.0 -1.0
  outer loop
    vertex 13.000000000012333 148.36602540378445 0.0
    vertex 15.133974596227981 148.00000000000026 0.0
    vertex 13.366025403796833 148.00000000000003 0.0
  endloop
endfacet
facet normal 0.0 0.0 -1.0
  outer loop
    vertex 13.366025403796833 148.00000000000003 0.0
    vertex 15.133974596227981 148.00000000000026 0.0
    vertex 15.00000000001247 147.5000000000002 0.0
  endloop
endfacet
facet normal 0.0 0.0 -1.0
  outer loop
    vertex 13.366025403796833 148.00000000000003 0.0
    vertex 15.00000000001247 147.5000000000002 0.0
    vertex 13.50000000001245 147.50000000000006 0.0
  endloop
endfacet
facet normal 0.0 0.0 -1.0
  outer loop
    vertex 13.50000000001245 147.50000000000006 0.0
    vertex 15.00000000001247 147.5000000000002 0.0
    vertex 15.133974596228091 147.00000000000023 0.0
  endloop
endfacet
facet normal 0.0 0.0 -1.0
  outer loop
    vertex 13.50000000001245 147.50000000000006 0.0
    vertex 15.133974596228091 147.00000000000023 0.0
    vertex 13.366025403796943 147.00000000000003 0.0
  endloop
endfacet
facet normal 0.0 0.0 -1.0
  outer loop
    vertex 13.366025403796943 147.00000000000003 0.0
    vertex 15.133974596228091 147.00000000000023 0.0
    vertex 15.500000000012633 146.6339745962158 0.0
  endloop
endfacet
facet normal 0.0 0.0 -1.0
  outer loop
    vertex 13.366025403796943 147.00000000000003 0.0
    vertex 15.500000000012633 146.6339745962158 0.0
    vertex 13.00000000001257 146.63397459621558 0.0
  endloop
endfacet
facet normal 0.0 0.0 -1.0
  outer loop
    vertex 13.00000000001257 146.63397459621558 0.0
    vertex 15.500000000012633 146.6339745962158 0.0
    vertex 12.500000000012564 146.49999999999994 0.0
  endloop
endfacet
facet normal 0.0 0.0 -1.0
  outer loop
    vertex 12.500000000012564 146.49999999999994 0.0
    vertex 15.500000000012633 146.6339745962158 0.0
    vertex 16.000000000012623 146.50000000000028 0.0
  endloop
endfacet
facet normal 0.0 0.0 -1.0
  outer loop
    vertex 12.500000000012564 146.49999999999994 0.0
    vertex 16.000000000012623 146.50000000000028 0.0
    vertex 9.000000000012593 146.49999999999955 0.0
  endloop
endfacet
facet normal 0.0 0.0 -1.0
  outer loop
    vertex 12.499999999999762 262.4999999999999 0.0
    vertex 8.500000000000734 253.36602540378453 0.0
    vertex 1.1420864254318985e-12 249.99999999999847 0.0
  endloop
endfacet
facet normal 0.0 0.0 -1.0
  outer loop
    vertex 8.500000000000734 253.36602540378453 0.0
    vertex 12.499999999999762 262.4999999999999 0.0
    vertex 9.000000000000785 253.50000000000014 0.0
  endloop
endfacet
facet normal 0.0 0.0 -1.0
  outer loop
    vertex 9.000000000000785 253.50000000000014 0.0
    vertex 12.499999999999762 262.4999999999999 0.0
    vertex 16.00000000000077 253.50000000000097 0.0
  endloop
endfacet
facet normal 0.0 0.0 -1.0
  outer loop
    vertex 9.000000000000785 253.50000000000014 0.0
    vertex 16.00000000000077 253.50000000000097 0.0
    vertex 12.500000000000755 253.50000000000054 0.0
  endloop
endfacet
facet normal 0.0 0.0 -1.0
  outer loop
    vertex 1.1420864254318985e-12 249.99999999999847 0.0
    vertex 8.500000000000734 253.36602540378453 0.0
    vertex 8.13397459621636 253.00000000000009 0.0
  endloop
endfacet
facet normal 0.0 0.0 -1.0
  outer loop
    vertex 1.1420864254318985e-12 249.99999999999847 0.0
    vertex 8.13397459621636 253.00000000000009 0.0
    vertex 8.00000000000085 252.50000000000006 0.0
  endloop
endfacet
facet normal 0.0 0.0 -1.0
  outer loop
    vertex 1.1420864254318985e-12 249.99999999999847 0.0
    vertex 8.00000000000085 252.50000000000006 0.0
    vertex 8.13397459621647 252.00000000000009 0.0
  endloop
endfacet
facet normal 0.0 0.0 -1.0
  outer loop
    vertex 1.1420864254318985e-12 249.99999999999847 0.0
    vertex 8.13397459621647 252.00000000000009 0.0
    vertex 8.500000000001014 251.63397459621567 0.0
  endloop
endfacet
facet normal 0.0 0.0 -1.0
  outer loop
    vertex 1.1420864254318985e-12 249.99999999999847 0.0
    vertex 8.500000000001014 251.63397459621567 0.0
    vertex 9.000000000001005 251.5000000000002 0.0
  endloop
endfacet
facet normal 0.0 0.0 -1.0
  outer loop
    vertex 1.1420864254318985e-12 249.99999999999847 0.0
    vertex 9.000000000001005 251.5000000000002 0.0
    vertex 12.500000000000977 251.50000000000057 0.0
  endloop
endfacet
facet normal 0.0 0.0 -1.0
  outer loop
    vertex 1.1420864254318985e-12 249.99999999999847 0.0
    vertex 12.500000000000977 251.50000000000057 0.0
    vertex 16.000000000001037 251.5000000000009 0.0
  endloop
endfacet
facet normal 0.0 0.0 -1.0
  outer loop
    vertex 1.1420864254318985e-12 249.99999999999847 0.0
    vertex 16.000000000001037 251.5000000000009 0.0
    vertex 25.00000000000114 250.00000000000122 0.0
  endloop
endfacet
facet normal 0.0 0.0 -1.0
  outer loop
    vertex 1.1420864254318985e-12 249.99999999999847 0.0
    vertex 25.00000000000114 250.00000000000122 0.0
    vertex 25.000000000012175 150.00000000000122 0.0
  endloop
endfacet
facet normal 0.0 0.0 -1.0
  outer loop
    vertex 1.1420864254318985e-12 249.99999999999847 0.0
    vertex 25.000000000012175 150.00000000000122 0.0
    vertex 1.2177703290205956e-11 149.99999999999847 0.0
  endloop
endfacet
facet normal 0.0 0.0 -1.0
  outer loop
    vertex 1.2177703290205956e-11 149.99999999999847 0.0
    vertex 25.000000000012175 150.00000000000122 0.0
    vertex 16.000000000012403 148.50000000000028 0.0
  endloop
endfacet
facet normal 0.0 0.0 -1.0
  outer loop
    vertex 16.000000000012403 148.50000000000028 0.0
    vertex 25.000000000012175 150.00000000000122 0.0
    vertex 16.50000000001235 148.36602540378482 0.0
  endloop
endfacet
facet normal 0.0 0.0 -1.0
  outer loop
    vertex 16.50000000001235 148.36602540378482 0.0
    vertex 25.000000000012175 150.00000000000122 0.0
    vertex 16.866025403796847 148.0000000000004 0.0
  endloop
endfacet
facet normal 0.0 0.0 -1.0
  outer loop
    vertex 16.866025403796847 148.0000000000004 0.0
    vertex 25.000000000012175 150.00000000000122 0.0
    vertex 17.000000000012466 147.50000000000043 0.0
  endloop
endfacet
facet normal 0.0 0.0 -1.0
  outer loop
    vertex 17.000000000012466 147.50000000000043 0.0
    vertex 25.000000000012175 150.00000000000122 0.0
    vertex 16.866025403796957 147.00000000000045 0.0
  endloop
endfacet
facet normal 0.0 0.0 -1.0
  outer loop
    vertex 16.866025403796957 147.00000000000045 0.0
    vertex 25.000000000012175 150.00000000000122 0.0
    vertex 12.500000000013557 137.4999999999998 0.0
  endloop
endfacet
facet normal 0.0 0.0 -1.0
  outer loop
    vertex 16.866025403796957 147.00000000000045 0.0
    vertex 12.500000000013557 137.4999999999998 0.0
    vertex 16.500000000012587 146.63397459621598 0.0
  endloop
endfacet
facet normal 0.0 0.0 -1.0
  outer loop
    vertex 16.500000000012587 146.63397459621598 0.0
    vertex 12.500000000013557 137.4999999999998 0.0
    vertex 16.000000000012623 146.50000000000028 0.0
  endloop
endfacet
facet normal 0.0 0.0 -1.0
  outer loop
    vertex 1.2177703290205956e-11 149.99999999999847 0.0
    vertex 8.133974596228015 146.9999999999994 0.0
    vertex 12.500000000013557 137.4999999999998 0.0
  endloop
endfacet
facet normal 0.0 0.0 -1.0
  outer loop
    vertex 8.133974596228015 146.9999999999994 0.0
    vertex 1.2177703290205956e-11 149.99999999999847 0.0
    vertex 8.000000000012394 147.4999999999994 0.0
  endloop
endfacet
facet normal 0.0 0.0 -1.0
  outer loop
    vertex 8.000000000012394 147.4999999999994 0.0
    vertex 1.2177703290205956e-11 149.99999999999847 0.0
    vertex 8.133974596227947 147.9999999999995 0.0
  endloop
endfacet
facet normal 0.0 0.0 -1.0
  outer loop
    vertex 8.133974596227947 147.9999999999995 0.0
    vertex 1.2177703290205956e-11 149.99999999999847 0.0
    vertex 8.50000000001232 148.36602540378396 0.0
  endloop
endfacet
facet normal 0.0 0.0 -1.0
  outer loop
    vertex 8.50000000001232 148.36602540378396 0.0
    vertex 1.2177703290205956e-11 149.99999999999847 0.0
    vertex 9.000000000012372 148.49999999999952 0.0
  endloop
endfacet
facet normal 0.0 0.0 -1.0
  outer loop
    vertex 9.000000000012372 148.49999999999952 0.0
    vertex 1.2177703290205956e-11 149.99999999999847 0.0
    vertex 16.000000000012403 148.50000000000028 0.0
  endloop
endfacet
facet normal 0.0 0.0 -1.0
  outer loop
    vertex 9.000000000012372 148.49999999999952 0.0
    vertex 16.000000000012403 148.50000000000028 0.0
    vertex 12.500000000012342 148.4999999999999 0.0
  endloop
endfacet
facet normal 0.0 0.0 -1.0
  outer loop
    vertex 12.500000000013557 137.4999999999998 0.0
    vertex 8.133974596228015 146.9999999999994 0.0
    vertex 8.500000000012555 146.63397459621504 0.0
  endloop
endfacet
facet normal 0.0 0.0 -1.0
  outer loop
    vertex 12.500000000013557 137.4999999999998 0.0
    vertex 8.500000000012555 146.63397459621504 0.0
    vertex 9.000000000012593 146.49999999999955 0.0
  endloop
endfacet
facet normal 0.0 0.0 -1.0
  outer loop
    vertex 12.500000000013557 137.4999999999998 0.0
    vertex 9.000000000012593 146.49999999999955 0.0
    vertex 16.000000000012623 146.50000000000028 0.0
  endloop
endfacet
facet normal 0.0 0.0 -1.0
  outer loop
    vertex 12.000000000012337 148.3660254037843 0.0
    vertex 9.000000000012372 148.49999999999952 0.0
    vertex 12.500000000012342 148.4999999999999 0.0
  endloop
endfacet
facet normal 0.0 0.0 -1.0
  outer loop
    vertex 9.000000000012372 148.49999999999952 0.0
    vertex 12.000000000012337 148.3660254037843 0.0
    vertex 9.500000000012363 148.366025403784 0.0
  endloop
endfacet
facet normal 0.0 0.0 -1.0
  outer loop
    vertex 9.500000000012363 148.366025403784 0.0
    vertex 12.000000000012337 148.3660254037843 0.0
    vertex 11.633974596227963 147.99999999999983 0.0
  endloop
endfacet
facet normal 0.0 0.0 -1.0
  outer loop
    vertex 9.500000000012363 148.366025403784 0.0
    vertex 11.633974596227963 147.99999999999983 0.0
    vertex 9.866025403796815 147.99999999999957 0.0
  endloop
endfacet
facet normal 0.0 0.0 -1.0
  outer loop
    vertex 9.866025403796815 147.99999999999957 0.0
    vertex 11.633974596227963 147.99999999999983 0.0
    vertex 11.500000000012454 147.49999999999983 0.0
  endloop
endfacet
facet normal 0.0 0.0 -1.0
  outer loop
    vertex 9.866025403796815 147.99999999999957 0.0
    vertex 11.500000000012454 147.49999999999983 0.0
    vertex 10.000000000012434 147.49999999999963 0.0
  endloop
endfacet
facet normal 0.0 0.0 -1.0
  outer loop
    vertex 10.000000000012434 147.49999999999963 0.0
    vertex 11.500000000012454 147.49999999999983 0.0
    vertex 11.633974596228075 146.99999999999983 0.0
  endloop
endfacet
facet normal 0.0 0.0 -1.0
  outer loop
    vertex 10.000000000012434 147.49999999999963 0.0
    vertex 11.633974596228075 146.99999999999983 0.0
    vertex 9.866025403796927 146.99999999999966 0.0
  endloop
endfacet
facet normal 0.0 0.0 -1.0
  outer loop
    vertex 9.866025403796927 146.99999999999966 0.0
    vertex 11.633974596228075 146.99999999999983 0.0
    vertex 9.500000000012554 146.63397459621518 0.0
  endloop
endfacet
facet normal 0.0 0.0 -1.0
  outer loop
    vertex 9.500000000012554 146.63397459621518 0.0
    vertex 11.633974596228075 146.99999999999983 0.0
    vertex 12.000000000012571 146.63397459621547 0.0
  endloop
endfacet
facet normal 0.0 0.0 -1.0
  outer loop
    vertex 9.500000000012554 146.63397459621518 0.0
    vertex 12.000000000012571 146.63397459621547 0.0
    vertex 9.000000000012593 146.49999999999955 0.0
  endloop
endfacet
facet normal 0.0 0.0 -1.0
  outer loop
    vertex 9.000000000012593 146.49999999999955 0.0
    vertex 12.000000000012571 146.63397459621547 0.0
    vertex 12.500000000012564 146.49999999999994 0.0
  endloop
endfacet
facet normal 0.0 0.0 -1.0
  outer loop
    vertex 12.00000000000075 253.36602540378493 0.0
    vertex 9.000000000000785 253.50000000000014 0.0
    vertex 12.500000000000755 253.50000000000054 0.0
  endloop
endfacet
facet normal 0.0 0.0 -1.0
  outer loop
    vertex 9.000000000000785 253.50000000000014 0.0
    vertex 12.00000000000075 253.36602540378493 0.0
    vertex 9.500000000000776 253.36602540378468 0.0
  endloop
endfacet
facet normal 0.0 0.0 -1.0
  outer loop
    vertex 9.500000000000776 253.36602540378468 0.0
    vertex 12.00000000000075 253.36602540378493 0.0
    vertex 11.633974596216376 253.00000000000048 0.0
  endloop
endfacet
facet normal 0.0 0.0 -1.0
  outer loop
    vertex 9.500000000000776 253.36602540378468 0.0
    vertex 11.633974596216376 253.00000000000048 0.0
    vertex 9.866025403785272 253.00000000000026 0.0
  endloop
endfacet
facet normal 0.0 0.0 -1.0
  outer loop
    vertex 9.866025403785272 253.00000000000026 0.0
    vertex 11.633974596216376 253.00000000000048 0.0
    vertex 11.500000000000867 252.50000000000043 0.0
  endloop
endfacet
facet normal 0.0 0.0 -1.0
  outer loop
    vertex 9.866025403785272 253.00000000000026 0.0
    vertex 11.500000000000867 252.50000000000043 0.0
    vertex 10.000000000000892 252.50000000000028 0.0
  endloop
endfacet
facet normal 0.0 0.0 -1.0
  outer loop
    vertex 10.000000000000892 252.50000000000028 0.0
    vertex 11.500000000000867 252.50000000000043 0.0
    vertex 9.866025403785338 252.00000000000026 0.0
  endloop
endfacet
facet normal 0.0 0.0 -1.0
  outer loop
    vertex 9.866025403785338 252.00000000000026 0.0
    vertex 11.500000000000867 252.50000000000043 0.0
    vertex 11.633974596216486 252.00000000000045 0.0
  endloop
endfacet
facet normal 0.0 0.0 -1.0
  outer loop
    vertex 9.866025403785338 252.00000000000026 0.0
    vertex 11.633974596216486 252.00000000000045 0.0
    vertex 9.500000000001013 251.6339745962158 0.0
  endloop
endfacet
facet normal 0.0 0.0 -1.0
  outer loop
    vertex 9.500000000001013 251.6339745962158 0.0
    vertex 11.633974596216486 252.00000000000045 0.0
    vertex 12.000000000000984 251.63397459621606 0.0
  endloop
endfacet
facet normal 0.0 0.0 -1.0
  outer loop
    vertex 9.500000000001013 251.6339745962158 0.0
    vertex 12.000000000000984 251.63397459621606 0.0
    vertex 12.500000000000977 251.50000000000057 0.0
  endloop
endfacet
facet normal 0.0 0.0 -1.0
  outer loop
    vertex 9.500000000001013 251.6339745962158 0.0
    vertex 12.500000000000977 251.50000000000057 0.0
    vertex 9.000000000001005 251.5000000000002 0.0
  endloop
endfacet
facet normal 0.0 0.0 -1.0
  outer loop
    vertex 15.500000000000764 253.36602540378536 0.0
    vertex 12.500000000000755 253.50000000000054 0.0
    vertex 16.00000000000077 253.50000000000097 0.0
  endloop
endfacet
facet normal 0.0 0.0 -1.0
  outer loop
    vertex 12.500000000000755 253.50000000000054 0.0
    vertex 15.500000000000764 253.36602540378536 0.0
    vertex 13.000000000000746 253.36602540378507 0.0
  endloop
endfacet
facet normal 0.0 0.0 -1.0
  outer loop
    vertex 13.000000000000746 253.36602540378507 0.0
    vertex 15.500000000000764 253.36602540378536 0.0
    vertex 13.366025403785246 253.00000000000065 0.0
  endloop
endfacet
facet normal 0.0 0.0 -1.0
  outer loop
    vertex 13.366025403785246 253.00000000000065 0.0
    vertex 15.500000000000764 253.36602540378536 0.0
    vertex 15.133974596216394 253.00000000000085 0.0
  endloop
endfacet
facet normal 0.0 0.0 -1.0
  outer loop
    vertex 13.366025403785246 253.00000000000065 0.0
    vertex 15.133974596216394 253.00000000000085 0.0
    vertex 15.000000000000883 252.50000000000082 0.0
  endloop
endfacet
facet normal 0.0 0.0 -1.0
  outer loop
    vertex 13.366025403785246 253.00000000000065 0.0
    vertex 15.000000000000883 252.50000000000082 0.0
    vertex 13.500000000000819 252.50000000000068 0.0
  endloop
endfacet
facet normal 0.0 0.0 -1.0
  outer loop
    vertex 13.500000000000819 252.50000000000068 0.0
    vertex 15.000000000000883 252.50000000000082 0.0
    vertex 13.36602540378531 252.00000000000065 0.0
  endloop
endfacet
facet normal 0.0 0.0 -1.0
  outer loop
    vertex 13.36602540378531 252.00000000000065 0.0
    vertex 15.000000000000883 252.50000000000082 0.0
    vertex 15.13397459621646 252.00000000000085 0.0
  endloop
endfacet
facet normal 0.0 0.0 -1.0
  outer loop
    vertex 13.36602540378531 252.00000000000065 0.0
    vertex 15.13397459621646 252.00000000000085 0.0
    vertex 13.000000000000982 251.6339745962162 0.0
  endloop
endfacet
facet normal 0.0 0.0 -1.0
  outer loop
    vertex 13.000000000000982 251.6339745962162 0.0
    vertex 15.13397459621646 252.00000000000085 0.0
    vertex 15.500000000001 251.63397459621643 0.0
  endloop
endfacet
facet normal 0.0 0.0 -1.0
  outer loop
    vertex 13.000000000000982 251.6339745962162 0.0
    vertex 15.500000000001 251.63397459621643 0.0
    vertex 12.500000000000977 251.50000000000057 0.0
  endloop
endfacet
facet normal 0.0 0.0 -1.0
  outer loop
    vertex 12.500000000000977 251.50000000000057 0.0
    vertex 15.500000000001 251.63397459621643 0.0
    vertex 16.000000000001037 251.5000000000009 0.0
  endloop
endfacet
facet normal 0.0 0.0 -1.0
  outer loop
    vertex 12.499999999999762 262.4999999999999 0.0
    vertex 16.500000000000764 253.36602540378544 0.0
    vertex 16.00000000000077 253.50000000000097 0.0
  endloop
endfacet
facet normal 0.0 0.0 -1.0
  outer loop
    vertex 16.500000000000764 253.36602540378544 0.0
    vertex 12.499999999999762 262.4999999999999 0.0
    vertex 25.00000000000114 250.00000000000122 0.0
  endloop
endfacet
facet normal 0.0 0.0 -1.0
  outer loop
    vertex 16.500000000000764 253.36602540378544 0.0
    vertex 25.00000000000114 250.00000000000122 0.0
    vertex 16.866025403785308 253.00000000000102 0.0
  endloop
endfacet
facet normal 0.0 0.0 -1.0
  outer loop
    vertex 16.866025403785308 253.00000000000102 0.0
    vertex 25.00000000000114 250.00000000000122 0.0
    vertex 17.000000000000924 252.50000000000105 0.0
  endloop
endfacet
facet normal 0.0 0.0 -1.0
  outer loop
    vertex 17.000000000000924 252.50000000000105 0.0
    vertex 25.00000000000114 250.00000000000122 0.0
    vertex 16.866025403785372 252.00000000000102 0.0
  endloop
endfacet
facet normal 0.0 0.0 -1.0
  outer loop
    vertex 16.866025403785372 252.00000000000102 0.0
    vertex 25.00000000000114 250.00000000000122 0.0
    vertex 16.500000000001044 251.63397459621658 0.0
  endloop
endfacet
facet normal 0.0 0.0 -1.0
  outer loop
    vertex 16.500000000001044 251.63397459621658 0.0
    vertex 25.00000000000114 250.00000000000122 0.0
    vertex 16.000000000001037 251.5000000000009 0.0
  endloop
endfacet
facet normal 1.0 1.1035616864774056e-13 0.0
  outer loop
    vertex 25.00000000000114 250.00000000000122 20.0
    vertex 25.000000000012175 150.00000000000122 0.0
    vertex 25.00000000000114 250.00000000000122 0.0
  endloop
endfacet
facet normal 1.0 1.1035616864774056e-13 0.0
  outer loop
    vertex 25.000000000012175 150.00000000000122 0.0
    vertex 25.00000000000114 250.00000000000122 20.0
    vertex 25.000000000012175 150.00000000000122 20.0
  endloop
endfacet
facet normal 0.7071067811864694 0.7071067811866256 0.0
  outer loop
    vertex 25.00000000000114 250.00000000000122 20.0
    vertex 12.499999999999762 262.4999999999999 0.0
    vertex 12.499999999999762 262.4999999999999 20.0
  endloop
endfacet
facet normal 0.7071067811864694 0.7071067811866256 0.0
  outer loop
    vertex 12.499999999999762 262.4999999999999 0.0
    vertex 25.00000000000114 250.00000000000122 20.0
    vertex 25.00000000000114 250.00000000000122 0.0
  endloop
endfacet
facet normal 0.7071067811864719 0.7071067811866233 0.0
  outer loop
    vertex 2.2500000000121045 150.9319805153381 17.999999999999996
    vertex 12.500000000013205 140.6819805153392 1.5
    vertex 2.2500000000121045 150.9319805153381 1.5
  endloop
endfacet
facet normal 0.7071067811864719 0.7071067811866233 0.0
  outer loop
    vertex 12.500000000013205 140.6819805153392 1.5
    vertex 2.2500000000121045 150.9319805153381 17.999999999999996
    vertex 12.500000000013205 140.6819805153392 17.999999999999996
  endloop
endfacet
facet normal 0.707106781186626 -0.7071067811864692 0.0
  outer loop
    vertex 25.000000000012175 150.00000000000122 20.0
    vertex 12.500000000013557 137.4999999999998 0.0
    vertex 25.000000000012175 150.00000000000122 0.0
  endloop
endfacet
facet normal 0.707106781186626 -0.7071067811864692 0.0
  outer loop
    vertex 12.500000000013557 137.4999999999998 0.0
    vertex 25.000000000012175 150.00000000000122 20.0
    vertex 12.500000000013557 137.4999999999998 20.0
  endloop
endfacet
facet normal 0.0 0.0 1.0
  outer loop
    vertex 9.500000000012273 148.36602540378408 1.5
    vertex 12.500000000012342 148.4999999999999 1.5
    vertex 9.000000000012372 148.49999999999952 1.5
  endloop
endfacet
facet normal 0.0 0.0 1.0
  outer loop
    vertex 12.500000000012342 148.4999999999999 1.5
    vertex 9.500000000012273 148.36602540378408 1.5
    vertex 12.000000000012337 148.36602540378433 1.5
  endloop
endfacet
facet normal 0.0 0.0 1.0
  outer loop
    vertex 12.000000000012337 148.36602540378433 1.5
    vertex 9.500000000012273 148.36602540378408 1.5
    vertex 9.86602540379686 147.9999999999996 1.5
  endloop
endfacet
facet normal 0.0 0.0 1.0
  outer loop
    vertex 12.000000000012337 148.36602540378433 1.5
    vertex 9.86602540379686 147.9999999999996 1.5
    vertex 11.633974596227963 147.99999999999983 1.5
  endloop
endfacet
facet normal 0.0 0.0 1.0
  outer loop
    vertex 11.633974596227963 147.99999999999983 1.5
    vertex 9.86602540379686 147.9999999999996 1.5
    vertex 10.000000000012434 147.49999999999963 1.5
  endloop
endfacet
facet normal 0.0 0.0 1.0
  outer loop
    vertex 11.633974596227963 147.99999999999983 1.5
    vertex 10.000000000012434 147.49999999999963 1.5
    vertex 11.500000000012454 147.49999999999983 1.5
  endloop
endfacet
facet normal 0.0 0.0 1.0
  outer loop
    vertex 11.500000000012454 147.49999999999983 1.5
    vertex 10.000000000012434 147.49999999999963 1.5
    vertex 11.633974596228075 146.99999999999983 1.5
  endloop
endfacet
facet normal 0.0 0.0 1.0
  outer loop
    vertex 11.633974596228075 146.99999999999983 1.5
    vertex 10.000000000012434 147.49999999999963 1.5
    vertex 9.866025403796927 146.9999999999996 1.5
  endloop
endfacet
facet normal 0.0 0.0 1.0
  outer loop
    vertex 11.633974596228075 146.99999999999983 1.5
    vertex 9.866025403796927 146.9999999999996 1.5
    vertex 12.000000000012571 146.63397459621547 1.5
  endloop
endfacet
facet normal 0.0 0.0 1.0
  outer loop
    vertex 12.000000000012571 146.63397459621547 1.5
    vertex 9.866025403796927 146.9999999999996 1.5
    vertex 9.500000000012554 146.63397459621518 1.5
  endloop
endfacet
facet normal 0.0 0.0 1.0
  outer loop
    vertex 12.000000000012571 146.63397459621547 1.5
    vertex 9.500000000012554 146.63397459621518 1.5
    vertex 9.000000000012593 146.49999999999955 1.5
  endloop
endfacet
facet normal 0.0 0.0 1.0
  outer loop
    vertex 12.000000000012571 146.63397459621547 1.5
    vertex 9.000000000012593 146.49999999999955 1.5
    vertex 12.500000000012564 146.49999999999994 1.5
  endloop
endfacet
facet normal 0.0 0.0 1.0
  outer loop
    vertex 12.500000000000114 259.31801948466045 1.5
    vertex 16.500000000000764 253.36602540378544 1.5
    vertex 22.75000000000121 249.06801948466156 1.5
  endloop
endfacet
facet normal 0.0 0.0 1.0
  outer loop
    vertex 16.500000000000764 253.36602540378544 1.5
    vertex 12.500000000000114 259.31801948466045 1.5
    vertex 16.000000000000817 253.5000000000009 1.5
  endloop
endfacet
facet normal 0.0 0.0 1.0
  outer loop
    vertex 16.000000000000817 253.5000000000009 1.5
    vertex 12.500000000000114 259.31801948466045 1.5
    vertex 9.000000000000739 253.5000000000002 1.5
  endloop
endfacet
facet normal 0.0 0.0 1.0
  outer loop
    vertex 16.000000000000817 253.5000000000009 1.5
    vertex 9.000000000000739 253.5000000000002 1.5
    vertex 12.500000000000755 253.50000000000054 1.5
  endloop
endfacet
facet normal 0.0 0.0 1.0
  outer loop
    vertex 22.75000000000121 249.06801948466156 1.5
    vertex 16.500000000000764 253.36602540378544 1.5
    vertex 16.86602540378526 253.00000000000102 1.5
  endloop
endfacet
facet normal 0.0 0.0 1.0
  outer loop
    vertex 22.75000000000121 249.06801948466156 1.5
    vertex 16.86602540378526 253.00000000000102 1.5
    vertex 17.00000000000088 252.50000000000105 1.5
  endloop
endfacet
facet normal 0.0 0.0 1.0
  outer loop
    vertex 22.75000000000121 249.06801948466156 1.5
    vertex 17.00000000000088 252.50000000000105 1.5
    vertex 16.866025403785372 252.00000000000102 1.5
  endloop
endfacet
facet normal 0.0 0.0 1.0
  outer loop
    vertex 22.75000000000121 249.06801948466156 1.5
    vertex 16.866025403785372 252.00000000000102 1.5
    vertex 16.500000000001 251.63397459621658 1.5
  endloop
endfacet
facet normal 0.0 0.0 1.0
  outer loop
    vertex 22.75000000000121 249.06801948466156 1.5
    vertex 16.500000000001 251.63397459621658 1.5
    vertex 16.000000000001037 251.5000000000009 1.5
  endloop
endfacet
facet normal 0.0 0.0 1.0
  outer loop
    vertex 22.75000000000121 249.06801948466156 1.5
    vertex 16.000000000001037 251.5000000000009 1.5
    vertex 2.2500000000012745 249.06801948465932 1.5
  endloop
endfacet
facet normal 0.0 0.0 1.0
  outer loop
    vertex 22.75000000000121 249.06801948466156 1.5
    vertex 2.2500000000012745 249.06801948465932 1.5
    vertex 2.2500000000121045 150.9319805153381 1.5
  endloop
endfacet
facet normal 0.0 0.0 1.0
  outer loop
    vertex 22.75000000000121 249.06801948466156 1.5
    vertex 2.2500000000121045 150.9319805153381 1.5
    vertex 22.750000000012044 150.93198051534037 1.5
  endloop
endfacet
facet normal 0.0 0.0 1.0
  outer loop
    vertex 22.750000000012044 150.93198051534037 1.5
    vertex 2.2500000000121045 150.9319805153381 1.5
    vertex 9.000000000012372 148.49999999999952 1.5
  endloop
endfacet
facet normal 0.0 0.0 1.0
  outer loop
    vertex 9.000000000012372 148.49999999999952 1.5
    vertex 2.2500000000121045 150.9319805153381 1.5
    vertex 8.50000000001232 148.36602540378396 1.5
  endloop
endfacet
facet normal 0.0 0.0 1.0
  outer loop
    vertex 8.50000000001232 148.36602540378396 1.5
    vertex 2.2500000000121045 150.9319805153381 1.5
    vertex 8.133974596227947 147.9999999999995 1.5
  endloop
endfacet
facet normal 0.0 0.0 1.0
  outer loop
    vertex 8.133974596227947 147.9999999999995 1.5
    vertex 2.2500000000121045 150.9319805153381 1.5
    vertex 8.000000000012438 147.4999999999994 1.5
  endloop
endfacet
facet normal 0.0 0.0 1.0
  outer loop
    vertex 8.000000000012438 147.4999999999994 1.5
    vertex 2.2500000000121045 150.9319805153381 1.5
    vertex 8.133974596228015 146.9999999999994 1.5
  endloop
endfacet
facet normal 0.0 0.0 1.0
  outer loop
    vertex 8.133974596228015 146.9999999999994 1.5
    vertex 2.2500000000121045 150.9319805153381 1.5
    vertex 12.500000000013205 140.6819805153392 1.5
  endloop
endfacet
facet normal 0.0 0.0 1.0
  outer loop
    vertex 22.750000000012044 150.93198051534037 1.5
    vertex 9.000000000012372 148.49999999999952 1.5
    vertex 16.00000000001236 148.50000000000034 1.5
  endloop
endfacet
facet normal 0.0 0.0 1.0
  outer loop
    vertex 8.133974596228015 146.9999999999994 1.5
    vertex 12.500000000013205 140.6819805153392 1.5
    vertex 8.500000000012601 146.63397459621504 1.5
  endloop
endfacet
facet normal 0.0 0.0 1.0
  outer loop
    vertex 8.500000000012601 146.63397459621504 1.5
    vertex 12.500000000013205 140.6819805153392 1.5
    vertex 9.000000000012593 146.49999999999955 1.5
  endloop
endfacet
facet normal 0.0 0.0 1.0
  outer loop
    vertex 9.000000000012593 146.49999999999955 1.5
    vertex 12.500000000013205 140.6819805153392 1.5
    vertex 16.000000000012623 146.50000000000028 1.5
  endloop
endfacet
facet normal 0.0 0.0 1.0
  outer loop
    vertex 22.750000000012044 150.93198051534037 1.5
    vertex 16.866025403796957 147.00000000000045 1.5
    vertex 12.500000000013205 140.6819805153392 1.5
  endloop
endfacet
facet normal 0.0 0.0 1.0
  outer loop
    vertex 16.866025403796957 147.00000000000045 1.5
    vertex 22.750000000012044 150.93198051534037 1.5
    vertex 17.000000000012466 147.50000000000043 1.5
  endloop
endfacet
facet normal 0.0 0.0 1.0
  outer loop
    vertex 17.000000000012466 147.50000000000043 1.5
    vertex 22.750000000012044 150.93198051534037 1.5
    vertex 16.866025403796847 148.0000000000004 1.5
  endloop
endfacet
facet normal 0.0 0.0 1.0
  outer loop
    vertex 16.866025403796847 148.0000000000004 1.5
    vertex 22.750000000012044 150.93198051534037 1.5
    vertex 16.50000000001235 148.36602540378482 1.5
  endloop
endfacet
facet normal 0.0 0.0 1.0
  outer loop
    vertex 16.50000000001235 148.36602540378482 1.5
    vertex 22.750000000012044 150.93198051534037 1.5
    vertex 16.00000000001236 148.50000000000034 1.5
  endloop
endfacet
facet normal 0.0 0.0 1.0
  outer loop
    vertex 12.500000000013205 140.6819805153392 1.5
    vertex 16.866025403796957 147.00000000000045 1.5
    vertex 16.500000000012587 146.63397459621598 1.5
  endloop
endfacet
facet normal 0.0 0.0 1.0
  outer loop
    vertex 12.500000000013205 140.6819805153392 1.5
    vertex 16.500000000012587 146.63397459621598 1.5
    vertex 16.000000000012623 146.50000000000028 1.5
  endloop
endfacet
facet normal 0.0 0.0 1.0
  outer loop
    vertex 16.00000000001236 148.50000000000034 1.5
    vertex 12.500000000012342 148.4999999999999 1.5
    vertex 15.500000000012351 148.36602540378473 1.5
  endloop
endfacet
facet normal 0.0 0.0 1.0
  outer loop
    vertex 12.500000000012342 148.4999999999999 1.5
    vertex 16.00000000001236 148.50000000000034 1.5
    vertex 9.000000000012372 148.49999999999952 1.5
  endloop
endfacet
facet normal 0.0 0.0 1.0
  outer loop
    vertex 15.500000000012351 148.36602540378473 1.5
    vertex 12.500000000012342 148.4999999999999 1.5
    vertex 13.000000000012378 148.36602540378445 1.5
  endloop
endfacet
facet normal 0.0 0.0 1.0
  outer loop
    vertex 15.500000000012351 148.36602540378473 1.5
    vertex 13.000000000012378 148.36602540378445 1.5
    vertex 15.133974596227981 148.0000000000002 1.5
  endloop
endfacet
facet normal 0.0 0.0 1.0
  outer loop
    vertex 15.133974596227981 148.0000000000002 1.5
    vertex 13.000000000012378 148.36602540378445 1.5
    vertex 13.366025403796833 148.00000000000003 1.5
  endloop
endfacet
facet normal 0.0 0.0 1.0
  outer loop
    vertex 15.133974596227981 148.0000000000002 1.5
    vertex 13.366025403796833 148.00000000000003 1.5
    vertex 13.50000000001245 147.50000000000006 1.5
  endloop
endfacet
facet normal 0.0 0.0 1.0
  outer loop
    vertex 15.133974596227981 148.0000000000002 1.5
    vertex 13.50000000001245 147.50000000000006 1.5
    vertex 15.00000000001247 147.5000000000002 1.5
  endloop
endfacet
facet normal 0.0 0.0 1.0
  outer loop
    vertex 15.00000000001247 147.5000000000002 1.5
    vertex 13.50000000001245 147.50000000000006 1.5
    vertex 13.366025403796943 147.00000000000003 1.5
  endloop
endfacet
facet normal 0.0 0.0 1.0
  outer loop
    vertex 15.00000000001247 147.5000000000002 1.5
    vertex 13.366025403796943 147.00000000000003 1.5
    vertex 15.133974596228091 147.0000000000002 1.5
  endloop
endfacet
facet normal 0.0 0.0 1.0
  outer loop
    vertex 15.133974596228091 147.0000000000002 1.5
    vertex 13.366025403796943 147.00000000000003 1.5
    vertex 13.00000000001257 146.63397459621558 1.5
  endloop
endfacet
facet normal 0.0 0.0 1.0
  outer loop
    vertex 15.133974596228091 147.0000000000002 1.5
    vertex 13.00000000001257 146.63397459621558 1.5
    vertex 15.500000000012587 146.63397459621584 1.5
  endloop
endfacet
facet normal 0.0 0.0 1.0
  outer loop
    vertex 15.500000000012587 146.63397459621584 1.5
    vertex 13.00000000001257 146.63397459621558 1.5
    vertex 12.500000000012564 146.49999999999994 1.5
  endloop
endfacet
facet normal 0.0 0.0 1.0
  outer loop
    vertex 15.500000000012587 146.63397459621584 1.5
    vertex 12.500000000012564 146.49999999999994 1.5
    vertex 16.000000000012623 146.50000000000028 1.5
  endloop
endfacet
facet normal 0.0 0.0 1.0
  outer loop
    vertex 16.000000000012623 146.50000000000028 1.5
    vertex 12.500000000012564 146.49999999999994 1.5
    vertex 9.000000000012593 146.49999999999955 1.5
  endloop
endfacet
facet normal 0.0 0.0 1.0
  outer loop
    vertex 12.500000000000114 259.31801948466045 1.5
    vertex 8.500000000000687 253.36602540378453 1.5
    vertex 9.000000000000739 253.5000000000002 1.5
  endloop
endfacet
facet normal 0.0 0.0 1.0
  outer loop
    vertex 8.500000000000687 253.36602540378453 1.5
    vertex 12.500000000000114 259.31801948466045 1.5
    vertex 2.2500000000012745 249.06801948465932 1.5
  endloop
endfacet
facet normal 0.0 0.0 1.0
  outer loop
    vertex 8.500000000000687 253.36602540378453 1.5
    vertex 2.2500000000012745 249.06801948465932 1.5
    vertex 8.13397459621636 253.00000000000009 1.5
  endloop
endfacet
facet normal 0.0 0.0 1.0
  outer loop
    vertex 8.13397459621636 253.00000000000009 1.5
    vertex 2.2500000000012745 249.06801948465932 1.5
    vertex 8.00000000000085 252.50000000000006 1.5
  endloop
endfacet
facet normal 0.0 0.0 1.0
  outer loop
    vertex 8.00000000000085 252.50000000000006 1.5
    vertex 2.2500000000012745 249.06801948465932 1.5
    vertex 8.13397459621647 252.00000000000009 1.5
  endloop
endfacet
facet normal 0.0 0.0 1.0
  outer loop
    vertex 8.13397459621647 252.00000000000009 1.5
    vertex 2.2500000000012745 249.06801948465932 1.5
    vertex 8.500000000001014 251.63397459621567 1.5
  endloop
endfacet
facet normal 0.0 0.0 1.0
  outer loop
    vertex 8.500000000001014 251.63397459621567 1.5
    vertex 2.2500000000012745 249.06801948465932 1.5
    vertex 9.000000000001005 251.5000000000002 1.5
  endloop
endfacet
facet normal 0.0 0.0 1.0
  outer loop
    vertex 9.000000000001005 251.5000000000002 1.5
    vertex 2.2500000000012745 249.06801948465932 1.5
    vertex 12.500000000000977 251.50000000000057 1.5
  endloop
endfacet
facet normal 0.0 0.0 1.0
  outer loop
    vertex 12.500000000000977 251.50000000000057 1.5
    vertex 2.2500000000012745 249.06801948465932 1.5
    vertex 16.000000000001037 251.5000000000009 1.5
  endloop
endfacet
facet normal 0.0 0.0 1.0
  outer loop
    vertex 13.000000000000746 253.36602540378507 1.5
    vertex 16.000000000000817 253.5000000000009 1.5
    vertex 12.500000000000755 253.50000000000054 1.5
  endloop
endfacet
facet normal 0.0 0.0 1.0
  outer loop
    vertex 16.000000000000817 253.5000000000009 1.5
    vertex 13.000000000000746 253.36602540378507 1.5
    vertex 15.500000000000764 253.36602540378536 1.5
  endloop
endfacet
facet normal 0.0 0.0 1.0
  outer loop
    vertex 15.500000000000764 253.36602540378536 1.5
    vertex 13.000000000000746 253.36602540378507 1.5
    vertex 13.366025403785246 253.00000000000065 1.5
  endloop
endfacet
facet normal 0.0 0.0 1.0
  outer loop
    vertex 15.500000000000764 253.36602540378536 1.5
    vertex 13.366025403785246 253.00000000000065 1.5
    vertex 15.133974596216394 253.00000000000085 1.5
  endloop
endfacet
facet normal 0.0 0.0 1.0
  outer loop
    vertex 15.133974596216394 253.00000000000085 1.5
    vertex 13.366025403785246 253.00000000000065 1.5
    vertex 15.000000000000883 252.50000000000082 1.5
  endloop
endfacet
facet normal 0.0 0.0 1.0
  outer loop
    vertex 15.000000000000883 252.50000000000082 1.5
    vertex 13.366025403785246 253.00000000000065 1.5
    vertex 13.500000000000863 252.50000000000065 1.5
  endloop
endfacet
facet normal 0.0 0.0 1.0
  outer loop
    vertex 15.000000000000883 252.50000000000082 1.5
    vertex 13.500000000000863 252.50000000000065 1.5
    vertex 15.13397459621646 252.00000000000085 1.5
  endloop
endfacet
facet normal 0.0 0.0 1.0
  outer loop
    vertex 15.13397459621646 252.00000000000085 1.5
    vertex 13.500000000000863 252.50000000000065 1.5
    vertex 13.366025403785356 252.00000000000065 1.5
  endloop
endfacet
facet normal 0.0 0.0 1.0
  outer loop
    vertex 15.13397459621646 252.00000000000085 1.5
    vertex 13.366025403785356 252.00000000000065 1.5
    vertex 13.000000000001029 251.6339745962162 1.5
  endloop
endfacet
facet normal 0.0 0.0 1.0
  outer loop
    vertex 15.13397459621646 252.00000000000085 1.5
    vertex 13.000000000001029 251.6339745962162 1.5
    vertex 15.500000000001 251.63397459621643 1.5
  endloop
endfacet
facet normal 0.0 0.0 1.0
  outer loop
    vertex 15.500000000001 251.63397459621643 1.5
    vertex 13.000000000001029 251.6339745962162 1.5
    vertex 12.500000000000977 251.50000000000057 1.5
  endloop
endfacet
facet normal 0.0 0.0 1.0
  outer loop
    vertex 15.500000000001 251.63397459621643 1.5
    vertex 12.500000000000977 251.50000000000057 1.5
    vertex 16.000000000001037 251.5000000000009 1.5
  endloop
endfacet
facet normal 0.0 0.0 1.0
  outer loop
    vertex 9.500000000000732 253.36602540378468 1.5
    vertex 12.500000000000755 253.50000000000054 1.5
    vertex 9.000000000000739 253.5000000000002 1.5
  endloop
endfacet
facet normal 0.0 0.0 1.0
  outer loop
    vertex 12.500000000000755 253.50000000000054 1.5
    vertex 9.500000000000732 253.36602540378468 1.5
    vertex 12.00000000000075 253.36602540378493 1.5
  endloop
endfacet
facet normal 0.0 0.0 1.0
  outer loop
    vertex 12.00000000000075 253.36602540378493 1.5
    vertex 9.500000000000732 253.36602540378468 1.5
    vertex 9.866025403785272 253.00000000000026 1.5
  endloop
endfacet
facet normal 0.0 0.0 1.0
  outer loop
    vertex 12.00000000000075 253.36602540378493 1.5
    vertex 9.866025403785272 253.00000000000026 1.5
    vertex 11.633974596216332 253.00000000000048 1.5
  endloop
endfacet
facet normal 0.0 0.0 1.0
  outer loop
    vertex 11.633974596216332 253.00000000000048 1.5
    vertex 9.866025403785272 253.00000000000026 1.5
    vertex 11.500000000000822 252.50000000000045 1.5
  endloop
endfacet
facet normal 0.0 0.0 1.0
  outer loop
    vertex 11.500000000000822 252.50000000000045 1.5
    vertex 9.866025403785272 253.00000000000026 1.5
    vertex 10.000000000000803 252.50000000000028 1.5
  endloop
endfacet
facet normal 0.0 0.0 1.0
  outer loop
    vertex 11.500000000000822 252.50000000000045 1.5
    vertex 10.000000000000803 252.50000000000028 1.5
    vertex 9.866025403785338 252.00000000000026 1.5
  endloop
endfacet
facet normal 0.0 0.0 1.0
  outer loop
    vertex 11.500000000000822 252.50000000000045 1.5
    vertex 9.866025403785338 252.00000000000026 1.5
    vertex 11.633974596216486 252.00000000000045 1.5
  endloop
endfacet
facet normal 0.0 0.0 1.0
  outer loop
    vertex 11.633974596216486 252.00000000000045 1.5
    vertex 9.866025403785338 252.00000000000026 1.5
    vertex 9.500000000001013 251.6339745962158 1.5
  endloop
endfacet
facet normal 0.0 0.0 1.0
  outer loop
    vertex 11.633974596216486 252.00000000000045 1.5
    vertex 9.500000000001013 251.6339745962158 1.5
    vertex 12.000000000000984 251.63397459621606 1.5
  endloop
endfacet
facet normal 0.0 0.0 1.0
  outer loop
    vertex 12.000000000000984 251.63397459621606 1.5
    vertex 9.500000000001013 251.6339745962158 1.5
    vertex 9.000000000001005 251.5000000000002 1.5
  endloop
endfacet
facet normal 0.0 0.0 1.0
  outer loop
    vertex 12.000000000000984 251.63397459621606 1.5
    vertex 9.000000000001005 251.5000000000002 1.5
    vertex 12.500000000000977 251.50000000000057 1.5
  endloop
endfacet
facet normal 0.2588190451025197 -0.9659258262890686 -2.694969685323864e-19
  outer loop
    vertex 9.000000000012372 148.49999999999952 0.0
    vertex 8.50000000001232 148.36602540378396 1.5
    vertex 8.50000000001232 148.36602540378396 0.0
  endloop
endfacet
facet normal 0.2588190451025197 -0.9659258262890686 -2.694969685323864e-19
  outer loop
    vertex 8.50000000001232 148.36602540378396 1.5
    vertex 9.000000000012372 148.49999999999952 0.0
    vertex 9.000000000012372 148.49999999999952 1.5
  endloop
endfacet
facet normal -0.9659258262890845 0.25881904510245984 -1.3556627153170911e-14
  outer loop
    vertex 16.866025403785372 252.00000000000102 1.5
    vertex 17.000000000000924 252.50000000000105 0.0
    vertex 16.866025403785372 252.00000000000102 0.0
  endloop
endfacet
facet normal -0.9659258262890845 0.25881904510245984 -1.3556627153170911e-14
  outer loop
    vertex 17.000000000000924 252.50000000000105 0.0
    vertex 16.866025403785372 252.00000000000102 1.5
    vertex 17.00000000000088 252.50000000000105 1.5
  endloop
endfacet
facet normal -0.9659258262890938 0.25881904510242604 5.837526104037356e-15
  outer loop
    vertex 9.866025403796927 146.9999999999996 1.5
    vertex 10.000000000012434 147.49999999999963 0.0
    vertex 9.866025403796927 146.99999999999966 0.0
  endloop
endfacet
facet normal -0.9659258262890938 0.25881904510242604 5.837526104037356e-15
  outer loop
    vertex 10.000000000012434 147.49999999999963 0.0
    vertex 9.866025403796927 146.9999999999996 1.5
    vertex 10.000000000012434 147.49999999999963 1.5
  endloop
endfacet
facet normal -0.965925826289038 -0.25881904510263365 0.0
  outer loop
    vertex 13.50000000001245 147.50000000000006 1.5
    vertex 13.366025403796833 148.00000000000003 0.0
    vertex 13.50000000001245 147.50000000000006 0.0
  endloop
endfacet
facet normal -0.965925826289038 -0.25881904510263365 0.0
  outer loop
    vertex 13.366025403796833 148.00000000000003 0.0
    vertex 13.50000000001245 147.50000000000006 1.5
    vertex 13.366025403796833 148.00000000000003 1.5
  endloop
endfacet
facet normal 0.25881904510237985 0.9659258262891061 -3.894366139701689e-15
  outer loop
    vertex 8.500000000012601 146.63397459621504 1.5
    vertex 9.000000000012593 146.49999999999955 0.0
    vertex 8.500000000012555 146.63397459621504 0.0
  endloop
endfacet
facet normal 0.25881904510237985 0.9659258262891061 -3.894366139701689e-15
  outer loop
    vertex 9.000000000012593 146.49999999999955 0.0
    vertex 8.500000000012601 146.63397459621504 1.5
    vertex 9.000000000012593 146.49999999999955 1.5
  endloop
endfacet
facet normal -0.9659258262890922 0.2588190451024315 -2.694969685344588e-19
  outer loop
    vertex 16.866025403796957 147.00000000000045 1.5
    vertex 17.000000000012466 147.50000000000043 0.0
    vertex 16.866025403796957 147.00000000000045 0.0
  endloop
endfacet
facet normal -0.9659258262890922 0.2588190451024315 -2.694969685344588e-19
  outer loop
    vertex 17.000000000012466 147.50000000000043 0.0
    vertex 16.866025403796957 147.00000000000045 1.5
    vertex 17.000000000012466 147.50000000000043 1.5
  endloop
endfacet
facet normal -0.2588190451023596 -0.9659258262891116 -3.3728895055895133e-15
  outer loop
    vertex 13.000000000012333 148.36602540378445 0.0
    vertex 12.500000000012342 148.4999999999999 1.5
    vertex 12.500000000012342 148.4999999999999 0.0
  endloop
endfacet
facet normal -0.2588190451023596 -0.9659258262891116 -3.3728895055895133e-15
  outer loop
    vertex 12.500000000012342 148.4999999999999 1.5
    vertex 13.000000000012333 148.36602540378445 0.0
    vertex 13.000000000012378 148.36602540378445 1.5
  endloop
endfacet
facet normal 0.7071067811863387 0.7071067811867564 -1.0639606156940336e-14
  outer loop
    vertex 8.500000000012601 146.63397459621504 1.5
    vertex 8.133974596228015 146.9999999999994 0.0
    vertex 8.133974596228015 146.9999999999994 1.5
  endloop
endfacet
facet normal 0.7071067811863387 0.7071067811867564 -1.0639606156940336e-14
  outer loop
    vertex 8.133974596228015 146.9999999999994 0.0
    vertex 8.500000000012601 146.63397459621504 1.5
    vertex 8.500000000012555 146.63397459621504 0.0
  endloop
endfacet
facet normal 0.9659258262890605 0.25881904510254966 0.0
  outer loop
    vertex 15.000000000000883 252.50000000000082 1.5
    vertex 15.13397459621646 252.00000000000085 0.0
    vertex 15.000000000000883 252.50000000000082 0.0
  endloop
endfacet
facet normal 0.9659258262890605 0.25881904510254966 0.0
  outer loop
    vertex 15.13397459621646 252.00000000000085 0.0
    vertex 15.000000000000883 252.50000000000082 1.5
    vertex 15.13397459621646 252.00000000000085 1.5
  endloop
endfacet
facet normal 0.9659258262890917 -0.258819045102434 -1.258732822073025e-14
  outer loop
    vertex 8.133974596227947 147.9999999999995 1.5
    vertex 8.000000000012394 147.4999999999994 0.0
    vertex 8.133974596227947 147.9999999999995 0.0
  endloop
endfacet
facet normal 0.9659258262890917 -0.258819045102434 -1.258732822073025e-14
  outer loop
    vertex 8.000000000012394 147.4999999999994 0.0
    vertex 8.133974596227947 147.9999999999995 1.5
    vertex 8.000000000012438 147.4999999999994 1.5
  endloop
endfacet
facet normal -0.7071067811864803 -0.7071067811866149 1.5948417906738354e-14
  outer loop
    vertex 9.86602540379686 147.9999999999996 1.5
    vertex 9.500000000012363 148.366025403784 0.0
    vertex 9.866025403796815 147.99999999999957 0.0
  endloop
endfacet
facet normal -0.7071067811864803 -0.7071067811866149 1.5948417906738354e-14
  outer loop
    vertex 9.500000000012363 148.366025403784 0.0
    vertex 9.86602540379686 147.9999999999996 1.5
    vertex 9.500000000012273 148.36602540378408 1.5
  endloop
endfacet
facet normal -0.25881904510258213 0.9659258262890519 -2.694969685321127e-19
  outer loop
    vertex 13.00000000001257 146.63397459621558 1.5
    vertex 12.500000000012564 146.49999999999994 0.0
    vertex 12.500000000012564 146.49999999999994 1.5
  endloop
endfacet
facet normal -0.25881904510258213 0.9659258262890519 -2.694969685321127e-19
  outer loop
    vertex 12.500000000012564 146.49999999999994 0.0
    vertex 13.00000000001257 146.63397459621558 1.5
    vertex 13.00000000001257 146.63397459621558 0.0
  endloop
endfacet
facet normal -0.7071067811864804 -0.7071067811866147 5.314307414134134e-15
  outer loop
    vertex 13.366025403796833 148.00000000000003 1.5
    vertex 13.000000000012333 148.36602540378445 0.0
    vertex 13.366025403796833 148.00000000000003 0.0
  endloop
endfacet
facet normal -0.7071067811864804 -0.7071067811866147 5.314307414134134e-15
  outer loop
    vertex 13.000000000012333 148.36602540378445 0.0
    vertex 13.366025403796833 148.00000000000003 1.5
    vertex 13.000000000012378 148.36602540378445 1.5
  endloop
endfacet
facet normal -0.2588190451026853 0.9659258262890243 3.484111579151068e-18
  outer loop
    vertex 9.500000000012554 146.63397459621518 1.5
    vertex 9.000000000012593 146.49999999999955 0.0
    vertex 9.000000000012593 146.49999999999955 1.5
  endloop
endfacet
facet normal -0.2588190451026853 0.9659258262890243 3.484111579151068e-18
  outer loop
    vertex 9.000000000012593 146.49999999999955 0.0
    vertex 9.500000000012554 146.63397459621518 1.5
    vertex 9.500000000012554 146.63397459621518 0.0
  endloop
endfacet
facet normal 0.9659258262890924 -0.2588190451024315 0.0
  outer loop
    vertex 11.633974596227963 147.99999999999983 1.5
    vertex 11.500000000012454 147.49999999999983 0.0
    vertex 11.633974596227963 147.99999999999983 0.0
  endloop
endfacet
facet normal 0.9659258262890924 -0.2588190451024315 0.0
  outer loop
    vertex 11.500000000012454 147.49999999999983 0.0
    vertex 11.633974596227963 147.99999999999983 1.5
    vertex 11.500000000012454 147.49999999999983 1.5
  endloop
endfacet
facet normal 0.7071067811866583 -0.7071067811864369 5.314307414133643e-15
  outer loop
    vertex 12.000000000012337 148.36602540378433 1.5
    vertex 11.633974596227963 147.99999999999983 0.0
    vertex 12.000000000012337 148.3660254037843 0.0
  endloop
endfacet
facet normal 0.7071067811866583 -0.7071067811864369 5.314307414133643e-15
  outer loop
    vertex 11.633974596227963 147.99999999999983 0.0
    vertex 12.000000000012337 148.36602540378433 1.5
    vertex 11.633974596227963 147.99999999999983 1.5
  endloop
endfacet
facet normal 0.25881904510239084 0.9659258262891032 0.0
  outer loop
    vertex 12.500000000012564 146.49999999999994 1.5
    vertex 12.000000000012571 146.63397459621547 0.0
    vertex 12.000000000012571 146.63397459621547 1.5
  endloop
endfacet
facet normal 0.25881904510239084 0.9659258262891032 0.0
  outer loop
    vertex 12.000000000012571 146.63397459621547 0.0
    vertex 12.500000000012564 146.49999999999994 1.5
    vertex 12.500000000012564 146.49999999999994 0.0
  endloop
endfacet
facet normal 0.258819045102401 0.9659258262891004 0.0
  outer loop
    vertex 9.000000000001005 251.5000000000002 1.5
    vertex 8.500000000001014 251.63397459621567 0.0
    vertex 8.500000000001014 251.63397459621567 1.5
  endloop
endfacet
facet normal 0.258819045102401 0.9659258262891004 0.0
  outer loop
    vertex 8.500000000001014 251.63397459621567 0.0
    vertex 9.000000000001005 251.5000000000002 1.5
    vertex 9.000000000001005 251.5000000000002 0.0
  endloop
endfacet
facet normal 0.7071067811864096 0.7071067811866855 0.0
  outer loop
    vertex 8.500000000001014 251.63397459621567 1.5
    vertex 8.13397459621647 252.00000000000009 0.0
    vertex 8.13397459621647 252.00000000000009 1.5
  endloop
endfacet
facet normal 0.7071067811864096 0.7071067811866855 0.0
  outer loop
    vertex 8.13397459621647 252.00000000000009 0.0
    vertex 8.500000000001014 251.63397459621567 1.5
    vertex 8.500000000001014 251.63397459621567 0.0
  endloop
endfacet
facet normal 0.965925826289038 0.2588190451026337 0.0
  outer loop
    vertex 8.00000000000085 252.50000000000006 1.5
    vertex 8.13397459621647 252.00000000000009 0.0
    vertex 8.00000000000085 252.50000000000006 0.0
  endloop
endfacet
facet normal 0.965925826289038 0.2588190451026337 0.0
  outer loop
    vertex 8.13397459621647 252.00000000000009 0.0
    vertex 8.00000000000085 252.50000000000006 1.5
    vertex 8.13397459621647 252.00000000000009 1.5
  endloop
endfacet
facet normal -0.2588190451026228 0.9659258262890411 0.0
  outer loop
    vertex 9.500000000001013 251.6339745962158 1.5
    vertex 9.000000000001005 251.5000000000002 0.0
    vertex 9.000000000001005 251.5000000000002 1.5
  endloop
endfacet
facet normal -0.2588190451026228 0.9659258262890411 0.0
  outer loop
    vertex 9.000000000001005 251.5000000000002 0.0
    vertex 9.500000000001013 251.6339745962158 1.5
    vertex 9.500000000001013 251.6339745962158 0.0
  endloop
endfacet
facet normal -0.7071067811867018 0.7071067811863933 -3.6196177028594726e-30
  outer loop
    vertex 9.500000000001013 251.6339745962158 1.5
    vertex 9.866025403785338 252.00000000000026 0.0
    vertex 9.500000000001013 251.6339745962158 0.0
  endloop
endfacet
facet normal -0.7071067811867018 0.7071067811863933 -3.6196177028594726e-30
  outer loop
    vertex 9.866025403785338 252.00000000000026 0.0
    vertex 9.500000000001013 251.6339745962158 1.5
    vertex 9.866025403785338 252.00000000000026 1.5
  endloop
endfacet
facet normal -0.7071067811864327 -0.7071067811866624 -9.969135107795557e-15
  outer loop
    vertex 9.500000000000776 253.36602540378468 0.0
    vertex 9.866025403785272 253.00000000000026 1.5
    vertex 9.500000000000732 253.36602540378468 1.5
  endloop
endfacet
facet normal -0.7071067811864327 -0.7071067811866624 -9.969135107795557e-15
  outer loop
    vertex 9.866025403785272 253.00000000000026 1.5
    vertex 9.500000000000776 253.36602540378468 0.0
    vertex 9.866025403785272 253.00000000000026 0.0
  endloop
endfacet
facet normal -0.9659258262890461 -0.258819045102604 1.8420831219251084e-14
  outer loop
    vertex 10.000000000012434 147.49999999999963 1.5
    vertex 9.866025403796815 147.99999999999957 0.0
    vertex 10.000000000012434 147.49999999999963 0.0
  endloop
endfacet
facet normal -0.9659258262890461 -0.258819045102604 1.8420831219251084e-14
  outer loop
    vertex 9.866025403796815 147.99999999999957 0.0
    vertex 10.000000000012434 147.49999999999963 1.5
    vertex 9.86602540379686 147.9999999999996 1.5
  endloop
endfacet
facet normal -0.7071067811864397 -0.7071067811866555 -1.4623962801458122e-14
  outer loop
    vertex 16.866025403785308 253.00000000000102 0.0
    vertex 16.500000000000764 253.36602540378544 1.5
    vertex 16.500000000000764 253.36602540378544 0.0
  endloop
endfacet
facet normal -0.7071067811864397 -0.7071067811866555 -1.4623962801458122e-14
  outer loop
    vertex 16.500000000000764 253.36602540378544 1.5
    vertex 16.866025403785308 253.00000000000102 0.0
    vertex 16.86602540378526 253.00000000000102 1.5
  endloop
endfacet
facet normal -0.25881904510241116 -0.9659258262890977 3.1082628314999173e-15
  outer loop
    vertex 9.000000000000785 253.50000000000014 0.0
    vertex 9.500000000000732 253.36602540378468 1.5
    vertex 9.000000000000739 253.5000000000002 1.5
  endloop
endfacet
facet normal -0.25881904510241116 -0.9659258262890977 3.1082628314999173e-15
  outer loop
    vertex 9.500000000000732 253.36602540378468 1.5
    vertex 9.000000000000785 253.50000000000014 0.0
    vertex 9.500000000000776 253.36602540378468 0.0
  endloop
endfacet
facet normal 0.2588190451025713 -0.9659258262890548 1.8416808113734503e-14
  outer loop
    vertex 16.000000000012403 148.50000000000028 0.0
    vertex 15.500000000012351 148.36602540378473 1.5
    vertex 15.500000000012351 148.36602540378473 0.0
  endloop
endfacet
facet normal 0.2588190451025713 -0.9659258262890548 1.8416808113734503e-14
  outer loop
    vertex 15.500000000012351 148.36602540378473 1.5
    vertex 16.000000000012403 148.50000000000028 0.0
    vertex 16.00000000001236 148.50000000000034 1.5
  endloop
endfacet
facet normal -0.7071067811866556 0.7071067811864395 -1.0639606156942756e-14
  outer loop
    vertex 16.500000000001 251.63397459621658 1.5
    vertex 16.866025403785372 252.00000000000102 0.0
    vertex 16.500000000001044 251.63397459621658 0.0
  endloop
endfacet
facet normal -0.7071067811866556 0.7071067811864395 -1.0639606156942756e-14
  outer loop
    vertex 16.866025403785372 252.00000000000102 0.0
    vertex 16.500000000001 251.63397459621658 1.5
    vertex 16.866025403785372 252.00000000000102 1.5
  endloop
endfacet
facet normal -0.9659258262890953 0.25881904510242054 -2.694969685345062e-19
  outer loop
    vertex 13.366025403796943 147.00000000000003 1.5
    vertex 13.50000000001245 147.50000000000006 0.0
    vertex 13.366025403796943 147.00000000000003 0.0
  endloop
endfacet
facet normal -0.9659258262890953 0.25881904510242054 -2.694969685345062e-19
  outer loop
    vertex 13.50000000001245 147.50000000000006 0.0
    vertex 13.366025403796943 147.00000000000003 1.5
    vertex 13.50000000001245 147.50000000000006 1.5
  endloop
endfacet
facet normal -0.7071067811866474 0.7071067811864477 0.0
  outer loop
    vertex 16.500000000012587 146.63397459621598 1.5
    vertex 16.866025403796957 147.00000000000045 0.0
    vertex 16.500000000012587 146.63397459621598 0.0
  endloop
endfacet
facet normal -0.7071067811866474 0.7071067811864477 0.0
  outer loop
    vertex 16.866025403796957 147.00000000000045 0.0
    vertex 16.500000000012587 146.63397459621598 1.5
    vertex 16.866025403796957 147.00000000000045 1.5
  endloop
endfacet
facet normal 0.9659258262890958 -0.2588190451024178 -4.867957674627826e-16
  outer loop
    vertex 15.133974596216394 253.00000000000085 1.5
    vertex 15.000000000000883 252.50000000000082 0.0
    vertex 15.133974596216394 253.00000000000085 0.0
  endloop
endfacet
facet normal 0.9659258262890958 -0.2588190451024178 -4.867957674627826e-16
  outer loop
    vertex 15.000000000000883 252.50000000000082 0.0
    vertex 15.133974596216394 253.00000000000085 1.5
    vertex 15.000000000000883 252.50000000000082 1.5
  endloop
endfacet
facet normal 0.7071067811866732 -0.7071067811864219 7.30923356856151e-15
  outer loop
    vertex 8.500000000000687 253.36602540378453 1.5
    vertex 8.13397459621636 253.00000000000009 0.0
    vertex 8.500000000000734 253.36602540378453 0.0
  endloop
endfacet
facet normal 0.7071067811866732 -0.7071067811864219 7.30923356856151e-15
  outer loop
    vertex 8.13397459621636 253.00000000000009 0.0
    vertex 8.500000000000687 253.36602540378453 1.5
    vertex 8.13397459621636 253.00000000000009 1.5
  endloop
endfacet
facet normal 0.7071067811864259 0.7071067811866691 1.0634110492604381e-14
  outer loop
    vertex 15.500000000012587 146.63397459621584 1.5
    vertex 15.133974596228091 147.00000000000023 0.0
    vertex 15.133974596228091 147.0000000000002 1.5
  endloop
endfacet
facet normal 0.7071067811864259 0.7071067811866691 1.0634110492604381e-14
  outer loop
    vertex 15.133974596228091 147.00000000000023 0.0
    vertex 15.500000000012587 146.63397459621584 1.5
    vertex 15.500000000012633 146.6339745962158 0.0
  endloop
endfacet
facet normal 0.9659258262890963 -0.25881904510241643 -9.7359153492556e-16
  outer loop
    vertex 8.13397459621636 253.00000000000009 1.5
    vertex 8.00000000000085 252.50000000000006 0.0
    vertex 8.13397459621636 253.00000000000009 0.0
  endloop
endfacet
facet normal 0.9659258262890963 -0.25881904510241643 -9.7359153492556e-16
  outer loop
    vertex 8.00000000000085 252.50000000000006 0.0
    vertex 8.13397459621636 253.00000000000009 1.5
    vertex 8.00000000000085 252.50000000000006 1.5
  endloop
endfacet
facet normal 0.965925826289038 0.25881904510263365 0.0
  outer loop
    vertex 11.500000000012454 147.49999999999983 1.5
    vertex 11.633974596228075 146.99999999999983 0.0
    vertex 11.500000000012454 147.49999999999983 0.0
  endloop
endfacet
facet normal 0.965925826289038 0.25881904510263365 0.0
  outer loop
    vertex 11.633974596228075 146.99999999999983 0.0
    vertex 11.500000000012454 147.49999999999983 1.5
    vertex 11.633974596228075 146.99999999999983 1.5
  endloop
endfacet
facet normal -0.7071067811866869 0.7071067811864082 1.927879049512268e-14
  outer loop
    vertex 13.000000000001029 251.6339745962162 1.5
    vertex 13.36602540378531 252.00000000000065 0.0
    vertex 13.000000000000982 251.6339745962162 0.0
  endloop
endfacet
facet normal -0.7071067811866869 0.7071067811864082 1.927879049512268e-14
  outer loop
    vertex 13.36602540378531 252.00000000000065 0.0
    vertex 13.000000000001029 251.6339745962162 1.5
    vertex 13.366025403785356 252.00000000000065 1.5
  endloop
endfacet
facet normal 0.2588190451025897 -0.9659258262890498 2.7251198056208734e-15
  outer loop
    vertex 12.500000000000755 253.50000000000054 0.0
    vertex 12.00000000000075 253.36602540378493 1.5
    vertex 12.00000000000075 253.36602540378493 0.0
  endloop
endfacet
facet normal 0.2588190451025897 -0.9659258262890498 2.7251198056208734e-15
  outer loop
    vertex 12.00000000000075 253.36602540378493 1.5
    vertex 12.500000000000755 253.50000000000054 0.0
    vertex 12.500000000000755 253.50000000000054 1.5
  endloop
endfacet
facet normal 0.7071067811864368 0.7071067811866584 5.319803078471398e-15
  outer loop
    vertex 12.000000000000984 251.63397459621606 1.5
    vertex 11.633974596216486 252.00000000000045 0.0
    vertex 11.633974596216486 252.00000000000045 1.5
  endloop
endfacet
facet normal 0.7071067811864368 0.7071067811866584 5.319803078471398e-15
  outer loop
    vertex 11.633974596216486 252.00000000000045 0.0
    vertex 12.000000000000984 251.63397459621606 1.5
    vertex 12.000000000000984 251.63397459621606 0.0
  endloop
endfacet
facet normal -0.9659258262890942 0.2588190451024247 -2.906097637013063e-14
  outer loop
    vertex 9.866025403785338 252.00000000000026 1.5
    vertex 10.000000000000892 252.50000000000028 0.0
    vertex 9.866025403785338 252.00000000000026 0.0
  endloop
endfacet
facet normal -0.9659258262890942 0.2588190451024247 -2.906097637013063e-14
  outer loop
    vertex 10.000000000000892 252.50000000000028 0.0
    vertex 9.866025403785338 252.00000000000026 1.5
    vertex 10.000000000000803 252.50000000000028 1.5
  endloop
endfacet
facet normal -0.25881904510241693 -0.9659258262890961 -5.185612937152877e-15
  outer loop
    vertex 16.500000000000764 253.36602540378544 0.0
    vertex 16.000000000000817 253.5000000000009 1.5
    vertex 16.00000000000077 253.50000000000097 0.0
  endloop
endfacet
facet normal -0.25881904510241693 -0.9659258262890961 -5.185612937152877e-15
  outer loop
    vertex 16.000000000000817 253.5000000000009 1.5
    vertex 16.500000000000764 253.36602540378544 0.0
    vertex 16.500000000000764 253.36602540378544 1.5
  endloop
endfacet
facet normal -0.2588190451024423 -0.9659258262890894 1.063585254839408e-14
  outer loop
    vertex 16.000000000012403 148.50000000000028 0.0
    vertex 16.50000000001235 148.36602540378482 1.5
    vertex 16.00000000001236 148.50000000000034 1.5
  endloop
endfacet
facet normal -0.2588190451024423 -0.9659258262890894 1.063585254839408e-14
  outer loop
    vertex 16.50000000001235 148.36602540378482 1.5
    vertex 16.000000000012403 148.50000000000028 0.0
    vertex 16.50000000001235 148.36602540378482 0.0
  endloop
endfacet
facet normal 0.9659258262890953 -0.25881904510242054 -3.894366139702301e-15
  outer loop
    vertex 15.133974596227981 148.0000000000002 1.5
    vertex 15.00000000001247 147.5000000000002 0.0
    vertex 15.133974596227981 148.00000000000026 0.0
  endloop
endfacet
facet normal 0.9659258262890953 -0.25881904510242054 -3.894366139702301e-15
  outer loop
    vertex 15.00000000001247 147.5000000000002 0.0
    vertex 15.133974596227981 148.0000000000002 1.5
    vertex 15.00000000001247 147.5000000000002 1.5
  endloop
endfacet
facet normal 0.25881904510245185 0.965925826289087 7.263232539774492e-15
  outer loop
    vertex 12.500000000000977 251.50000000000057 1.5
    vertex 12.000000000000984 251.63397459621606 0.0
    vertex 12.000000000000984 251.63397459621606 1.5
  endloop
endfacet
facet normal 0.25881904510245185 0.965925826289087 7.263232539774492e-15
  outer loop
    vertex 12.000000000000984 251.63397459621606 0.0
    vertex 12.500000000000977 251.50000000000057 1.5
    vertex 12.500000000000977 251.50000000000057 0.0
  endloop
endfacet
facet normal -0.9659258262890351 -0.2588190451026446 0.0
  outer loop
    vertex 17.000000000012466 147.50000000000043 1.5
    vertex 16.866025403796847 148.0000000000004 0.0
    vertex 17.000000000012466 147.50000000000043 0.0
  endloop
endfacet
facet normal -0.9659258262890351 -0.2588190451026446 0.0
  outer loop
    vertex 16.866025403796847 148.0000000000004 0.0
    vertex 17.000000000012466 147.50000000000043 1.5
    vertex 16.866025403796847 148.0000000000004 1.5
  endloop
endfacet
facet normal -0.2588190451027259 0.9659258262890134 3.4841115791512044e-18
  outer loop
    vertex 16.500000000012587 146.63397459621598 1.5
    vertex 16.000000000012623 146.50000000000028 0.0
    vertex 16.000000000012623 146.50000000000028 1.5
  endloop
endfacet
facet normal -0.2588190451027259 0.9659258262890134 3.4841115791512044e-18
  outer loop
    vertex 16.000000000012623 146.50000000000028 0.0
    vertex 16.500000000012587 146.63397459621598 1.5
    vertex 16.500000000012587 146.63397459621598 0.0
  endloop
endfacet
facet normal 0.2588190451025941 -0.9659258262890488 -1.0245202305419829e-14
  outer loop
    vertex 16.00000000000077 253.50000000000097 0.0
    vertex 15.500000000000764 253.36602540378536 1.5
    vertex 15.500000000000764 253.36602540378536 0.0
  endloop
endfacet
facet normal 0.2588190451025941 -0.9659258262890488 -1.0245202305419829e-14
  outer loop
    vertex 15.500000000000764 253.36602540378536 1.5
    vertex 16.00000000000077 253.50000000000097 0.0
    vertex 16.000000000000817 253.5000000000009 1.5
  endloop
endfacet
facet normal -0.9659258262890481 -0.25881904510259657 1.3311487213650576e-14
  outer loop
    vertex 13.500000000000863 252.50000000000065 1.5
    vertex 13.366025403785246 253.00000000000065 0.0
    vertex 13.500000000000819 252.50000000000068 0.0
  endloop
endfacet
facet normal -0.9659258262890481 -0.25881904510259657 1.3311487213650576e-14
  outer loop
    vertex 13.366025403785246 253.00000000000065 0.0
    vertex 13.500000000000863 252.50000000000065 1.5
    vertex 13.366025403785246 253.00000000000065 1.5
  endloop
endfacet
facet normal 0.7071067811864259 0.7071067811866691 0.0
  outer loop
    vertex 15.500000000001 251.63397459621643 1.5
    vertex 15.13397459621646 252.00000000000085 0.0
    vertex 15.13397459621646 252.00000000000085 1.5
  endloop
endfacet
facet normal 0.7071067811864259 0.7071067811866691 0.0
  outer loop
    vertex 15.13397459621646 252.00000000000085 0.0
    vertex 15.500000000001 251.63397459621643 1.5
    vertex 15.500000000001 251.63397459621643 0.0
  endloop
endfacet
facet normal -0.25881904510239234 -0.9659258262891027 1.400874205398399e-14
  outer loop
    vertex 9.500000000012363 148.366025403784 0.0
    vertex 9.000000000012372 148.49999999999952 1.5
    vertex 9.000000000012372 148.49999999999952 0.0
  endloop
endfacet
facet normal -0.25881904510239234 -0.9659258262891027 1.400874205398399e-14
  outer loop
    vertex 9.000000000012372 148.49999999999952 1.5
    vertex 9.500000000012363 148.366025403784 0.0
    vertex 9.500000000012273 148.36602540378408 1.5
  endloop
endfacet
facet normal 0.9659258262890394 0.2588190451026282 1.9431599643348883e-15
  outer loop
    vertex 15.00000000001247 147.5000000000002 1.5
    vertex 15.133974596228091 147.00000000000023 0.0
    vertex 15.00000000001247 147.5000000000002 0.0
  endloop
endfacet
facet normal 0.9659258262890394 0.2588190451026282 1.9431599643348883e-15
  outer loop
    vertex 15.133974596228091 147.00000000000023 0.0
    vertex 15.00000000001247 147.5000000000002 1.5
    vertex 15.133974596228091 147.0000000000002 1.5
  endloop
endfacet
facet normal 0.9659258262890533 0.25881904510257664 -1.6473378652431525e-14
  outer loop
    vertex 8.000000000012438 147.4999999999994 1.5
    vertex 8.133974596228015 146.9999999999994 0.0
    vertex 8.000000000012394 147.4999999999994 0.0
  endloop
endfacet
facet normal 0.9659258262890533 0.25881904510257664 -1.6473378652431525e-14
  outer loop
    vertex 8.133974596228015 146.9999999999994 0.0
    vertex 8.000000000012438 147.4999999999994 1.5
    vertex 8.133974596228015 146.9999999999994 1.5
  endloop
endfacet
facet normal -0.9659258262890938 0.25881904510242604 2.9543210038140133e-14
  outer loop
    vertex 13.366025403785356 252.00000000000065 1.5
    vertex 13.500000000000819 252.50000000000068 0.0
    vertex 13.36602540378531 252.00000000000065 0.0
  endloop
endfacet
facet normal -0.9659258262890938 0.25881904510242604 2.9543210038140133e-14
  outer loop
    vertex 13.500000000000819 252.50000000000068 0.0
    vertex 13.366025403785356 252.00000000000065 1.5
    vertex 13.500000000000863 252.50000000000065 1.5
  endloop
endfacet
facet normal 0.7071067811864477 0.7071067811866474 0.0
  outer loop
    vertex 12.000000000012571 146.63397459621547 1.5
    vertex 11.633974596228075 146.99999999999983 0.0
    vertex 11.633974596228075 146.99999999999983 1.5
  endloop
endfacet
facet normal 0.7071067811864477 0.7071067811866474 0.0
  outer loop
    vertex 11.633974596228075 146.99999999999983 0.0
    vertex 12.000000000012571 146.63397459621547 1.5
    vertex 12.000000000012571 146.63397459621547 0.0
  endloop
endfacet
facet normal 0.2588190451023792 0.9659258262891063 0.0
  outer loop
    vertex 16.000000000001037 251.5000000000009 1.5
    vertex 15.500000000001 251.63397459621643 0.0
    vertex 15.500000000001 251.63397459621643 1.5
  endloop
endfacet
facet normal 0.2588190451023792 0.9659258262891063 0.0
  outer loop
    vertex 15.500000000001 251.63397459621643 0.0
    vertex 16.000000000001037 251.5000000000009 1.5
    vertex 16.000000000001037 251.5000000000009 0.0
  endloop
endfacet
facet normal -0.7071067811864695 -0.7071067811866256 0.0
  outer loop
    vertex 13.366025403785246 253.00000000000065 0.0
    vertex 13.000000000000746 253.36602540378507 1.5
    vertex 13.000000000000746 253.36602540378507 0.0
  endloop
endfacet
facet normal -0.7071067811864695 -0.7071067811866256 0.0
  outer loop
    vertex 13.000000000000746 253.36602540378507 1.5
    vertex 13.366025403785246 253.00000000000065 0.0
    vertex 13.366025403785246 253.00000000000065 1.5
  endloop
endfacet
facet normal 0.7071067811866474 -0.7071067811864477 0.0
  outer loop
    vertex 8.50000000001232 148.36602540378396 1.5
    vertex 8.133974596227947 147.9999999999995 0.0
    vertex 8.50000000001232 148.36602540378396 0.0
  endloop
endfacet
facet normal 0.7071067811866474 -0.7071067811864477 0.0
  outer loop
    vertex 8.133974596227947 147.9999999999995 0.0
    vertex 8.50000000001232 148.36602540378396 1.5
    vertex 8.133974596227947 147.9999999999995 1.5
  endloop
endfacet
facet normal 0.965925826289028 0.25881904510267095 1.331121771668139e-14
  outer loop
    vertex 11.500000000000822 252.50000000000045 1.5
    vertex 11.633974596216486 252.00000000000045 0.0
    vertex 11.500000000000867 252.50000000000043 0.0
  endloop
endfacet
facet normal 0.965925826289028 0.25881904510267095 1.331121771668139e-14
  outer loop
    vertex 11.633974596216486 252.00000000000045 0.0
    vertex 11.500000000000822 252.50000000000045 1.5
    vertex 11.633974596216486 252.00000000000045 1.5
  endloop
endfacet
facet normal 0.7071067811866543 -0.7071067811864408 6.649753848088669e-16
  outer loop
    vertex 15.500000000000764 253.36602540378536 1.5
    vertex 15.133974596216394 253.00000000000085 0.0
    vertex 15.500000000000764 253.36602540378536 0.0
  endloop
endfacet
facet normal 0.7071067811866543 -0.7071067811864408 6.649753848088669e-16
  outer loop
    vertex 15.133974596216394 253.00000000000085 0.0
    vertex 15.500000000000764 253.36602540378536 1.5
    vertex 15.133974596216394 253.00000000000085 1.5
  endloop
endfacet
facet normal 0.25881904510260245 -0.9659258262890464 7.262963042806083e-15
  outer loop
    vertex 12.500000000012342 148.4999999999999 0.0
    vertex 12.000000000012337 148.36602540378433 1.5
    vertex 12.000000000012337 148.3660254037843 0.0
  endloop
endfacet
facet normal 0.25881904510260245 -0.9659258262890464 7.262963042806083e-15
  outer loop
    vertex 12.000000000012337 148.36602540378433 1.5
    vertex 12.500000000012342 148.4999999999999 0.0
    vertex 12.500000000012342 148.4999999999999 1.5
  endloop
endfacet
facet normal 0.7071067811866296 -0.7071067811864654 1.2629036647031768e-14
  outer loop
    vertex 12.00000000000075 253.36602540378493 1.5
    vertex 11.633974596216376 253.00000000000048 0.0
    vertex 12.00000000000075 253.36602540378493 0.0
  endloop
endfacet
facet normal 0.7071067811866296 -0.7071067811864654 1.2629036647031768e-14
  outer loop
    vertex 11.633974596216376 253.00000000000048 0.0
    vertex 12.00000000000075 253.36602540378493 1.5
    vertex 11.633974596216332 253.00000000000048 1.5
  endloop
endfacet
facet normal -0.7071067811866474 0.7071067811864477 0.0
  outer loop
    vertex 13.00000000001257 146.63397459621558 1.5
    vertex 13.366025403796943 147.00000000000003 0.0
    vertex 13.00000000001257 146.63397459621558 0.0
  endloop
endfacet
facet normal -0.7071067811866474 0.7071067811864477 0.0
  outer loop
    vertex 13.366025403796943 147.00000000000003 0.0
    vertex 13.00000000001257 146.63397459621558 1.5
    vertex 13.366025403796943 147.00000000000003 1.5
  endloop
endfacet
facet normal -0.9659258262890378 -0.25881904510263515 -3.1490662604959853e-14
  outer loop
    vertex 17.00000000000088 252.50000000000105 1.5
    vertex 16.866025403785308 253.00000000000102 0.0
    vertex 17.000000000000924 252.50000000000105 0.0
  endloop
endfacet
facet normal -0.9659258262890378 -0.25881904510263515 -3.1490662604959853e-14
  outer loop
    vertex 16.866025403785308 253.00000000000102 0.0
    vertex 17.00000000000088 252.50000000000105 1.5
    vertex 16.86602540378526 253.00000000000102 1.5
  endloop
endfacet
facet normal -0.7071067811866147 0.7071067811864804 1.5953913571076437e-14
  outer loop
    vertex 9.866025403796927 146.9999999999996 1.5
    vertex 9.500000000012554 146.63397459621518 0.0
    vertex 9.500000000012554 146.63397459621518 1.5
  endloop
endfacet
facet normal -0.7071067811866147 0.7071067811864804 1.5953913571076437e-14
  outer loop
    vertex 9.500000000012554 146.63397459621518 0.0
    vertex 9.866025403796927 146.9999999999996 1.5
    vertex 9.866025403796927 146.99999999999966 0.0
  endloop
endfacet
facet normal -0.25881904510268455 0.9659258262890245 -3.89061253115538e-15
  outer loop
    vertex 16.500000000001 251.63397459621658 1.5
    vertex 16.000000000001037 251.5000000000009 0.0
    vertex 16.000000000001037 251.5000000000009 1.5
  endloop
endfacet
facet normal -0.25881904510268455 0.9659258262890245 -3.89061253115538e-15
  outer loop
    vertex 16.000000000001037 251.5000000000009 0.0
    vertex 16.500000000001 251.63397459621658 1.5
    vertex 16.500000000001044 251.63397459621658 0.0
  endloop
endfacet
facet normal 0.7071067811866691 -0.7071067811864259 -1.0634110492604386e-14
  outer loop
    vertex 15.500000000012351 148.36602540378473 1.5
    vertex 15.133974596227981 148.00000000000026 0.0
    vertex 15.500000000012351 148.36602540378473 0.0
  endloop
endfacet
facet normal 0.7071067811866691 -0.7071067811864259 -1.0634110492604386e-14
  outer loop
    vertex 15.133974596227981 148.00000000000026 0.0
    vertex 15.500000000012351 148.36602540378473 1.5
    vertex 15.133974596227981 148.0000000000002 1.5
  endloop
endfacet
facet normal 0.2588190451024409 0.9659258262890899 -3.3766431141358145e-15
  outer loop
    vertex 16.000000000012623 146.50000000000028 1.5
    vertex 15.500000000012633 146.6339745962158 0.0
    vertex 15.500000000012587 146.63397459621584 1.5
  endloop
endfacet
facet normal 0.2588190451024409 0.9659258262890899 -3.3766431141358145e-15
  outer loop
    vertex 15.500000000012633 146.6339745962158 0.0
    vertex 16.000000000012623 146.50000000000028 1.5
    vertex 16.000000000012623 146.50000000000028 0.0
  endloop
endfacet
facet normal -0.9659258262890589 -0.25881904510255577 -3.027193113051356e-14
  outer loop
    vertex 10.000000000000803 252.50000000000028 1.5
    vertex 9.866025403785272 253.00000000000026 0.0
    vertex 10.000000000000892 252.50000000000028 0.0
  endloop
endfacet
facet normal -0.9659258262890589 -0.25881904510255577 -3.027193113051356e-14
  outer loop
    vertex 9.866025403785272 253.00000000000026 0.0
    vertex 10.000000000000803 252.50000000000028 1.5
    vertex 9.866025403785272 253.00000000000026 1.5
  endloop
endfacet
facet normal -0.2588190451026526 0.965925826289033 3.8943661397025846e-15
  outer loop
    vertex 13.000000000001029 251.6339745962162 1.5
    vertex 12.500000000000977 251.50000000000057 0.0
    vertex 12.500000000000977 251.50000000000057 1.5
  endloop
endfacet
facet normal -0.2588190451026526 0.965925826289033 3.8943661397025846e-15
  outer loop
    vertex 12.500000000000977 251.50000000000057 0.0
    vertex 13.000000000001029 251.6339745962162 1.5
    vertex 13.000000000000982 251.6339745962162 0.0
  endloop
endfacet
facet normal -0.25881904510239084 -0.9659258262891032 0.0
  outer loop
    vertex 13.000000000000746 253.36602540378507 0.0
    vertex 12.500000000000755 253.50000000000054 1.5
    vertex 12.500000000000755 253.50000000000054 0.0
  endloop
endfacet
facet normal -0.25881904510239084 -0.9659258262891032 0.0
  outer loop
    vertex 12.500000000000755 253.50000000000054 1.5
    vertex 13.000000000000746 253.36602540378507 0.0
    vertex 13.000000000000746 253.36602540378507 1.5
  endloop
endfacet
facet normal 0.2588190451025833 -0.9659258262890517 1.2322821908040643e-14
  outer loop
    vertex 8.500000000000734 253.36602540378453 0.0
    vertex 9.000000000000739 253.5000000000002 1.5
    vertex 8.500000000000687 253.36602540378453 1.5
  endloop
endfacet
facet normal 0.2588190451025833 -0.9659258262890517 1.2322821908040643e-14
  outer loop
    vertex 9.000000000000739 253.5000000000002 1.5
    vertex 8.500000000000734 253.36602540378453 0.0
    vertex 9.000000000000785 253.50000000000014 0.0
  endloop
endfacet
facet normal 0.9659258262890961 -0.2588190451024171 3.0271661633544774e-14
  outer loop
    vertex 11.633974596216332 253.00000000000048 1.5
    vertex 11.500000000000867 252.50000000000043 0.0
    vertex 11.633974596216376 253.00000000000048 0.0
  endloop
endfacet
facet normal 0.9659258262890961 -0.2588190451024171 3.0271661633544774e-14
  outer loop
    vertex 11.500000000000867 252.50000000000043 0.0
    vertex 11.633974596216332 253.00000000000048 1.5
    vertex 11.500000000000822 252.50000000000045 1.5
  endloop
endfacet
facet normal -0.7071067811864695 -0.7071067811866256 0.0
  outer loop
    vertex 16.866025403796847 148.0000000000004 0.0
    vertex 16.50000000001235 148.36602540378482 1.5
    vertex 16.50000000001235 148.36602540378482 0.0
  endloop
endfacet
facet normal -0.7071067811864695 -0.7071067811866256 0.0
  outer loop
    vertex 16.50000000001235 148.36602540378482 1.5
    vertex 16.866025403796847 148.0000000000004 0.0
    vertex 16.866025403796847 148.0000000000004 1.5
  endloop
endfacet
endsolid LED Numbers
