solid LED Numbers
facet normal 0.0 1.2212453270876722e-15 1.0
  outer loop
    vertex 150.25000000000125 195.99999998711186 11.500000040271326
    vertex 151.75000000000125 198.99999998711186 11.500000040271322
    vertex 150.25000000000125 198.99999998711186 11.500000040271322
  endloop
endfacet
facet normal 0.0 1.2212453270876722e-15 1.0
  outer loop
    vertex 151.75000000000125 198.99999998711186 11.500000040271322
    vertex 150.25000000000125 195.99999998711186 11.500000040271326
    vertex 151.75000000000125 195.99999998711186 11.500000040271326
  endloop
endfacet
facet normal 0.0 1.2212453270876722e-15 1.0
  outer loop
    vertex 173.25000000000122 195.99999998711186 11.500000040271326
    vertex 174.75000000000122 198.99999998711186 11.500000040271322
    vertex 173.25000000000122 198.99999998711186 11.500000040271322
  endloop
endfacet
facet normal 0.0 1.2212453270876722e-15 1.0
  outer loop
    vertex 174.75000000000122 198.99999998711186 11.500000040271322
    vertex 173.25000000000122 195.99999998711186 11.500000040271326
    vertex 174.75000000000122 195.99999998711186 11.500000040271326
  endloop
endfacet
facet normal 0.0 1.2212453270876722e-15 1.0
  outer loop
    vertex 125.00000000000776 198.99999998711186 11.500000040271322
    vertex 200.00000000000554 203.99999998711183 11.500000040271317
    vertex 125.00000000000776 203.9999999871119 11.500000040271317
  endloop
endfacet
facet normal 0.0 1.2212453270876722e-15 1.0
  outer loop
    vertex 200.00000000000554 203.99999998711183 11.500000040271317
    vertex 125.00000000000776 198.99999998711186 11.500000040271322
    vertex 200.00000000000554 198.99999998711186 11.500000040271322
  endloop
endfacet
facet normal 0.0 1.2212453270876722e-15 1.0
  outer loop
    vertex 200.00000000000554 198.99999998711186 11.500000040271322
    vertex 125.00000000000776 198.99999998711186 11.500000040271322
    vertex 150.25000000000125 198.99999998711186 11.500000040271322
  endloop
endfacet
facet normal 0.0 1.2212453270876722e-15 1.0
  outer loop
    vertex 200.00000000000554 198.99999998711186 11.500000040271322
    vertex 150.25000000000125 198.99999998711186 11.500000040271322
    vertex 151.75000000000125 198.99999998711186 11.500000040271322
  endloop
endfacet
facet normal 0.0 1.2212453270876722e-15 1.0
  outer loop
    vertex 200.00000000000554 198.99999998711186 11.500000040271322
    vertex 151.75000000000125 198.99999998711186 11.500000040271322
    vertex 173.25000000000122 198.99999998711186 11.500000040271322
  endloop
endfacet
facet normal 0.0 1.2212453270876722e-15 1.0
  outer loop
    vertex 200.00000000000554 198.99999998711186 11.500000040271322
    vertex 173.25000000000122 198.99999998711186 11.500000040271322
    vertex 174.75000000000122 198.99999998711186 11.500000040271322
  endloop
endfacet
facet normal 0.0 -1.0 1.2212453270876722e-15
  outer loop
    vertex 150.25000000000125 198.99999998711183 -13.499999959728722
    vertex 125.00000000000776 198.99999998711186 11.500000040271322
    vertex 125.00000000000776 198.99999998711183 -13.499999959728722
  endloop
endfacet
facet normal 0.0 -1.0 1.2212453270876722e-15
  outer loop
    vertex 125.00000000000776 198.99999998711186 11.500000040271322
    vertex 150.25000000000125 198.99999998711183 -13.499999959728722
    vertex 150.25000000000125 198.99999998711186 11.500000040271322
  endloop
endfacet
facet normal -1.0 0.0 0.0
  outer loop
    vertex 125.00000000000776 198.99999998711186 11.500000040271322
    vertex 125.00000000000776 203.99999998711183 -13.499999959728727
    vertex 125.00000000000776 198.99999998711183 -13.499999959728722
  endloop
endfacet
facet normal -1.0 0.0 0.0
  outer loop
    vertex 125.00000000000776 203.99999998711183 -13.499999959728727
    vertex 125.00000000000776 198.99999998711186 11.500000040271322
    vertex 125.00000000000776 203.9999999871119 11.500000040271317
  endloop
endfacet
facet normal 0.0 -1.2212453270876722e-15 -1.0
  outer loop
    vertex 174.75000000000122 195.99999998711183 -13.499999959728719
    vertex 173.25000000000122 198.99999998711183 -13.499999959728722
    vertex 174.75000000000122 198.99999998711183 -13.499999959728722
  endloop
endfacet
facet normal 0.0 -1.2212453270876722e-15 -1.0
  outer loop
    vertex 173.25000000000122 198.99999998711183 -13.499999959728722
    vertex 174.75000000000122 195.99999998711183 -13.499999959728719
    vertex 173.25000000000122 195.99999998711183 -13.499999959728719
  endloop
endfacet
facet normal 0.0 -1.2212453270876722e-15 -1.0
  outer loop
    vertex 151.75000000000125 195.99999998711183 -13.499999959728719
    vertex 150.25000000000125 198.99999998711183 -13.499999959728722
    vertex 151.75000000000125 198.99999998711183 -13.499999959728722
  endloop
endfacet
facet normal 0.0 -1.2212453270876722e-15 -1.0
  outer loop
    vertex 150.25000000000125 198.99999998711183 -13.499999959728722
    vertex 151.75000000000125 195.99999998711183 -13.499999959728719
    vertex 150.25000000000125 195.99999998711183 -13.499999959728719
  endloop
endfacet
facet normal 0.0 -1.2212453270876722e-15 -1.0
  outer loop
    vertex 200.00000000000554 203.99999998711183 -13.499999959728727
    vertex 125.00000000000776 198.99999998711183 -13.499999959728722
    vertex 125.00000000000776 203.99999998711183 -13.499999959728727
  endloop
endfacet
facet normal 0.0 -1.2212453270876722e-15 -1.0
  outer loop
    vertex 125.00000000000776 198.99999998711183 -13.499999959728722
    vertex 200.00000000000554 203.99999998711183 -13.499999959728727
    vertex 200.00000000000554 198.99999998711183 -13.499999959728722
  endloop
endfacet
facet normal 0.0 -1.2212453270876722e-15 -1.0
  outer loop
    vertex 125.00000000000776 198.99999998711183 -13.499999959728722
    vertex 200.00000000000554 198.99999998711183 -13.499999959728722
    vertex 174.75000000000122 198.99999998711183 -13.499999959728722
  endloop
endfacet
facet normal 0.0 -1.2212453270876722e-15 -1.0
  outer loop
    vertex 125.00000000000776 198.99999998711183 -13.499999959728722
    vertex 174.75000000000122 198.99999998711183 -13.499999959728722
    vertex 173.25000000000122 198.99999998711183 -13.499999959728722
  endloop
endfacet
facet normal 0.0 -1.2212453270876722e-15 -1.0
  outer loop
    vertex 125.00000000000776 198.99999998711183 -13.499999959728722
    vertex 173.25000000000122 198.99999998711183 -13.499999959728722
    vertex 151.75000000000125 198.99999998711183 -13.499999959728722
  endloop
endfacet
facet normal 0.0 -1.2212453270876722e-15 -1.0
  outer loop
    vertex 125.00000000000776 198.99999998711183 -13.499999959728722
    vertex 151.75000000000125 198.99999998711183 -13.499999959728722
    vertex 150.25000000000125 198.99999998711183 -13.499999959728722
  endloop
endfacet
facet normal 1.0 0.0 0.0
  outer loop
    vertex 200.00000000000554 203.99999998711183 11.500000040271317
    vertex 200.00000000000554 198.99999998711183 -13.499999959728722
    vertex 200.00000000000554 203.99999998711183 -13.499999959728727
  endloop
endfacet
facet normal 1.0 0.0 0.0
  outer loop
    vertex 200.00000000000554 198.99999998711183 -13.499999959728722
    vertex 200.00000000000554 203.99999998711183 11.500000040271317
    vertex 200.00000000000554 198.99999998711186 11.500000040271322
  endloop
endfacet
facet normal 1.0 0.0 0.0
  outer loop
    vertex 174.75000000000122 198.99999998711186 11.500000040271322
    vertex 174.75000000000122 195.99999998711183 -13.499999959728719
    vertex 174.75000000000122 198.99999998711183 -13.499999959728722
  endloop
endfacet
facet normal 1.0 0.0 0.0
  outer loop
    vertex 174.75000000000122 195.99999998711183 -13.499999959728719
    vertex 174.75000000000122 198.99999998711186 11.500000040271322
    vertex 174.75000000000122 195.99999998711186 11.500000040271326
  endloop
endfacet
facet normal 0.0 -1.0 1.2212453270876722e-15
  outer loop
    vertex 200.00000000000554 198.99999998711183 -13.499999959728722
    vertex 174.75000000000122 198.99999998711186 11.500000040271322
    vertex 174.75000000000122 198.99999998711183 -13.499999959728722
  endloop
endfacet
facet normal 0.0 -1.0 1.2212453270876722e-15
  outer loop
    vertex 174.75000000000122 198.99999998711186 11.500000040271322
    vertex 200.00000000000554 198.99999998711183 -13.499999959728722
    vertex 200.00000000000554 198.99999998711186 11.500000040271322
  endloop
endfacet
facet normal 2.689313902636596e-16 1.0 -1.2212453270876722e-15
  outer loop
    vertex 125.00000000000776 203.9999999871119 11.500000040271317
    vertex 161.62500000000128 203.9999999871119 5.5155444968939875
    vertex 125.00000000000776 203.99999998711183 -13.499999959728727
  endloop
endfacet
facet normal 2.689313902636596e-16 1.0 -1.2212453270876722e-15
  outer loop
    vertex 161.62500000000128 203.9999999871119 5.5155444968939875
    vertex 125.00000000000776 203.9999999871119 11.500000040271317
    vertex 162.04706667107186 203.9999999871119 5.6903702362771025
  endloop
endfacet
facet normal 2.689313902636596e-16 1.0 -1.2212453270876722e-15
  outer loop
    vertex 162.04706667107186 203.9999999871119 5.6903702362771025
    vertex 125.00000000000776 203.9999999871119 11.500000040271317
    vertex 200.00000000000554 203.99999998711183 11.500000040271317
  endloop
endfacet
facet normal 2.689313902636596e-16 1.0 -1.2212453270876722e-15
  outer loop
    vertex 125.00000000000776 203.99999998711183 -13.499999959728727
    vertex 161.62500000000128 203.9999999871119 5.5155444968939875
    vertex 161.26256313292484 203.9999999871119 5.237436907347713
  endloop
endfacet
facet normal 2.689313902636596e-16 1.0 -1.2212453270876722e-15
  outer loop
    vertex 125.00000000000776 203.99999998711183 -13.499999959728727
    vertex 161.26256313292484 203.9999999871119 5.237436907347713
    vertex 160.9844555433785 203.99999998711183 4.875000040271289
  endloop
endfacet
facet normal 2.689313902636596e-16 1.0 -1.2212453270876722e-15
  outer loop
    vertex 125.00000000000776 203.99999998711183 -13.499999959728727
    vertex 160.9844555433785 203.99999998711183 4.875000040271289
    vertex 160.80962980399536 203.99999998711183 4.452933369200788
  endloop
endfacet
facet normal 2.689313902636596e-16 1.0 -1.2212453270876722e-15
  outer loop
    vertex 125.00000000000776 203.99999998711183 -13.499999959728727
    vertex 160.80962980399536 203.99999998711183 4.452933369200788
    vertex 159.11925960798956 203.99999998711183 -3.344133301869819
  endloop
endfacet
facet normal 2.689313902636596e-16 1.0 -1.2212453270876722e-15
  outer loop
    vertex 125.00000000000776 203.99999998711183 -13.499999959728727
    vertex 159.11925960798956 203.99999998711183 -3.344133301869819
    vertex 159.00000000000122 203.99999998711183 -4.249999959728688
  endloop
endfacet
facet normal 2.689313902636596e-16 1.0 -1.2212453270876722e-15
  outer loop
    vertex 159.11925960798956 203.99999998711183 -3.344133301869819
    vertex 160.80962980399536 203.99999998711183 4.452933369200788
    vertex 159.4689110867557 203.99999998711183 -2.4999999597287252
  endloop
endfacet
facet normal 2.689313902636596e-16 1.0 -1.2212453270876722e-15
  outer loop
    vertex 159.4689110867557 203.99999998711183 -2.4999999597287252
    vertex 160.80962980399536 203.99999998711183 4.452933369200788
    vertex 160.7500000000012 203.99999998711183 4.000000040271308
  endloop
endfacet
facet normal 2.689313902636596e-16 1.0 -1.2212453270876722e-15
  outer loop
    vertex 159.4689110867557 203.99999998711183 -2.4999999597287252
    vertex 160.7500000000012 203.99999998711183 4.000000040271308
    vertex 160.02512626584831 203.99999998711183 -1.7751262255757883
  endloop
endfacet
facet normal 2.689313902636596e-16 1.0 -1.2212453270876722e-15
  outer loop
    vertex 162.04706667107186 203.9999999871119 5.6903702362771025
    vertex 200.00000000000554 203.99999998711183 11.500000040271317
    vertex 162.50000000000122 203.9999999871119 5.750000040271271
  endloop
endfacet
facet normal 2.689313902636596e-16 1.0 -1.2212453270876722e-15
  outer loop
    vertex 162.50000000000122 203.9999999871119 5.750000040271271
    vertex 200.00000000000554 203.99999998711183 11.500000040271317
    vertex 162.95293332893073 203.9999999871119 5.6903702362771025
  endloop
endfacet
facet normal 2.689313902636596e-16 1.0 -1.2212453270876722e-15
  outer loop
    vertex 162.95293332893073 203.9999999871119 5.6903702362771025
    vertex 200.00000000000554 203.99999998711183 11.500000040271317
    vertex 163.37500000000128 203.9999999871119 5.515544496894078
  endloop
endfacet
facet normal 2.689313902636596e-16 1.0 -1.2212453270876722e-15
  outer loop
    vertex 163.37500000000128 203.9999999871119 5.515544496894078
    vertex 200.00000000000554 203.99999998711183 11.500000040271317
    vertex 163.7374368670777 203.99999998711183 5.237436907347713
  endloop
endfacet
facet normal 2.689313902636596e-16 1.0 -1.2212453270876722e-15
  outer loop
    vertex 163.7374368670777 203.99999998711183 5.237436907347713
    vertex 200.00000000000554 203.99999998711183 11.500000040271317
    vertex 164.01554445662399 203.99999998711183 4.875000040271289
  endloop
endfacet
facet normal 2.689313902636596e-16 1.0 -1.2212453270876722e-15
  outer loop
    vertex 164.01554445662399 203.99999998711183 4.875000040271289
    vertex 200.00000000000554 203.99999998711183 11.500000040271317
    vertex 164.1903701960071 203.99999998711183 4.452933369200788
  endloop
endfacet
facet normal 2.689313902636596e-16 1.0 -1.2212453270876722e-15
  outer loop
    vertex 164.1903701960071 203.99999998711183 4.452933369200788
    vertex 200.00000000000554 203.99999998711183 11.500000040271317
    vertex 164.25000000000125 203.99999998711183 4.000000040271308
  endloop
endfacet
facet normal 2.689313902636596e-16 1.0 -1.2212453270876722e-15
  outer loop
    vertex 164.25000000000125 203.99999998711183 4.000000040271308
    vertex 200.00000000000554 203.99999998711183 11.500000040271317
    vertex 164.97487373415416 203.99999998711183 -1.7751262255758333
  endloop
endfacet
facet normal 2.689313902636596e-16 1.0 -1.2212453270876722e-15
  outer loop
    vertex 164.97487373415416 203.99999998711183 -1.7751262255758333
    vertex 200.00000000000554 203.99999998711183 11.500000040271317
    vertex 165.53108891324678 203.99999998711183 -2.49999995972868
  endloop
endfacet
facet normal 2.689313902636596e-16 1.0 -1.2212453270876722e-15
  outer loop
    vertex 165.53108891324678 203.99999998711183 -2.49999995972868
    vertex 200.00000000000554 203.99999998711183 11.500000040271317
    vertex 165.8807403920129 203.99999998711183 -3.344133301869864
  endloop
endfacet
facet normal 2.689313902636596e-16 1.0 -1.2212453270876722e-15
  outer loop
    vertex 165.8807403920129 203.99999998711183 -3.344133301869864
    vertex 200.00000000000554 203.99999998711183 11.500000040271317
    vertex 166.0000000000012 203.99999998711183 -4.249999959728688
  endloop
endfacet
facet normal 2.689313902636596e-16 1.0 -1.2212453270876722e-15
  outer loop
    vertex 125.00000000000776 203.99999998711183 -13.499999959728727
    vertex 161.59413334214244 203.99999998711183 -7.6307403517404575
    vertex 200.00000000000554 203.99999998711183 -13.499999959728727
  endloop
endfacet
facet normal 2.689313902636596e-16 1.0 -1.2212453270876722e-15
  outer loop
    vertex 161.59413334214244 203.99999998711183 -7.6307403517404575
    vertex 125.00000000000776 203.99999998711183 -13.499999959728727
    vertex 160.75000000000125 203.99999998711183 -7.281088872974273
  endloop
endfacet
facet normal 2.689313902636596e-16 1.0 -1.2212453270876722e-15
  outer loop
    vertex 160.75000000000125 203.99999998711183 -7.281088872974273
    vertex 125.00000000000776 203.99999998711183 -13.499999959728727
    vertex 160.02512626584837 203.99999998711183 -6.724873693881678
  endloop
endfacet
facet normal 2.689313902636596e-16 1.0 -1.2212453270876722e-15
  outer loop
    vertex 160.02512626584837 203.99999998711183 -6.724873693881678
    vertex 125.00000000000776 203.99999998711183 -13.499999959728727
    vertex 159.46891108675567 203.99999998711183 -5.999999959728673
  endloop
endfacet
facet normal 2.689313902636596e-16 1.0 -1.2212453270876722e-15
  outer loop
    vertex 159.46891108675567 203.99999998711183 -5.999999959728673
    vertex 125.00000000000776 203.99999998711183 -13.499999959728727
    vertex 159.11925960798948 203.99999998711183 -5.15586661758749
  endloop
endfacet
facet normal 2.689313902636596e-16 1.0 -1.2212453270876722e-15
  outer loop
    vertex 159.11925960798948 203.99999998711183 -5.15586661758749
    vertex 125.00000000000776 203.99999998711183 -13.499999959728727
    vertex 159.00000000000122 203.99999998711183 -4.249999959728688
  endloop
endfacet
facet normal 2.689313902636596e-16 1.0 -1.2212453270876722e-15
  outer loop
    vertex 200.00000000000554 203.99999998711183 -13.499999959728727
    vertex 161.59413334214244 203.99999998711183 -7.6307403517404575
    vertex 162.50000000000122 203.99999998711183 -7.749999959728704
  endloop
endfacet
facet normal 2.689313902636596e-16 1.0 -1.2212453270876722e-15
  outer loop
    vertex 200.00000000000554 203.99999998711183 -13.499999959728727
    vertex 162.50000000000122 203.99999998711183 -7.749999959728704
    vertex 163.40586665786012 203.99999998711183 -7.630740351740434
  endloop
endfacet
facet normal 2.689313902636596e-16 1.0 -1.2212453270876722e-15
  outer loop
    vertex 200.00000000000554 203.99999998711183 -13.499999959728727
    vertex 163.40586665786012 203.99999998711183 -7.630740351740434
    vertex 164.25000000000125 203.99999998711183 -7.281088872974273
  endloop
endfacet
facet normal 2.689313902636596e-16 1.0 -1.2212453270876722e-15
  outer loop
    vertex 200.00000000000554 203.99999998711183 -13.499999959728727
    vertex 164.25000000000125 203.99999998711183 -7.281088872974273
    vertex 164.97487373415416 203.99999998711183 -6.724873693881634
  endloop
endfacet
facet normal 2.689313902636596e-16 1.0 -1.2212453270876722e-15
  outer loop
    vertex 200.00000000000554 203.99999998711183 -13.499999959728727
    vertex 164.97487373415416 203.99999998711183 -6.724873693881634
    vertex 165.53108891324675 203.99999998711183 -5.999999959728742
  endloop
endfacet
facet normal 2.689313902636596e-16 1.0 -1.2212453270876722e-15
  outer loop
    vertex 200.00000000000554 203.99999998711183 -13.499999959728727
    vertex 165.53108891324675 203.99999998711183 -5.999999959728742
    vertex 165.88074039201297 203.99999998711183 -5.15586661758749
  endloop
endfacet
facet normal 2.689313902636596e-16 1.0 -1.2212453270876722e-15
  outer loop
    vertex 200.00000000000554 203.99999998711183 -13.499999959728727
    vertex 165.88074039201297 203.99999998711183 -5.15586661758749
    vertex 166.0000000000012 203.99999998711183 -4.249999959728688
  endloop
endfacet
facet normal 2.689313902636596e-16 1.0 -1.2212453270876722e-15
  outer loop
    vertex 200.00000000000554 203.99999998711183 -13.499999959728727
    vertex 166.0000000000012 203.99999998711183 -4.249999959728688
    vertex 200.00000000000554 203.99999998711183 11.500000040271317
  endloop
endfacet
facet normal 2.689313902636596e-16 1.0 -1.2212453270876722e-15
  outer loop
    vertex 164.97487373415416 203.99999998711183 -1.7751262255758333
    vertex 164.25000000000122 203.99999998711183 -1.2189110464831934
    vertex 164.25000000000125 203.99999998711183 4.000000040271308
  endloop
endfacet
facet normal 2.689313902636596e-16 1.0 -1.2212453270876722e-15
  outer loop
    vertex 160.75000000000122 203.99999998711183 -1.2189110464831934
    vertex 160.02512626584831 203.99999998711183 -1.7751262255757883
    vertex 160.7500000000012 203.99999998711183 4.000000040271308
  endloop
endfacet
facet normal 0.0 -1.0 1.2212453270876722e-15
  outer loop
    vertex 151.75000000000125 195.99999998711183 -13.499999959728719
    vertex 150.25000000000125 195.99999998711186 11.500000040271326
    vertex 150.25000000000125 195.99999998711183 -13.499999959728719
  endloop
endfacet
facet normal 0.0 -1.0 1.2212453270876722e-15
  outer loop
    vertex 150.25000000000125 195.99999998711186 11.500000040271326
    vertex 151.75000000000125 195.99999998711183 -13.499999959728719
    vertex 151.75000000000125 195.99999998711186 11.500000040271326
  endloop
endfacet
facet normal 1.0 0.0 0.0
  outer loop
    vertex 151.75000000000125 198.99999998711186 11.500000040271322
    vertex 151.75000000000125 195.99999998711183 -13.499999959728719
    vertex 151.75000000000125 198.99999998711183 -13.499999959728722
  endloop
endfacet
facet normal 1.0 0.0 0.0
  outer loop
    vertex 151.75000000000125 195.99999998711183 -13.499999959728719
    vertex 151.75000000000125 198.99999998711186 11.500000040271322
    vertex 151.75000000000125 195.99999998711186 11.500000040271326
  endloop
endfacet
facet normal -1.0 0.0 -0.0
  outer loop
    vertex 150.25000000000125 195.99999998711186 11.500000040271326
    vertex 150.25000000000125 198.99999998711183 -13.499999959728722
    vertex 150.25000000000125 195.99999998711183 -13.499999959728719
  endloop
endfacet
facet normal -1.0 0.0 -0.0
  outer loop
    vertex 150.25000000000125 198.99999998711183 -13.499999959728722
    vertex 150.25000000000125 195.99999998711186 11.500000040271326
    vertex 150.25000000000125 198.99999998711186 11.500000040271322
  endloop
endfacet
facet normal -1.0 0.0 -0.0
  outer loop
    vertex 173.25000000000122 195.99999998711186 11.500000040271326
    vertex 173.25000000000122 198.99999998711183 -13.499999959728722
    vertex 173.25000000000122 195.99999998711183 -13.499999959728719
  endloop
endfacet
facet normal -1.0 0.0 -0.0
  outer loop
    vertex 173.25000000000122 198.99999998711183 -13.499999959728722
    vertex 173.25000000000122 195.99999998711186 11.500000040271326
    vertex 173.25000000000122 198.99999998711186 11.500000040271322
  endloop
endfacet
facet normal 0.0 -1.0 1.2212453270876722e-15
  outer loop
    vertex 174.75000000000122 195.99999998711183 -13.499999959728719
    vertex 173.25000000000122 195.99999998711186 11.500000040271326
    vertex 173.25000000000122 195.99999998711183 -13.499999959728719
  endloop
endfacet
facet normal 0.0 -1.0 1.2212453270876722e-15
  outer loop
    vertex 173.25000000000122 195.99999998711186 11.500000040271326
    vertex 174.75000000000122 195.99999998711183 -13.499999959728719
    vertex 174.75000000000122 195.99999998711186 11.500000040271326
  endloop
endfacet
facet normal 0.4922780361018107 -0.5882830308000899 0.6415492271403692
  outer loop
    vertex 159.87948160298436 198.99999998711186 -8.905547988561693
    vertex 160.75000000000125 201.49999998711183 -7.28108887297427
    vertex 158.79402734249183 198.99999998711186 -8.072649640269104
  endloop
endfacet
facet normal 0.38268343236511093 -2.4712138837720365e-14 -0.923879532511278
  outer loop
    vertex 162.04706667107183 201.49999998711186 5.690370236277105
    vertex 161.62500000000128 203.9999999871119 5.5155444968939875
    vertex 162.04706667107186 203.9999999871119 5.6903702362771025
  endloop
endfacet
facet normal 0.38268343236511093 -2.4712138837720365e-14 -0.923879532511278
  outer loop
    vertex 161.62500000000128 203.9999999871119 5.5155444968939875
    vertex 162.04706667107183 201.49999998711186 5.690370236277105
    vertex 161.62500000000122 201.49999998711186 5.51554449689399
  endloop
endfacet
facet normal 0.10508658264107539 -0.5931396673456862 0.7982118422886678
  outer loop
    vertex 162.5000000000012 198.99999998711183 -9.607713776793252
    vertex 162.50000000000122 201.49999998711183 -7.749999959728702
    vertex 161.14351986162225 198.99999998711183 -9.429129778648075
  endloop
endfacet
facet normal 0.6087614290087267 -1.028021087959068e-16 0.7933533402912306
  outer loop
    vertex 160.02512626584831 201.49999998711183 -6.72487369388163
    vertex 160.75000000000125 203.99999998711183 -7.281088872974273
    vertex 160.02512626584837 203.99999998711183 -6.724873693881678
  endloop
endfacet
facet normal 0.6087614290087267 -1.028021087959068e-16 0.7933533402912306
  outer loop
    vertex 160.75000000000125 203.99999998711183 -7.281088872974273
    vertex 160.02512626584831 201.49999998711183 -6.72487369388163
    vertex 160.75000000000125 201.49999998711183 -7.28108887297427
  endloop
endfacet
facet normal 0.923879532511297 -1.898107869628438e-15 -0.38268343236506513
  outer loop
    vertex 159.11925960798956 203.99999998711183 -3.344133301869819
    vertex 159.4689110867557 201.49999998711183 -2.4999999597287226
    vertex 159.1192596079895 201.49999998711183 -3.3441333018699066
  endloop
endfacet
facet normal 0.923879532511297 -1.898107869628438e-15 -0.38268343236506513
  outer loop
    vertex 159.4689110867557 201.49999998711183 -2.4999999597287226
    vertex 159.11925960798956 203.99999998711183 -3.344133301869819
    vertex 159.4689110867557 203.99999998711183 -2.4999999597287252
  endloop
endfacet
facet normal -0.6615174315335457 -0.5520296611902458 -0.5076001782342507
  outer loop
    vertex 166.2059726575105 198.99999998711183 -0.6607043252506828
    vertex 164.97487373415413 201.49999998711183 -1.7751262255758304
    vertex 165.53108891324678 201.49999998711183 -2.4999999597287226
  endloop
endfacet
facet normal -0.6615174315335308 -0.5520296611902517 -0.507600178234264
  outer loop
    vertex 166.2059726575105 198.99999998711183 -0.6607043252506828
    vertex 165.53108891324678 201.49999998711183 -2.4999999597287226
    vertex 167.03887100580314 198.99999998711183 -1.7461585857430393
  endloop
endfacet
facet normal 0.6615174315335375 -0.5520296611902824 -0.5076001782342217
  outer loop
    vertex 158.79402734249192 198.99999998711186 -0.6607043252505023
    vertex 157.96112899419919 198.99999998711186 -1.7461585857430844
    vertex 160.02512626584831 201.49999998711183 -1.7751262255758304
  endloop
endfacet
facet normal 0.8181877253969296 -0.5647707594980516 -0.10771645754383397
  outer loop
    vertex 157.43754720411286 198.99999998711186 -3.010196844380685
    vertex 157.2589632059676 198.99999998711186 -4.36667698275977
    vertex 159.1192596079895 201.49999998711183 -3.3441333018699066
  endloop
endfacet
facet normal 0.6087614290087205 6.189665586064735e-15 -0.7933533402912353
  outer loop
    vertex 160.75000000000122 201.49999998711186 -1.2189110464831905
    vertex 160.02512626584831 203.99999998711183 -1.7751262255757883
    vertex 160.75000000000122 203.99999998711183 -1.2189110464831934
  endloop
endfacet
facet normal 0.6087614290087205 6.189665586064735e-15 -0.7933533402912353
  outer loop
    vertex 160.02512626584831 203.99999998711183 -1.7751262255757883
    vertex 160.75000000000122 201.49999998711186 -1.2189110464831905
    vertex 160.02512626584831 201.49999998711183 -1.7751262255758304
  endloop
endfacet
facet normal -0.9914448613738094 -1.5696788213278687e-14 -0.13052619222006068
  outer loop
    vertex 165.88074039201297 201.49999998711183 -3.3441333018699066
    vertex 166.0000000000012 203.99999998711183 -4.249999959728688
    vertex 166.00000000000122 201.49999998711183 -4.24999995972873
  endloop
endfacet
facet normal -0.9914448613738094 -1.5696788213278687e-14 -0.13052619222006068
  outer loop
    vertex 166.0000000000012 203.99999998711183 -4.249999959728688
    vertex 165.88074039201297 201.49999998711183 -3.3441333018699066
    vertex 165.8807403920129 203.99999998711183 -3.344133301869864
  endloop
endfacet
facet normal 0.38268343236507313 -5.977228144857789e-16 0.9238795325112937
  outer loop
    vertex 160.75000000000125 201.49999998711183 -7.28108887297427
    vertex 161.59413334214244 203.99999998711183 -7.6307403517404575
    vertex 160.75000000000125 203.99999998711183 -7.281088872974273
  endloop
endfacet
facet normal 0.38268343236507313 -5.977228144857789e-16 0.9238795325112937
  outer loop
    vertex 161.59413334214244 203.99999998711183 -7.6307403517404575
    vertex 160.75000000000125 201.49999998711183 -7.28108887297427
    vertex 161.5941333421424 201.49999998711183 -7.630740351740455
  endloop
endfacet
facet normal -0.3085622676289743 -0.5914903700757776 0.7449352113461176
  outer loop
    vertex 165.12051839701786 198.99999998711183 -8.905547988561716
    vertex 164.25000000000125 201.49999998711183 -7.28108887297427
    vertex 163.8564801383801 198.99999998711183 -9.429129778648187
  endloop
endfacet
facet normal 0.9914448613738092 6.160546553612192e-15 0.1305261922200623
  outer loop
    vertex 159.11925960798948 203.99999998711183 -5.15586661758749
    vertex 159.00000000000125 201.49999998711183 -4.24999995972873
    vertex 159.1192596079895 201.49999998711183 -5.155866617587555
  endloop
endfacet
facet normal 0.9914448613738092 6.160546553612192e-15 0.1305261922200623
  outer loop
    vertex 159.00000000000125 201.49999998711183 -4.24999995972873
    vertex 159.11925960798948 203.99999998711183 -5.15586661758749
    vertex 159.00000000000122 203.99999998711183 -4.249999959728688
  endloop
endfacet
facet normal -0.4922780361018463 -0.5882830308000561 0.641549227140373
  outer loop
    vertex 166.20597265751047 198.99999998711183 -8.072649640268992
    vertex 164.97487373415416 201.49999998711183 -6.72487369388163
    vertex 165.12051839701786 198.99999998711183 -8.905547988561716
  endloop
endfacet
facet normal -0.3826834323650714 2.1436375826328303e-15 0.9238795325112945
  outer loop
    vertex 163.40586665786006 201.49999998711183 -7.630740351740455
    vertex 164.25000000000125 203.99999998711183 -7.281088872974273
    vertex 163.40586665786012 203.99999998711183 -7.630740351740434
  endloop
endfacet
facet normal -0.3826834323650714 2.1436375826328303e-15 0.9238795325112945
  outer loop
    vertex 164.25000000000125 203.99999998711183 -7.281088872974273
    vertex 163.40586665786006 201.49999998711183 -7.630740351740455
    vertex 164.25000000000125 201.49999998711183 -7.28108887297427
  endloop
endfacet
facet normal 0.6087614290087051 -2.1861602044869632e-14 -0.7933533402912472
  outer loop
    vertex 161.62500000000122 201.49999998711186 5.51554449689399
    vertex 161.26256313292484 203.9999999871119 5.237436907347713
    vertex 161.62500000000128 203.9999999871119 5.5155444968939875
  endloop
endfacet
facet normal 0.6087614290087051 -2.1861602044869632e-14 -0.7933533402912472
  outer loop
    vertex 161.26256313292484 203.9999999871119 5.237436907347713
    vertex 161.62500000000122 201.49999998711186 5.51554449689399
    vertex 161.26256313292475 201.49999998711186 5.237436907347716
  endloop
endfacet
facet normal 0.7933533402912353 4.747912226058577e-15 -0.6087614290087205
  outer loop
    vertex 160.02512626584831 203.99999998711183 -1.7751262255757883
    vertex 159.4689110867557 201.49999998711183 -2.4999999597287226
    vertex 159.4689110867557 203.99999998711183 -2.4999999597287252
  endloop
endfacet
facet normal 0.7933533402912353 4.747912226058577e-15 -0.6087614290087205
  outer loop
    vertex 159.4689110867557 201.49999998711183 -2.4999999597287226
    vertex 160.02512626584831 203.99999998711183 -1.7751262255757883
    vertex 160.02512626584831 201.49999998711183 -1.7751262255758304
  endloop
endfacet
facet normal -0.6087614290087302 1.77680057871333e-15 -0.7933533402912278
  outer loop
    vertex 164.97487373415413 201.49999998711183 -1.7751262255758304
    vertex 164.25000000000122 203.99999998711183 -1.2189110464831934
    vertex 164.97487373415416 203.99999998711183 -1.7751262255758333
  endloop
endfacet
facet normal -0.6087614290087302 1.77680057871333e-15 -0.7933533402912278
  outer loop
    vertex 164.25000000000122 203.99999998711183 -1.2189110464831934
    vertex 164.97487373415413 201.49999998711183 -1.7751262255758304
    vertex 164.25000000000122 201.49999998711186 -1.2189110464831905
  endloop
endfacet
facet normal -0.9914448613738123 -1.1733132501830481e-14 0.130526192220038
  outer loop
    vertex 166.00000000000122 201.49999998711183 -4.24999995972873
    vertex 165.88074039201297 203.99999998711183 -5.15586661758749
    vertex 165.88074039201297 201.49999998711183 -5.155866617587555
  endloop
endfacet
facet normal -0.9914448613738123 -1.1733132501830481e-14 0.130526192220038
  outer loop
    vertex 165.88074039201297 203.99999998711183 -5.15586661758749
    vertex 166.00000000000122 201.49999998711183 -4.24999995972873
    vertex 166.0000000000012 203.99999998711183 -4.249999959728688
  endloop
endfacet
facet normal -0.6087614290087362 9.756921603994398e-16 0.7933533402912234
  outer loop
    vertex 164.25000000000125 201.49999998711183 -7.28108887297427
    vertex 164.97487373415416 203.99999998711183 -6.724873693881634
    vertex 164.25000000000125 203.99999998711183 -7.281088872974273
  endloop
endfacet
facet normal -0.6087614290087362 9.756921603994398e-16 0.7933533402912234
  outer loop
    vertex 164.97487373415416 203.99999998711183 -6.724873693881634
    vertex 164.25000000000125 201.49999998711183 -7.28108887297427
    vertex 164.97487373415416 201.49999998711183 -6.72487369388163
  endloop
endfacet
facet normal 0.7933533402912251 -9.158711328367753e-15 0.6087614290087339
  outer loop
    vertex 159.46891108675567 203.99999998711183 -5.999999959728673
    vertex 160.02512626584831 201.49999998711183 -6.72487369388163
    vertex 160.02512626584837 203.99999998711183 -6.724873693881678
  endloop
endfacet
facet normal 0.7933533402912251 -9.158711328367753e-15 0.6087614290087339
  outer loop
    vertex 160.02512626584831 201.49999998711183 -6.72487369388163
    vertex 159.46891108675567 203.99999998711183 -5.999999959728673
    vertex 159.4689110867557 201.49999998711183 -5.999999959728738
  endloop
endfacet
facet normal -0.9238795325113042 -1.89293795895566e-15 -0.38268343236504776
  outer loop
    vertex 165.53108891324678 201.49999998711183 -2.4999999597287226
    vertex 165.8807403920129 203.99999998711183 -3.344133301869864
    vertex 165.88074039201297 201.49999998711183 -3.3441333018699066
  endloop
endfacet
facet normal -0.9238795325113042 -1.89293795895566e-15 -0.38268343236504776
  outer loop
    vertex 165.8807403920129 203.99999998711183 -3.344133301869864
    vertex 165.53108891324678 201.49999998711183 -2.4999999597287226
    vertex 165.53108891324678 203.99999998711183 -2.49999995972868
  endloop
endfacet
facet normal -0.5096118525666656 -0.5470055028396457 -0.6641390965654088
  outer loop
    vertex 166.2059726575105 198.99999998711183 -0.6607043252506828
    vertex 165.12051839701778 198.99999998711183 0.17219402304222262
    vertex 164.97487373415413 201.49999998711183 -1.7751262255758304
  endloop
endfacet
facet normal 0.813540233918486 -0.5715600507958081 0.10710460368326151
  outer loop
    vertex 159.00000000000125 201.49999998711183 -4.24999995972873
    vertex 157.2589632059676 198.99999998711186 -4.36667698275977
    vertex 157.437547204113 198.99999998711186 -5.723157121138876
  endloop
endfacet
facet normal -0.6441790255542795 -0.5836993193996947 0.4942959513978162
  outer loop
    vertex 165.53108891324678 201.49999998711183 -5.999999959728738
    vertex 166.20597265751047 198.99999998711183 -8.072649640268992
    vertex 167.03887100580326 198.99999998711183 -6.987195379776386
  endloop
endfacet
facet normal 0.9914448613738048 -1.0987649073438215e-15 -0.13052619222009387
  outer loop
    vertex 159.00000000000122 203.99999998711183 -4.249999959728688
    vertex 159.1192596079895 201.49999998711183 -3.3441333018699066
    vertex 159.00000000000125 201.49999998711183 -4.24999995972873
  endloop
endfacet
facet normal 0.9914448613738048 -1.0987649073438215e-15 -0.13052619222009387
  outer loop
    vertex 159.1192596079895 201.49999998711183 -3.3441333018699066
    vertex 159.00000000000122 203.99999998711183 -4.249999959728688
    vertex 159.11925960798956 203.99999998711183 -3.344133301869819
  endloop
endfacet
facet normal -0.8181877253969646 -0.5647707594979798 -0.10771645754394546
  outer loop
    vertex 167.56245279588936 198.99999998711183 -3.010196844381181
    vertex 165.88074039201297 201.49999998711183 -3.3441333018699066
    vertex 167.74103679403476 198.99999998711183 -4.36667698275977
  endloop
endfacet
facet normal 0.5096118525667094 -0.5470055028397313 -0.6641390965653049
  outer loop
    vertex 159.87948160298436 198.99999998711186 0.17219402304240308
    vertex 158.79402734249192 198.99999998711186 -0.6607043252505023
    vertex 160.75000000000122 201.49999998711186 -1.2189110464831905
  endloop
endfacet
facet normal 0.9914448613738077 3.374308106670341e-15 -0.1305261922200721
  outer loop
    vertex 160.7500000000012 203.99999998711183 4.000000040271308
    vertex 160.80962980399536 201.49999998711186 4.4529333692007
    vertex 160.75000000000122 201.49999998711186 4.00000004027122
  endloop
endfacet
facet normal 0.9914448613738077 3.374308106670341e-15 -0.1305261922200721
  outer loop
    vertex 160.80962980399536 201.49999998711186 4.4529333692007
    vertex 160.7500000000012 203.99999998711183 4.000000040271308
    vertex 160.80962980399536 203.99999998711183 4.452933369200788
  endloop
endfacet
facet normal 0.7666096494397349 -0.5581020708488317 -0.3175401138441134
  outer loop
    vertex 157.96112899419919 198.99999998711186 -1.7461585857430844
    vertex 157.43754720411286 198.99999998711186 -3.010196844380685
    vertex 159.4689110867557 201.49999998711183 -2.4999999597287226
  endloop
endfacet
facet normal 0.7539141460881408 -0.5780084319983101 0.3122814641746198
  outer loop
    vertex 159.1192596079895 201.49999998711183 -5.155866617587555
    vertex 157.437547204113 198.99999998711186 -5.723157121138876
    vertex 157.9611289941991 198.99999998711186 -6.9871953797764315
  endloop
endfacet
facet normal -0.8135402339185196 -0.5715600507957758 0.10710460368317963
  outer loop
    vertex 166.00000000000122 201.49999998711183 -4.24999995972873
    vertex 167.5624527958895 198.99999998711183 -5.7231571211387635
    vertex 167.74103679403476 198.99999998711183 -4.36667698275977
  endloop
endfacet
facet normal -0.9238795325112966 -8.88278668875882e-15 0.38268343236506636
  outer loop
    vertex 165.88074039201297 201.49999998711183 -5.155866617587555
    vertex 165.53108891324675 203.99999998711183 -5.999999959728742
    vertex 165.53108891324678 201.49999998711183 -5.999999959728738
  endloop
endfacet
facet normal -0.9238795325112966 -8.88278668875882e-15 0.38268343236506636
  outer loop
    vertex 165.53108891324675 203.99999998711183 -5.999999959728742
    vertex 165.88074039201297 201.49999998711183 -5.155866617587555
    vertex 165.88074039201297 203.99999998711183 -5.15586661758749
  endloop
endfacet
facet normal 0.7933533402912142 -9.56607820762709e-15 -0.6087614290087482
  outer loop
    vertex 160.9844555433785 203.99999998711183 4.875000040271289
    vertex 161.26256313292475 201.49999998711186 5.237436907347716
    vertex 160.98445554337846 201.49999998711186 4.875000040271202
  endloop
endfacet
facet normal 0.7933533402912142 -9.56607820762709e-15 -0.6087614290087482
  outer loop
    vertex 161.26256313292475 201.49999998711186 5.237436907347716
    vertex 160.9844555433785 203.99999998711183 4.875000040271289
    vertex 161.26256313292484 203.9999999871119 5.237436907347713
  endloop
endfacet
facet normal 0.13052619222003958 1.210797404017853e-15 0.991444861373812
  outer loop
    vertex 161.5941333421424 201.49999998711183 -7.630740351740455
    vertex 162.50000000000122 203.99999998711183 -7.749999959728704
    vertex 161.59413334214244 203.99999998711183 -7.6307403517404575
  endloop
endfacet
facet normal 0.13052619222003958 1.210797404017853e-15 0.991444861373812
  outer loop
    vertex 162.50000000000122 203.99999998711183 -7.749999959728704
    vertex 161.5941333421424 201.49999998711183 -7.630740351740455
    vertex 162.50000000000122 201.49999998711183 -7.749999959728702
  endloop
endfacet
facet normal 1.0 4.5119463720766205e-15 2.1613447216642173e-15
  outer loop
    vertex 160.7500000000012 203.99999998711183 4.000000040271308
    vertex 160.75000000000122 201.49999998711186 -1.2189110464831905
    vertex 160.75000000000122 203.99999998711183 -1.2189110464831934
  endloop
endfacet
facet normal 1.0 4.5119463720766205e-15 2.1613447216642173e-15
  outer loop
    vertex 160.75000000000122 201.49999998711186 -1.2189110464831905
    vertex 160.7500000000012 203.99999998711183 4.000000040271308
    vertex 160.75000000000122 201.49999998711186 4.00000004027122
  endloop
endfacet
facet normal -1.0 -3.381070303533968e-29 4.3226894433284275e-15
  outer loop
    vertex 164.25000000000125 201.49999998711186 4.00000004027122
    vertex 164.25000000000122 203.99999998711183 -1.2189110464831934
    vertex 164.25000000000122 201.49999998711186 -1.2189110464831905
  endloop
endfacet
facet normal -1.0 -3.381070303533968e-29 4.3226894433284275e-15
  outer loop
    vertex 164.25000000000122 203.99999998711183 -1.2189110464831934
    vertex 164.25000000000125 201.49999998711186 4.00000004027122
    vertex 164.25000000000125 203.99999998711183 4.000000040271308
  endloop
endfacet
facet normal 0.6441790255542887 -0.5836993193997257 0.49429595139776755
  outer loop
    vertex 159.4689110867557 201.49999998711183 -5.999999959728738
    vertex 157.9611289941991 198.99999998711186 -6.9871953797764315
    vertex 158.79402734249183 198.99999998711186 -8.072649640269104
  endloop
endfacet
facet normal -0.7539141460881263 -0.5780084319982983 0.3122814641746765
  outer loop
    vertex 165.88074039201297 201.49999998711183 -5.155866617587555
    vertex 167.03887100580326 198.99999998711183 -6.987195379776386
    vertex 167.5624527958895 198.99999998711183 -5.7231571211387635
  endloop
endfacet
facet normal -0.793353340291211 8.32615159635e-15 -0.6087614290087523
  outer loop
    vertex 164.97487373415413 201.49999998711183 -1.7751262255758304
    vertex 165.53108891324678 203.99999998711183 -2.49999995972868
    vertex 165.53108891324678 201.49999998711183 -2.4999999597287226
  endloop
endfacet
facet normal -0.793353340291211 8.32615159635e-15 -0.6087614290087523
  outer loop
    vertex 165.53108891324678 203.99999998711183 -2.49999995972868
    vertex 164.97487373415413 201.49999998711183 -1.7751262255758304
    vertex 164.97487373415416 203.99999998711183 -1.7751262255758333
  endloop
endfacet
facet normal -0.105086582641013 -0.593139667345714 0.7982118422886554
  outer loop
    vertex 163.8564801383801 198.99999998711183 -9.429129778648187
    vertex 163.40586665786006 201.49999998711183 -7.630740351740455
    vertex 162.5000000000012 198.99999998711183 -9.607713776793252
  endloop
endfacet
facet normal 0.9238795325112956 -1.5581877773200164e-15 0.3826834323650689
  outer loop
    vertex 159.46891108675567 203.99999998711183 -5.999999959728673
    vertex 159.1192596079895 201.49999998711183 -5.155866617587555
    vertex 159.4689110867557 201.49999998711183 -5.999999959728738
  endloop
endfacet
facet normal 0.9238795325112956 -1.5581877773200164e-15 0.3826834323650689
  outer loop
    vertex 159.1192596079895 201.49999998711183 -5.155866617587555
    vertex 159.46891108675567 203.99999998711183 -5.999999959728673
    vertex 159.11925960798948 203.99999998711183 -5.15586661758749
  endloop
endfacet
facet normal -0.7666096494398394 -0.5581020708487733 -0.3175401138439642
  outer loop
    vertex 167.03887100580314 198.99999998711183 -1.7461585857430393
    vertex 165.88074039201297 201.49999998711183 -3.3441333018699066
    vertex 167.56245279588936 198.99999998711183 -3.010196844381181
  endloop
endfacet
facet normal -0.7933533402912321 -2.8347923198031536e-15 0.6087614290087248
  outer loop
    vertex 165.53108891324678 201.49999998711183 -5.999999959728738
    vertex 164.97487373415416 203.99999998711183 -6.724873693881634
    vertex 164.97487373415416 201.49999998711183 -6.72487369388163
  endloop
endfacet
facet normal -0.7933533402912321 -2.8347923198031536e-15 0.6087614290087248
  outer loop
    vertex 164.97487373415416 203.99999998711183 -6.724873693881634
    vertex 165.53108891324678 201.49999998711183 -5.999999959728738
    vertex 165.53108891324675 203.99999998711183 -5.999999959728742
  endloop
endfacet
facet normal 0.3085622676288841 -0.5914903700758085 0.7449352113461306
  outer loop
    vertex 161.14351986162225 198.99999998711183 -9.429129778648075
    vertex 161.5941333421424 201.49999998711183 -7.630740351740455
    vertex 159.87948160298436 198.99999998711186 -8.905547988561693
  endloop
endfacet
facet normal -0.13052619222004214 -2.0848583454915053e-15 0.9914448613738118
  outer loop
    vertex 162.50000000000122 201.49999998711183 -7.749999959728702
    vertex 163.40586665786012 203.99999998711183 -7.630740351740434
    vertex 162.50000000000122 203.99999998711183 -7.749999959728704
  endloop
endfacet
facet normal -0.13052619222004214 -2.0848583454915053e-15 0.9914448613738118
  outer loop
    vertex 163.40586665786012 203.99999998711183 -7.630740351740434
    vertex 162.50000000000122 201.49999998711183 -7.749999959728702
    vertex 163.40586665786006 201.49999998711183 -7.630740351740455
  endloop
endfacet
facet normal -0.7666096494397983 -0.558102070848794 -0.31754011384402697
  outer loop
    vertex 167.03887100580314 198.99999998711183 -1.7461585857430393
    vertex 165.53108891324678 201.49999998711183 -2.4999999597287226
    vertex 165.88074039201297 201.49999998711183 -3.3441333018699066
  endloop
endfacet
facet normal 0.3085622676288364 -0.5914903700757923 0.7449352113461631
  outer loop
    vertex 159.87948160298436 198.99999998711186 -8.905547988561693
    vertex 161.5941333421424 201.49999998711183 -7.630740351740455
    vertex 160.75000000000125 201.49999998711183 -7.28108887297427
  endloop
endfacet
facet normal 0.7666096494397524 -0.5581020708488673 -0.3175401138440083
  outer loop
    vertex 159.4689110867557 201.49999998711183 -2.4999999597287226
    vertex 157.43754720411286 198.99999998711186 -3.010196844380685
    vertex 159.1192596079895 201.49999998711183 -3.3441333018699066
  endloop
endfacet
facet normal 0.492278036101834 -0.5882830308000996 0.6415492271403423
  outer loop
    vertex 158.79402734249183 198.99999998711186 -8.072649640269104
    vertex 160.75000000000125 201.49999998711183 -7.28108887297427
    vertex 160.02512626584831 201.49999998711183 -6.72487369388163
  endloop
endfacet
facet normal -0.8181877253969565 -0.5647707594980064 -0.1077164575438662
  outer loop
    vertex 165.88074039201297 201.49999998711183 -3.3441333018699066
    vertex 166.00000000000122 201.49999998711183 -4.24999995972873
    vertex 167.74103679403476 198.99999998711183 -4.36667698275977
  endloop
endfacet
facet normal -0.5096118525666306 -0.5470055028396685 -0.6641390965654171
  outer loop
    vertex 165.12051839701778 198.99999998711183 0.17219402304222262
    vertex 164.25000000000122 201.49999998711186 -1.2189110464831905
    vertex 164.97487373415413 201.49999998711183 -1.7751262255758304
  endloop
endfacet
facet normal -0.6441790255542885 -0.583699319399691 0.49429595139780874
  outer loop
    vertex 165.53108891324678 201.49999998711183 -5.999999959728738
    vertex 164.97487373415416 201.49999998711183 -6.72487369388163
    vertex 166.20597265751047 198.99999998711183 -8.072649640268992
  endloop
endfacet
facet normal -0.4922780361018653 -0.5882830308000497 0.6415492271403642
  outer loop
    vertex 165.12051839701786 198.99999998711183 -8.905547988561716
    vertex 164.97487373415416 201.49999998711183 -6.72487369388163
    vertex 164.25000000000125 201.49999998711183 -7.28108887297427
  endloop
endfacet
facet normal 0.5096118525666233 -0.5470055028396867 -0.6641390965654076
  outer loop
    vertex 158.79402734249192 198.99999998711186 -0.6607043252505023
    vertex 160.02512626584831 201.49999998711183 -1.7751262255758304
    vertex 160.75000000000122 201.49999998711186 -1.2189110464831905
  endloop
endfacet
facet normal 0.8181877253969326 -0.5647707594980417 -0.10771645754386358
  outer loop
    vertex 159.1192596079895 201.49999998711183 -3.3441333018699066
    vertex 157.2589632059676 198.99999998711186 -4.36667698275977
    vertex 159.00000000000125 201.49999998711183 -4.24999995972873
  endloop
endfacet
facet normal 0.8135402339185042 -0.5715600507957912 0.10710460368321371
  outer loop
    vertex 159.00000000000125 201.49999998711183 -4.24999995972873
    vertex 157.437547204113 198.99999998711186 -5.723157121138876
    vertex 159.1192596079895 201.49999998711183 -5.155866617587555
  endloop
endfacet
facet normal 0.6441790255542612 -0.5836993193997368 0.49429595139779015
  outer loop
    vertex 159.4689110867557 201.49999998711183 -5.999999959728738
    vertex 158.79402734249183 198.99999998711186 -8.072649640269104
    vertex 160.02512626584831 201.49999998711183 -6.72487369388163
  endloop
endfacet
facet normal 0.10508658264112505 -0.5931396673457012 0.7982118422886502
  outer loop
    vertex 161.14351986162225 198.99999998711183 -9.429129778648075
    vertex 162.50000000000122 201.49999998711183 -7.749999959728702
    vertex 161.5941333421424 201.49999998711183 -7.630740351740455
  endloop
endfacet
facet normal -0.8135402339185063 -0.571560050795788 0.10710460368321398
  outer loop
    vertex 166.00000000000122 201.49999998711183 -4.24999995972873
    vertex 165.88074039201297 201.49999998711183 -5.155866617587555
    vertex 167.5624527958895 198.99999998711183 -5.7231571211387635
  endloop
endfacet
facet normal -0.7539141460881615 -0.5780084319982788 0.31228146417462793
  outer loop
    vertex 165.88074039201297 201.49999998711183 -5.155866617587555
    vertex 165.53108891324678 201.49999998711183 -5.999999959728738
    vertex 167.03887100580326 198.99999998711183 -6.987195379776386
  endloop
endfacet
facet normal 0.753914146088141 -0.5780084319983102 0.3122814641746195
  outer loop
    vertex 159.1192596079895 201.49999998711183 -5.155866617587555
    vertex 157.9611289941991 198.99999998711186 -6.9871953797764315
    vertex 159.4689110867557 201.49999998711183 -5.999999959728738
  endloop
endfacet
facet normal -0.30856226762882066 -0.5914903700758246 0.744935211346144
  outer loop
    vertex 163.8564801383801 198.99999998711183 -9.429129778648187
    vertex 164.25000000000125 201.49999998711183 -7.28108887297427
    vertex 163.40586665786006 201.49999998711183 -7.630740351740455
  endloop
endfacet
facet normal 0.6615174315335373 -0.5520296611902822 -0.5076001782342223
  outer loop
    vertex 157.96112899419919 198.99999998711186 -1.7461585857430844
    vertex 159.4689110867557 201.49999998711183 -2.4999999597287226
    vertex 160.02512626584831 201.49999998711183 -1.7751262255758304
  endloop
endfacet
facet normal -0.10508658264112619 -0.5931396673456809 0.7982118422886652
  outer loop
    vertex 162.5000000000012 198.99999998711183 -9.607713776793252
    vertex 163.40586665786006 201.49999998711183 -7.630740351740455
    vertex 162.50000000000122 201.49999998711183 -7.749999959728702
  endloop
endfacet
facet normal -0.9914448613738143 3.374308106669087e-15 -0.13052619222002362
  outer loop
    vertex 164.1903701960071 201.49999998711186 4.4529333692007
    vertex 164.25000000000125 203.99999998711183 4.000000040271308
    vertex 164.25000000000125 201.49999998711186 4.00000004027122
  endloop
endfacet
facet normal -0.9914448613738143 3.374308106669087e-15 -0.13052619222002362
  outer loop
    vertex 164.25000000000125 203.99999998711183 4.000000040271308
    vertex 164.1903701960071 201.49999998711186 4.4529333692007
    vertex 164.1903701960071 203.99999998711183 4.452933369200788
  endloop
endfacet
facet normal -0.9238795325112621 5.723070426729668e-15 -0.3826834323651495
  outer loop
    vertex 164.015544456624 201.49999998711186 4.875000040271292
    vertex 164.1903701960071 203.99999998711183 4.452933369200788
    vertex 164.1903701960071 201.49999998711186 4.4529333692007
  endloop
endfacet
facet normal -0.9238795325112621 5.723070426729668e-15 -0.3826834323651495
  outer loop
    vertex 164.1903701960071 203.99999998711183 4.452933369200788
    vertex 164.015544456624 201.49999998711186 4.875000040271292
    vertex 164.01554445662399 203.99999998711183 4.875000040271289
  endloop
endfacet
facet normal -0.7933533402912015 -2.4051599641036543e-15 -0.6087614290087647
  outer loop
    vertex 163.73743686707772 201.49999998711186 5.237436907347716
    vertex 164.01554445662399 203.99999998711183 4.875000040271289
    vertex 164.015544456624 201.49999998711186 4.875000040271292
  endloop
endfacet
facet normal -0.7933533402912015 -2.4051599641036543e-15 -0.6087614290087647
  outer loop
    vertex 164.01554445662399 203.99999998711183 4.875000040271289
    vertex 163.73743686707772 201.49999998711186 5.237436907347716
    vertex 163.7374368670777 203.99999998711183 5.237436907347713
  endloop
endfacet
facet normal -0.6087614290087912 8.936378176859089e-15 -0.7933533402911812
  outer loop
    vertex 163.7374368670777 203.99999998711183 5.237436907347713
    vertex 163.37500000000125 201.49999998711186 5.51554449689399
    vertex 163.37500000000128 203.9999999871119 5.515544496894078
  endloop
endfacet
facet normal -0.6087614290087912 8.936378176859089e-15 -0.7933533402911812
  outer loop
    vertex 163.37500000000125 201.49999998711186 5.51554449689399
    vertex 163.7374368670777 203.99999998711183 5.237436907347713
    vertex 163.73743686707772 201.49999998711186 5.237436907347716
  endloop
endfacet
facet normal -0.13052619222002362 -3.191932404798122e-17 -0.9914448613738143
  outer loop
    vertex 162.95293332893064 201.49999998711186 5.690370236277105
    vertex 162.50000000000122 203.9999999871119 5.750000040271271
    vertex 162.95293332893073 203.9999999871119 5.6903702362771025
  endloop
endfacet
facet normal -0.13052619222002362 -3.191932404798122e-17 -0.9914448613738143
  outer loop
    vertex 162.50000000000122 203.9999999871119 5.750000040271271
    vertex 162.95293332893064 201.49999998711186 5.690370236277105
    vertex 162.50000000000122 201.49999998711186 5.750000040271273
  endloop
endfacet
facet normal 0.1305261922200945 -1.0746345563992324e-14 -0.9914448613738048
  outer loop
    vertex 162.50000000000122 201.49999998711186 5.750000040271273
    vertex 162.04706667107186 203.9999999871119 5.6903702362771025
    vertex 162.50000000000122 203.9999999871119 5.750000040271271
  endloop
endfacet
facet normal 0.1305261922200945 -1.0746345563992324e-14 -0.9914448613738048
  outer loop
    vertex 162.04706667107186 203.9999999871119 5.6903702362771025
    vertex 162.50000000000122 201.49999998711186 5.750000040271273
    vertex 162.04706667107183 201.49999998711186 5.690370236277105
  endloop
endfacet
facet normal -0.38268343236507757 1.5845097129909802e-14 -0.9238795325112918
  outer loop
    vertex 163.37500000000125 201.49999998711186 5.51554449689399
    vertex 162.95293332893073 203.9999999871119 5.6903702362771025
    vertex 163.37500000000128 203.9999999871119 5.515544496894078
  endloop
endfacet
facet normal -0.38268343236507757 1.5845097129909802e-14 -0.9238795325112918
  outer loop
    vertex 162.95293332893073 203.9999999871119 5.6903702362771025
    vertex 163.37500000000125 201.49999998711186 5.51554449689399
    vertex 162.95293332893064 201.49999998711186 5.690370236277105
  endloop
endfacet
facet normal 0.9238795325112564 1.5564898384252433e-15 -0.3826834323651635
  outer loop
    vertex 160.80962980399536 203.99999998711183 4.452933369200788
    vertex 160.98445554337846 201.49999998711186 4.875000040271202
    vertex 160.80962980399536 201.49999998711186 4.4529333692007
  endloop
endfacet
facet normal 0.9238795325112564 1.5564898384252433e-15 -0.3826834323651635
  outer loop
    vertex 160.98445554337846 201.49999998711186 4.875000040271202
    vertex 160.80962980399536 203.99999998711183 4.452933369200788
    vertex 160.9844555433785 203.99999998711183 4.875000040271289
  endloop
endfacet
facet normal 0.9443850179632032 -0.3288418128015968 -2.0172568261530506e-14
  outer loop
    vertex 160.75000000000122 201.49999998711186 4.00000004027122
    vertex 159.87948160298436 198.99999998711186 0.17219402304240308
    vertex 160.75000000000122 201.49999998711186 -1.2189110464831905
  endloop
endfacet
facet normal 0.9443850179632032 -0.3288418128015968 -2.0172568261530506e-14
  outer loop
    vertex 159.87948160298436 198.99999998711186 0.17219402304240308
    vertex 160.75000000000122 201.49999998711186 4.00000004027122
    vertex 159.87948160298458 198.99999998711183 3.9871954603191693
  endloop
endfacet
facet normal -0.1235729765710208 -0.32203034917828305 -0.9386299450100082
  outer loop
    vertex 162.50000000000136 198.99999998711183 6.607713857335899
    vertex 162.50000000000122 201.49999998711186 5.750000040271273
    vertex 163.178240069191 198.99999998711183 6.5184218582631415
  endloop
endfacet
facet normal -0.12357297657096887 -0.3220303491782722 -0.938629945010019
  outer loop
    vertex 163.178240069191 198.99999998711183 6.5184218582631415
    vertex 162.50000000000122 201.49999998711186 5.750000040271273
    vertex 162.95293332893064 201.49999998711186 5.690370236277105
  endloop
endfacet
facet normal -0.36225939807500573 -0.3223239504911371 -0.874571551930499
  outer loop
    vertex 163.178240069191 198.99999998711183 6.5184218582631415
    vertex 162.95293332893064 201.49999998711186 5.690370236277105
    vertex 163.81025919850987 198.99999998711183 6.256630963220233
  endloop
endfacet
facet normal -0.36225939807526825 -0.32232395049119755 -0.8745715519303682
  outer loop
    vertex 163.81025919850987 198.99999998711183 6.256630963220233
    vertex 162.95293332893064 201.49999998711186 5.690370236277105
    vertex 163.37500000000125 201.49999998711186 5.51554449689399
  endloop
endfacet
facet normal 0.12357297657103992 -0.32203034917827017 -0.9386299450100102
  outer loop
    vertex 161.82175993081185 198.99999998711183 6.5184218582631415
    vertex 162.50000000000122 201.49999998711186 5.750000040271273
    vertex 162.50000000000136 198.99999998711183 6.607713857335899
  endloop
endfacet
facet normal 0.1235729765709682 -0.32203034917825535 -0.9386299450100248
  outer loop
    vertex 161.82175993081185 198.99999998711183 6.5184218582631415
    vertex 162.04706667107183 201.49999998711186 5.690370236277105
    vertex 162.50000000000122 201.49999998711186 5.750000040271273
  endloop
endfacet
facet normal 0.0 -1.0 1.2212453270876722e-15
  outer loop
    vertex 166.2059726575105 198.99999998711183 -0.6607043252506828
    vertex 165.12051839701803 198.99999998711186 3.987195460319214
    vertex 165.12051839701778 198.99999998711183 0.17219402304222262
  endloop
endfacet
facet normal 0.0 -1.0 1.2212453270876722e-15
  outer loop
    vertex 151.75000000000125 198.99999998711183 -13.499999959728722
    vertex 157.437547204113 198.99999998711186 -5.723157121138876
    vertex 151.75000000000125 198.99999998711186 11.500000040271322
  endloop
endfacet
facet normal 0.0 -1.0 1.2212453270876722e-15
  outer loop
    vertex 157.437547204113 198.99999998711186 -5.723157121138876
    vertex 151.75000000000125 198.99999998711183 -13.499999959728722
    vertex 157.9611289941991 198.99999998711186 -6.9871953797764315
  endloop
endfacet
facet normal 0.0 -1.0 1.2212453270876722e-15
  outer loop
    vertex 157.9611289941991 198.99999998711186 -6.9871953797764315
    vertex 151.75000000000125 198.99999998711183 -13.499999959728722
    vertex 158.79402734249183 198.99999998711186 -8.072649640269104
  endloop
endfacet
facet normal 0.0 -1.0 1.2212453270876722e-15
  outer loop
    vertex 158.79402734249183 198.99999998711186 -8.072649640269104
    vertex 151.75000000000125 198.99999998711183 -13.499999959728722
    vertex 159.87948160298436 198.99999998711186 -8.905547988561693
  endloop
endfacet
facet normal 0.0 -1.0 1.2212453270876722e-15
  outer loop
    vertex 159.87948160298436 198.99999998711186 -8.905547988561693
    vertex 151.75000000000125 198.99999998711183 -13.499999959728722
    vertex 161.14351986162225 198.99999998711183 -9.429129778648075
  endloop
endfacet
facet normal 0.0 -1.0 1.2212453270876722e-15
  outer loop
    vertex 161.14351986162225 198.99999998711183 -9.429129778648075
    vertex 151.75000000000125 198.99999998711183 -13.499999959728722
    vertex 173.25000000000122 198.99999998711183 -13.499999959728722
  endloop
endfacet
facet normal 0.0 -1.0 1.2212453270876722e-15
  outer loop
    vertex 151.75000000000125 198.99999998711186 11.500000040271322
    vertex 157.437547204113 198.99999998711186 -5.723157121138876
    vertex 157.2589632059676 198.99999998711186 -4.36667698275977
  endloop
endfacet
facet normal 0.0 -1.0 1.2212453270876722e-15
  outer loop
    vertex 161.14351986162225 198.99999998711183 -9.429129778648075
    vertex 173.25000000000122 198.99999998711183 -13.499999959728722
    vertex 162.5000000000012 198.99999998711183 -9.607713776793252
  endloop
endfacet
facet normal 0.0 -1.0 1.2212453270876722e-15
  outer loop
    vertex 162.5000000000012 198.99999998711183 -9.607713776793252
    vertex 173.25000000000122 198.99999998711183 -13.499999959728722
    vertex 163.8564801383801 198.99999998711183 -9.429129778648187
  endloop
endfacet
facet normal 0.0 -1.0 1.2212453270876722e-15
  outer loop
    vertex 163.8564801383801 198.99999998711183 -9.429129778648187
    vertex 173.25000000000122 198.99999998711183 -13.499999959728722
    vertex 165.12051839701786 198.99999998711183 -8.905547988561716
  endloop
endfacet
facet normal 0.0 -1.0 1.2212453270876722e-15
  outer loop
    vertex 165.12051839701786 198.99999998711183 -8.905547988561716
    vertex 173.25000000000122 198.99999998711183 -13.499999959728722
    vertex 166.20597265751047 198.99999998711183 -8.072649640268992
  endloop
endfacet
facet normal 0.0 -1.0 1.2212453270876722e-15
  outer loop
    vertex 166.20597265751047 198.99999998711183 -8.072649640268992
    vertex 173.25000000000122 198.99999998711183 -13.499999959728722
    vertex 167.03887100580326 198.99999998711183 -6.987195379776386
  endloop
endfacet
facet normal 0.0 -1.0 1.2212453270876722e-15
  outer loop
    vertex 167.03887100580326 198.99999998711183 -6.987195379776386
    vertex 173.25000000000122 198.99999998711183 -13.499999959728722
    vertex 167.5624527958895 198.99999998711183 -5.7231571211387635
  endloop
endfacet
facet normal 0.0 -1.0 1.2212453270876722e-15
  outer loop
    vertex 167.5624527958895 198.99999998711183 -5.7231571211387635
    vertex 173.25000000000122 198.99999998711183 -13.499999959728722
    vertex 167.74103679403476 198.99999998711183 -4.36667698275977
  endloop
endfacet
facet normal 0.0 -1.0 1.2212453270876722e-15
  outer loop
    vertex 151.75000000000125 198.99999998711186 11.500000040271322
    vertex 161.18974080149286 198.99999998711183 6.256630963220323
    vertex 173.25000000000122 198.99999998711186 11.500000040271322
  endloop
endfacet
facet normal 0.0 -1.0 1.2212453270876722e-15
  outer loop
    vertex 161.18974080149286 198.99999998711183 6.256630963220323
    vertex 151.75000000000125 198.99999998711186 11.500000040271322
    vertex 160.64701367124667 198.99999998711183 5.8401817890732834
  endloop
endfacet
facet normal 0.0 -1.0 1.2212453270876722e-15
  outer loop
    vertex 160.64701367124667 198.99999998711183 5.8401817890732834
    vertex 151.75000000000125 198.99999998711186 11.500000040271322
    vertex 160.2305644971005 198.99999998711183 5.297454658827737
  endloop
endfacet
facet normal 0.0 -1.0 1.2212453270876722e-15
  outer loop
    vertex 160.2305644971005 198.99999998711183 5.297454658827737
    vertex 151.75000000000125 198.99999998711186 11.500000040271322
    vertex 159.9687736020574 198.99999998711183 4.665435529508305
  endloop
endfacet
facet normal 0.0 -1.0 1.2212453270876722e-15
  outer loop
    vertex 159.9687736020574 198.99999998711183 4.665435529508305
    vertex 151.75000000000125 198.99999998711186 11.500000040271322
    vertex 157.43754720411286 198.99999998711186 -3.010196844380685
  endloop
endfacet
facet normal 0.0 -1.0 1.2212453270876722e-15
  outer loop
    vertex 157.43754720411286 198.99999998711186 -3.010196844380685
    vertex 151.75000000000125 198.99999998711186 11.500000040271322
    vertex 157.2589632059676 198.99999998711186 -4.36667698275977
  endloop
endfacet
facet normal 0.0 -1.0 1.2212453270876722e-15
  outer loop
    vertex 159.9687736020574 198.99999998711183 4.665435529508305
    vertex 157.43754720411286 198.99999998711186 -3.010196844380685
    vertex 157.96112899419919 198.99999998711186 -1.7461585857430844
  endloop
endfacet
facet normal 0.0 -1.0 1.2212453270876722e-15
  outer loop
    vertex 159.9687736020574 198.99999998711183 4.665435529508305
    vertex 157.96112899419919 198.99999998711186 -1.7461585857430844
    vertex 158.79402734249192 198.99999998711186 -0.6607043252505023
  endloop
endfacet
facet normal 0.0 -1.0 1.2212453270876722e-15
  outer loop
    vertex 159.9687736020574 198.99999998711183 4.665435529508305
    vertex 158.79402734249192 198.99999998711186 -0.6607043252505023
    vertex 159.87948160298458 198.99999998711183 3.9871954603191693
  endloop
endfacet
facet normal 0.0 -1.0 1.2212453270876722e-15
  outer loop
    vertex 159.87948160298458 198.99999998711183 3.9871954603191693
    vertex 158.79402734249192 198.99999998711186 -0.6607043252505023
    vertex 159.87948160298436 198.99999998711186 0.17219402304240308
  endloop
endfacet
facet normal 0.0 -1.0 1.2212453270876722e-15
  outer loop
    vertex 173.25000000000122 198.99999998711186 11.500000040271322
    vertex 161.18974080149286 198.99999998711183 6.256630963220323
    vertex 161.82175993081185 198.99999998711183 6.5184218582631415
  endloop
endfacet
facet normal 0.0 -1.0 1.2212453270876722e-15
  outer loop
    vertex 173.25000000000122 198.99999998711186 11.500000040271322
    vertex 161.82175993081185 198.99999998711183 6.5184218582631415
    vertex 162.50000000000136 198.99999998711183 6.607713857335899
  endloop
endfacet
facet normal 0.0 -1.0 1.2212453270876722e-15
  outer loop
    vertex 173.25000000000122 198.99999998711186 11.500000040271322
    vertex 162.50000000000136 198.99999998711183 6.607713857335899
    vertex 163.178240069191 198.99999998711183 6.5184218582631415
  endloop
endfacet
facet normal 0.0 -1.0 1.2212453270876722e-15
  outer loop
    vertex 173.25000000000122 198.99999998711186 11.500000040271322
    vertex 163.178240069191 198.99999998711183 6.5184218582631415
    vertex 163.81025919850987 198.99999998711183 6.256630963220233
  endloop
endfacet
facet normal 0.0 -1.0 1.2212453270876722e-15
  outer loop
    vertex 173.25000000000122 198.99999998711186 11.500000040271322
    vertex 163.81025919850987 198.99999998711183 6.256630963220233
    vertex 164.35298632875597 198.99999998711186 5.840181789073645
  endloop
endfacet
facet normal 0.0 -1.0 1.2212453270876722e-15
  outer loop
    vertex 173.25000000000122 198.99999998711186 11.500000040271322
    vertex 164.35298632875597 198.99999998711186 5.840181789073645
    vertex 164.76943550290235 198.99999998711186 5.2974546588274665
  endloop
endfacet
facet normal 0.0 -1.0 1.2212453270876722e-15
  outer loop
    vertex 173.25000000000122 198.99999998711186 11.500000040271322
    vertex 164.76943550290235 198.99999998711186 5.2974546588274665
    vertex 165.03122639794552 198.99999998711186 4.665435529508305
  endloop
endfacet
facet normal 0.0 -1.0 1.2212453270876722e-15
  outer loop
    vertex 173.25000000000122 198.99999998711186 11.500000040271322
    vertex 165.03122639794552 198.99999998711186 4.665435529508305
    vertex 165.12051839701803 198.99999998711186 3.987195460319214
  endloop
endfacet
facet normal 0.0 -1.0 1.2212453270876722e-15
  outer loop
    vertex 173.25000000000122 198.99999998711186 11.500000040271322
    vertex 165.12051839701803 198.99999998711186 3.987195460319214
    vertex 166.2059726575105 198.99999998711183 -0.6607043252506828
  endloop
endfacet
facet normal 0.0 -1.0 1.2212453270876722e-15
  outer loop
    vertex 173.25000000000122 198.99999998711186 11.500000040271322
    vertex 166.2059726575105 198.99999998711183 -0.6607043252506828
    vertex 167.03887100580314 198.99999998711183 -1.7461585857430393
  endloop
endfacet
facet normal 0.0 -1.0 1.2212453270876722e-15
  outer loop
    vertex 173.25000000000122 198.99999998711186 11.500000040271322
    vertex 167.03887100580314 198.99999998711183 -1.7461585857430393
    vertex 167.56245279588936 198.99999998711183 -3.010196844381181
  endloop
endfacet
facet normal 0.0 -1.0 1.2212453270876722e-15
  outer loop
    vertex 173.25000000000122 198.99999998711186 11.500000040271322
    vertex 167.56245279588936 198.99999998711183 -3.010196844381181
    vertex 167.74103679403476 198.99999998711183 -4.36667698275977
  endloop
endfacet
facet normal 0.0 -1.0 1.2212453270876722e-15
  outer loop
    vertex 173.25000000000122 198.99999998711186 11.500000040271322
    vertex 167.74103679403476 198.99999998711183 -4.36667698275977
    vertex 173.25000000000122 198.99999998711183 -13.499999959728722
  endloop
endfacet
facet normal -0.7506411717485685 -0.3236920494504977 -0.5759872293709929
  outer loop
    vertex 164.35298632875597 198.99999998711186 5.840181789073645
    vertex 163.73743686707772 201.49999998711186 5.237436907347716
    vertex 164.76943550290235 198.99999998711186 5.2974546588274665
  endloop
endfacet
facet normal -0.7506411717486282 -0.3236920494505201 -0.5759872293709023
  outer loop
    vertex 164.76943550290235 198.99999998711186 5.2974546588274665
    vertex 163.73743686707772 201.49999998711186 5.237436907347716
    vertex 164.015544456624 201.49999998711186 4.875000040271292
  endloop
endfacet
facet normal 0.5761538529698038 -0.32289088129193 -0.7508583198490717
  outer loop
    vertex 160.64701367124667 198.99999998711183 5.8401817890732834
    vertex 161.62500000000122 201.49999998711186 5.51554449689399
    vertex 161.18974080149286 198.99999998711183 6.256630963220323
  endloop
endfacet
facet normal 0.576153852969112 -0.322890881291739 -0.7508583198496847
  outer loop
    vertex 160.64701367124667 198.99999998711183 5.8401817890732834
    vertex 161.26256313292475 201.49999998711186 5.237436907347716
    vertex 161.62500000000122 201.49999998711186 5.51554449689399
  endloop
endfacet
facet normal 0.3622593980748518 -0.3223239504910965 -0.8745715519305779
  outer loop
    vertex 161.18974080149286 198.99999998711183 6.256630963220323
    vertex 162.04706667107183 201.49999998711186 5.690370236277105
    vertex 161.82175993081185 198.99999998711183 6.5184218582631415
  endloop
endfacet
facet normal 0.3622593980752689 -0.3223239504911923 -0.8745715519303696
  outer loop
    vertex 161.18974080149286 198.99999998711183 6.256630963220323
    vertex 161.62500000000122 201.49999998711186 5.51554449689399
    vertex 162.04706667107183 201.49999998711186 5.690370236277105
  endloop
endfacet
facet normal 0.8738297989618808 -0.3246723282138101 -0.3619521539353825
  outer loop
    vertex 160.2305644971005 198.99999998711183 5.297454658827737
    vertex 159.9687736020574 198.99999998711183 4.665435529508305
    vertex 160.80962980399536 201.49999998711186 4.4529333692007
  endloop
endfacet
facet normal 0.8738297989616818 -0.32467232821389946 -0.3619521539357832
  outer loop
    vertex 160.2305644971005 198.99999998711183 5.297454658827737
    vertex 160.80962980399536 201.49999998711186 4.4529333692007
    vertex 160.98445554337846 201.49999998711186 4.875000040271202
  endloop
endfacet
facet normal -0.9443850179632177 -0.3288418128015556 2.4453228573977027e-14
  outer loop
    vertex 165.12051839701778 198.99999998711183 0.17219402304222262
    vertex 164.25000000000125 201.49999998711186 4.00000004027122
    vertex 164.25000000000122 201.49999998711186 -1.2189110464831905
  endloop
endfacet
facet normal -0.9443850179632177 -0.3288418128015556 2.4453228573977027e-14
  outer loop
    vertex 164.25000000000125 201.49999998711186 4.00000004027122
    vertex 165.12051839701778 198.99999998711183 0.17219402304222262
    vertex 165.12051839701803 198.99999998711186 3.987195460319214
  endloop
endfacet
facet normal 0.7506411717484118 -0.3236920494503845 -0.5759872293712607
  outer loop
    vertex 160.64701367124667 198.99999998711183 5.8401817890732834
    vertex 160.2305644971005 198.99999998711183 5.297454658827737
    vertex 161.26256313292475 201.49999998711186 5.237436907347716
  endloop
endfacet
facet normal 0.7506411717487045 -0.3236920494504945 -0.5759872293708174
  outer loop
    vertex 160.2305644971005 198.99999998711183 5.297454658827737
    vertex 160.98445554337846 201.49999998711186 4.875000040271202
    vertex 161.26256313292475 201.49999998711186 5.237436907347716
  endloop
endfacet
facet normal -0.5761538529694449 -0.3228908812919747 -0.7508583198493278
  outer loop
    vertex 163.81025919850987 198.99999998711183 6.256630963220233
    vertex 163.37500000000125 201.49999998711186 5.51554449689399
    vertex 164.35298632875597 198.99999998711186 5.840181789073645
  endloop
endfacet
facet normal -0.5761538529690847 -0.3228908812918753 -0.750858319849647
  outer loop
    vertex 164.35298632875597 198.99999998711186 5.840181789073645
    vertex 163.37500000000125 201.49999998711186 5.51554449689399
    vertex 163.73743686707772 201.49999998711186 5.237436907347716
  endloop
endfacet
facet normal 0.9373624973855623 -0.3257644540781058 -0.12340611392591253
  outer loop
    vertex 159.9687736020574 198.99999998711183 4.665435529508305
    vertex 159.87948160298458 198.99999998711183 3.9871954603191693
    vertex 160.75000000000122 201.49999998711186 4.00000004027122
  endloop
endfacet
facet normal 0.9373624973856368 -0.3257644540780311 -0.12340611392554436
  outer loop
    vertex 159.9687736020574 198.99999998711183 4.665435529508305
    vertex 160.75000000000122 201.49999998711186 4.00000004027122
    vertex 160.80962980399536 201.49999998711186 4.4529333692007
  endloop
endfacet
facet normal -0.9373624973855933 -0.3257644540781894 -0.12340611392545742
  outer loop
    vertex 165.03122639794552 198.99999998711186 4.665435529508305
    vertex 164.1903701960071 201.49999998711186 4.4529333692007
    vertex 165.12051839701803 198.99999998711186 3.987195460319214
  endloop
endfacet
facet normal -0.9373624973855886 -0.32576445407817267 -0.12340611392553792
  outer loop
    vertex 164.1903701960071 201.49999998711186 4.4529333692007
    vertex 164.25000000000125 201.49999998711186 4.00000004027122
    vertex 165.12051839701803 198.99999998711186 3.987195460319214
  endloop
endfacet
facet normal -0.8738297989617316 -0.32467232821396796 -0.3619521539356015
  outer loop
    vertex 164.76943550290235 198.99999998711186 5.2974546588274665
    vertex 164.015544456624 201.49999998711186 4.875000040271292
    vertex 165.03122639794552 198.99999998711186 4.665435529508305
  endloop
endfacet
facet normal -0.873829798961695 -0.32467232821394376 -0.3619521539357119
  outer loop
    vertex 164.015544456624 201.49999998711186 4.875000040271292
    vertex 164.1903701960071 201.49999998711186 4.4529333692007
    vertex 165.03122639794552 198.99999998711186 4.665435529508305
  endloop
endfacet
endsolid LED Numbers
