solid LED Numbers
facet normal -1.0 0.0 0.0
  outer loop
    vertex 173.25000000002078 78.99999981265265 -13.500000057615246
    vertex 173.25000000002078 76.00000018598797 11.499999987184992
    vertex 173.25000000002078 79.00000018598797 11.499999942384754
  endloop
endfacet
facet normal -1.0 0.0 0.0
  outer loop
    vertex 173.25000000002078 76.00000018598797 11.499999987184992
    vertex 173.25000000002078 78.99999981265265 -13.500000057615246
    vertex 173.25000000002078 75.99999981265266 -13.500000012815008
  endloop
endfacet
facet normal 0.0 1.0 -1.4933412780733483e-08
  outer loop
    vertex 174.7500000000207 79.00000018598797 11.499999942384754
    vertex 173.25000000002078 78.99999981265265 -13.500000057615246
    vertex 173.25000000002078 79.00000018598797 11.499999942384754
  endloop
endfacet
facet normal 0.0 1.0 -1.4933412780733483e-08
  outer loop
    vertex 173.25000000002078 78.99999981265265 -13.500000057615246
    vertex 174.7500000000207 79.00000018598797 11.499999942384754
    vertex 174.7500000000207 78.99999981265265 -13.500000057615246
  endloop
endfacet
facet normal 1.0 0.0 0.0
  outer loop
    vertex 151.75000000002078 75.99999981265266 -13.500000012815008
    vertex 151.75000000002078 79.00000018598797 11.499999942384754
    vertex 151.75000000002078 76.00000018598797 11.499999987184992
  endloop
endfacet
facet normal 1.0 0.0 0.0
  outer loop
    vertex 151.75000000002078 79.00000018598797 11.499999942384754
    vertex 151.75000000002078 75.99999981265266 -13.500000012815008
    vertex 151.75000000002078 78.99999981265265 -13.500000057615246
  endloop
endfacet
facet normal -1.0 0.0 0.0
  outer loop
    vertex 150.25000000002075 78.99999981265265 -13.500000057615246
    vertex 150.25000000002075 76.00000018598797 11.499999987184992
    vertex 150.25000000002075 79.00000018598797 11.499999942384754
  endloop
endfacet
facet normal -1.0 0.0 0.0
  outer loop
    vertex 150.25000000002075 76.00000018598797 11.499999987184992
    vertex 150.25000000002075 78.99999981265265 -13.500000057615246
    vertex 150.25000000002075 75.99999981265266 -13.500000012815008
  endloop
endfacet
facet normal -9.822091663044863e-32 1.0 -1.4933412780733483e-08
  outer loop
    vertex 200.00000000002223 76.00000018598797 11.499999987184992
    vertex 174.7500000000207 75.99999981265266 -13.500000012815008
    vertex 174.7500000000207 76.00000018598797 11.499999987184992
  endloop
endfacet
facet normal -9.822091663044863e-32 1.0 -1.4933412780733483e-08
  outer loop
    vertex 174.7500000000207 75.99999981265266 -13.500000012815008
    vertex 200.00000000002223 76.00000018598797 11.499999987184992
    vertex 200.00000000002223 75.99999981265266 -13.500000012815008
  endloop
endfacet
facet normal 8.586971289690006e-32 1.0 -1.4933412780733483e-08
  outer loop
    vertex 173.25000000002078 76.00000018598797 11.499999987184992
    vertex 151.75000000002078 75.99999981265266 -13.500000012815008
    vertex 151.75000000002078 76.00000018598797 11.499999987184992
  endloop
endfacet
facet normal 8.586971289690006e-32 1.0 -1.4933412780733483e-08
  outer loop
    vertex 151.75000000002078 75.99999981265266 -13.500000012815008
    vertex 173.25000000002078 76.00000018598797 11.499999987184992
    vertex 173.25000000002078 75.99999981265266 -13.500000012815008
  endloop
endfacet
facet normal 0.0 1.0 -1.4933412780733483e-08
  outer loop
    vertex 151.75000000002078 79.00000018598797 11.499999942384754
    vertex 150.25000000002075 78.99999981265265 -13.500000057615246
    vertex 150.25000000002075 79.00000018598797 11.499999942384754
  endloop
endfacet
facet normal 0.0 1.0 -1.4933412780733483e-08
  outer loop
    vertex 150.25000000002075 78.99999981265265 -13.500000057615246
    vertex 151.75000000002078 79.00000018598797 11.499999942384754
    vertex 151.75000000002078 78.99999981265265 -13.500000057615246
  endloop
endfacet
facet normal 1.0 0.0 0.0
  outer loop
    vertex 200.00000000002223 70.99999981265266 -13.499999938147942
    vertex 200.00000000002223 76.00000018598797 11.499999987184992
    vertex 200.00000000002223 71.00000018598797 11.500000061852056
  endloop
endfacet
facet normal 1.0 0.0 0.0
  outer loop
    vertex 200.00000000002223 76.00000018598797 11.499999987184992
    vertex 200.00000000002223 70.99999981265266 -13.499999938147942
    vertex 200.00000000002223 75.99999981265266 -13.500000012815008
  endloop
endfacet
facet normal -4.6627534394832174e-14 -1.493354953709427e-08 -1.0
  outer loop
    vertex 141.75000000001205 70.99999981265266 -13.499999938142414
    vertex 183.25000000001532 74.49999981265265 -13.499999990414887
    vertex 183.25000000001532 70.99999981265266 -13.499999938147942
  endloop
endfacet
facet normal -4.6627534394832174e-14 -1.493354953709427e-08 -1.0
  outer loop
    vertex 183.25000000001532 74.49999981265265 -13.499999990414887
    vertex 141.75000000001205 70.99999981265266 -13.499999938142414
    vertex 141.75000000001205 74.49999981265265 -13.499999990409359
  endloop
endfacet
facet normal -4.6627534394832174e-14 -1.493354953709427e-08 -1.0
  outer loop
    vertex 183.25000000001532 74.49999981265265 -13.499999990414887
    vertex 141.75000000001205 74.49999981265265 -13.499999990409359
    vertex 191.75000000001205 74.49999981265265 -13.499999990414887
  endloop
endfacet
facet normal -4.6627534394832174e-14 -1.493354953709427e-08 -1.0
  outer loop
    vertex 125.00000000001963 70.99999981265267 -13.499999938147942
    vertex 133.25000000001532 74.49999981265265 -13.499999990409359
    vertex 133.25000000001532 70.99999981265266 -13.499999938142414
  endloop
endfacet
facet normal -4.6627534394832174e-14 -1.493354953709427e-08 -1.0
  outer loop
    vertex 133.25000000001532 74.49999981265265 -13.499999990409359
    vertex 125.00000000001963 70.99999981265267 -13.499999938147942
    vertex 125.00000000001963 75.99999981265267 -13.500000012815008
  endloop
endfacet
facet normal -4.6627534394832174e-14 -1.493354953709427e-08 -1.0
  outer loop
    vertex 133.25000000001532 74.49999981265265 -13.499999990409359
    vertex 125.00000000001963 75.99999981265267 -13.500000012815008
    vertex 141.75000000001205 74.49999981265265 -13.499999990409359
  endloop
endfacet
facet normal -4.6627534394832174e-14 -1.493354953709427e-08 -1.0
  outer loop
    vertex 141.75000000001205 74.49999981265265 -13.499999990409359
    vertex 125.00000000001963 75.99999981265267 -13.500000012815008
    vertex 150.25000000002075 75.99999981265266 -13.500000012815008
  endloop
endfacet
facet normal -4.6627534394832174e-14 -1.493354953709427e-08 -1.0
  outer loop
    vertex 150.25000000002075 78.99999981265265 -13.500000057615246
    vertex 151.75000000002078 75.99999981265266 -13.500000012815008
    vertex 150.25000000002075 75.99999981265266 -13.500000012815008
  endloop
endfacet
facet normal -4.6627534394832174e-14 -1.493354953709427e-08 -1.0
  outer loop
    vertex 151.75000000002078 75.99999981265266 -13.500000012815008
    vertex 150.25000000002075 78.99999981265265 -13.500000057615246
    vertex 151.75000000002078 78.99999981265265 -13.500000057615246
  endloop
endfacet
facet normal -4.6627534394832174e-14 -1.493354953709427e-08 -1.0
  outer loop
    vertex 173.25000000002078 78.99999981265265 -13.500000057615246
    vertex 174.7500000000207 75.99999981265266 -13.500000012815008
    vertex 173.25000000002078 75.99999981265266 -13.500000012815008
  endloop
endfacet
facet normal -4.6627534394832174e-14 -1.493354953709427e-08 -1.0
  outer loop
    vertex 174.7500000000207 75.99999981265266 -13.500000012815008
    vertex 173.25000000002078 78.99999981265265 -13.500000057615246
    vertex 174.7500000000207 78.99999981265265 -13.500000057615246
  endloop
endfacet
facet normal -4.6627534394832174e-14 -1.493354953709427e-08 -1.0
  outer loop
    vertex 191.75000000001205 70.99999981265266 -13.499999938147942
    vertex 200.00000000002223 75.99999981265266 -13.500000012815008
    vertex 200.00000000002223 70.99999981265266 -13.499999938147942
  endloop
endfacet
facet normal -4.6627534394832174e-14 -1.493354953709427e-08 -1.0
  outer loop
    vertex 200.00000000002223 75.99999981265266 -13.500000012815008
    vertex 191.75000000001205 70.99999981265266 -13.499999938147942
    vertex 191.75000000001205 74.49999981265265 -13.499999990414887
  endloop
endfacet
facet normal -4.6627534394832174e-14 -1.493354953709427e-08 -1.0
  outer loop
    vertex 200.00000000002223 75.99999981265266 -13.500000012815008
    vertex 191.75000000001205 74.49999981265265 -13.499999990414887
    vertex 141.75000000001205 74.49999981265265 -13.499999990409359
  endloop
endfacet
facet normal -4.6627534394832174e-14 -1.493354953709427e-08 -1.0
  outer loop
    vertex 200.00000000002223 75.99999981265266 -13.500000012815008
    vertex 141.75000000001205 74.49999981265265 -13.499999990409359
    vertex 150.25000000002075 75.99999981265266 -13.500000012815008
  endloop
endfacet
facet normal -4.6627534394832174e-14 -1.493354953709427e-08 -1.0
  outer loop
    vertex 200.00000000002223 75.99999981265266 -13.500000012815008
    vertex 150.25000000002075 75.99999981265266 -13.500000012815008
    vertex 151.75000000002078 75.99999981265266 -13.500000012815008
  endloop
endfacet
facet normal -4.6627534394832174e-14 -1.493354953709427e-08 -1.0
  outer loop
    vertex 200.00000000002223 75.99999981265266 -13.500000012815008
    vertex 151.75000000002078 75.99999981265266 -13.500000012815008
    vertex 173.25000000002078 75.99999981265266 -13.500000012815008
  endloop
endfacet
facet normal -4.6627534394832174e-14 -1.493354953709427e-08 -1.0
  outer loop
    vertex 200.00000000002223 75.99999981265266 -13.500000012815008
    vertex 173.25000000002078 75.99999981265266 -13.500000012815008
    vertex 174.7500000000207 75.99999981265266 -13.500000012815008
  endloop
endfacet
facet normal 1.0 0.0 0.0
  outer loop
    vertex 174.7500000000207 75.99999981265266 -13.500000012815008
    vertex 174.7500000000207 79.00000018598797 11.499999942384754
    vertex 174.7500000000207 76.00000018598797 11.499999987184992
  endloop
endfacet
facet normal 1.0 0.0 0.0
  outer loop
    vertex 174.7500000000207 79.00000018598797 11.499999942384754
    vertex 174.7500000000207 75.99999981265266 -13.500000012815008
    vertex 174.7500000000207 78.99999981265265 -13.500000057615246
  endloop
endfacet
facet normal 0.0 1.4933412780733483e-08 1.0
  outer loop
    vertex 200.00000000002223 76.00000018598797 11.499999987184992
    vertex 198.50000000002223 71.00000018598797 11.500000061852056
    vertex 200.00000000002223 71.00000018598797 11.500000061852056
  endloop
endfacet
facet normal 0.0 1.4933412780733483e-08 1.0
  outer loop
    vertex 198.50000000002223 71.00000018598797 11.500000061852056
    vertex 200.00000000002223 76.00000018598797 11.499999987184992
    vertex 198.50000000002223 74.50000018598797 11.500000009585111
  endloop
endfacet
facet normal 0.0 1.4933412780733483e-08 1.0
  outer loop
    vertex 198.50000000002223 74.50000018598797 11.500000009585111
    vertex 200.00000000002223 76.00000018598797 11.499999987184992
    vertex 126.50000000000666 74.500000185988 11.500000009585111
  endloop
endfacet
facet normal 0.0 1.4933412780733483e-08 1.0
  outer loop
    vertex 174.7500000000207 79.00000018598797 11.499999942384754
    vertex 173.25000000002078 76.00000018598797 11.499999987184992
    vertex 174.7500000000207 76.00000018598797 11.499999987184992
  endloop
endfacet
facet normal 0.0 1.4933412780733483e-08 1.0
  outer loop
    vertex 173.25000000002078 76.00000018598797 11.499999987184992
    vertex 174.7500000000207 79.00000018598797 11.499999942384754
    vertex 173.25000000002078 79.00000018598797 11.499999942384754
  endloop
endfacet
facet normal 0.0 1.4933412780733483e-08 1.0
  outer loop
    vertex 151.75000000002078 79.00000018598797 11.499999942384754
    vertex 150.25000000002075 76.00000018598797 11.499999987184992
    vertex 151.75000000002078 76.00000018598797 11.499999987184992
  endloop
endfacet
facet normal 0.0 1.4933412780733483e-08 1.0
  outer loop
    vertex 150.25000000002075 76.00000018598797 11.499999987184992
    vertex 151.75000000002078 79.00000018598797 11.499999942384754
    vertex 150.25000000002075 79.00000018598797 11.499999942384754
  endloop
endfacet
facet normal 0.0 1.4933412780733483e-08 1.0
  outer loop
    vertex 126.50000000000666 71.000000185988 11.500000061852056
    vertex 125.00000000001963 76.000000185988 11.499999987184992
    vertex 125.00000000002242 71.000000185988 11.500000061852056
  endloop
endfacet
facet normal 0.0 1.4933412780733483e-08 1.0
  outer loop
    vertex 125.00000000001963 76.000000185988 11.499999987184992
    vertex 126.50000000000666 71.000000185988 11.500000061852056
    vertex 126.50000000000666 74.500000185988 11.500000009585111
  endloop
endfacet
facet normal 0.0 1.4933412780733483e-08 1.0
  outer loop
    vertex 125.00000000001963 76.000000185988 11.499999987184992
    vertex 126.50000000000666 74.500000185988 11.500000009585111
    vertex 150.25000000002075 76.00000018598797 11.499999987184992
  endloop
endfacet
facet normal 0.0 1.4933412780733483e-08 1.0
  outer loop
    vertex 150.25000000002075 76.00000018598797 11.499999987184992
    vertex 126.50000000000666 74.500000185988 11.500000009585111
    vertex 200.00000000002223 76.00000018598797 11.499999987184992
  endloop
endfacet
facet normal 0.0 1.4933412780733483e-08 1.0
  outer loop
    vertex 150.25000000002075 76.00000018598797 11.499999987184992
    vertex 200.00000000002223 76.00000018598797 11.499999987184992
    vertex 174.7500000000207 76.00000018598797 11.499999987184992
  endloop
endfacet
facet normal 0.0 1.4933412780733483e-08 1.0
  outer loop
    vertex 150.25000000002075 76.00000018598797 11.499999987184992
    vertex 174.7500000000207 76.00000018598797 11.499999987184992
    vertex 173.25000000002078 76.00000018598797 11.499999987184992
  endloop
endfacet
facet normal 0.0 1.4933412780733483e-08 1.0
  outer loop
    vertex 150.25000000002075 76.00000018598797 11.499999987184992
    vertex 173.25000000002078 76.00000018598797 11.499999987184992
    vertex 151.75000000002078 76.00000018598797 11.499999987184992
  endloop
endfacet
facet normal 2.5820962619347536e-32 1.0 -1.4933412780733483e-08
  outer loop
    vertex 150.25000000002075 76.00000018598797 11.499999987184992
    vertex 125.00000000001963 75.99999981265267 -13.500000012815008
    vertex 125.00000000001963 76.000000185988 11.499999987184992
  endloop
endfacet
facet normal 2.5820962619347536e-32 1.0 -1.4933412780733483e-08
  outer loop
    vertex 125.00000000001963 75.99999981265267 -13.500000012815008
    vertex 150.25000000002075 76.00000018598797 11.499999987184992
    vertex 150.25000000002075 75.99999981265266 -13.500000012815008
  endloop
endfacet
facet normal -1.6987749894865507e-17 -1.0 1.4933412780733483e-08
  outer loop
    vertex 183.25000000001532 70.99999981265266 -13.499999938147942
    vertex 141.75000000001205 70.99999983505278 -11.999999938142418
    vertex 141.75000000001205 70.99999981265266 -13.499999938142414
  endloop
endfacet
facet normal -1.6987749894865507e-17 -1.0 1.4933412780733483e-08
  outer loop
    vertex 141.75000000001205 70.99999983505278 -11.999999938142418
    vertex 183.25000000001532 70.99999981265266 -13.499999938147942
    vertex 183.25000000001532 70.99999983505278 -11.999999938147946
  endloop
endfacet
facet normal -7.390162484131532e-17 -1.0 1.4933412806825022e-08
  outer loop
    vertex 200.00000000002223 70.99999981265266 -13.499999938147942
    vertex 191.75000000001205 70.99999983505278 -11.999999938147946
    vertex 191.75000000001205 70.99999981265266 -13.499999938147942
  endloop
endfacet
facet normal -7.390162484131532e-17 -1.0 1.4933412806825022e-08
  outer loop
    vertex 191.75000000001205 70.99999983505278 -11.999999938147946
    vertex 200.00000000002223 70.99999981265266 -13.499999938147942
    vertex 198.50000000002223 70.99999983505276 -11.999999938147946
  endloop
endfacet
facet normal -7.390162484131532e-17 -1.0 1.4933412806825022e-08
  outer loop
    vertex 198.50000000002223 70.99999983505276 -11.999999938147946
    vertex 200.00000000002223 70.99999981265266 -13.499999938147942
    vertex 198.50000000002223 71.00000018598797 11.500000061852056
  endloop
endfacet
facet normal -7.390162484131532e-17 -1.0 1.4933412806825022e-08
  outer loop
    vertex 198.50000000002223 71.00000018598797 11.500000061852056
    vertex 200.00000000002223 70.99999981265266 -13.499999938147942
    vertex 200.00000000002223 71.00000018598797 11.500000061852056
  endloop
endfacet
facet normal -2.9726756616505727e-15 -1.0 1.493341308039816e-08
  outer loop
    vertex 125.00000000001963 70.99999981265267 -13.499999938147942
    vertex 126.50000000002242 70.9999998350528 -11.999999938146942
    vertex 125.00000000002242 71.000000185988 11.500000061852056
  endloop
endfacet
facet normal -2.9726756616505727e-15 -1.0 1.493341308039816e-08
  outer loop
    vertex 126.50000000002242 70.9999998350528 -11.999999938146942
    vertex 125.00000000001963 70.99999981265267 -13.499999938147942
    vertex 133.25000000001532 70.99999981265266 -13.499999938142414
  endloop
endfacet
facet normal -2.9726756616505727e-15 -1.0 1.493341308039816e-08
  outer loop
    vertex 125.00000000002242 71.000000185988 11.500000061852056
    vertex 126.50000000002242 70.9999998350528 -11.999999938146942
    vertex 126.50000000000666 71.000000185988 11.500000061852056
  endloop
endfacet
facet normal -2.9726756616505727e-15 -1.0 1.493341308039816e-08
  outer loop
    vertex 126.50000000002242 70.9999998350528 -11.999999938146942
    vertex 133.25000000001532 70.99999981265266 -13.499999938142414
    vertex 133.25000000001532 70.99999983505278 -11.999999938142418
  endloop
endfacet
facet normal 1.0 0.0 0.0
  outer loop
    vertex 183.25000000001532 70.99999981265266 -13.499999938147942
    vertex 183.25000000001532 74.49999983505276 -11.99999999041489
    vertex 183.25000000001532 70.99999983505278 -11.999999938147946
  endloop
endfacet
facet normal 1.0 0.0 0.0
  outer loop
    vertex 183.25000000001532 74.49999983505276 -11.99999999041489
    vertex 183.25000000001532 70.99999981265266 -13.499999938147942
    vertex 183.25000000001532 74.49999981265265 -13.499999990414887
  endloop
endfacet
facet normal -1.0 0.0 -0.0
  outer loop
    vertex 191.75000000001205 74.49999981265265 -13.499999990414887
    vertex 191.75000000001205 70.99999983505278 -11.999999938147946
    vertex 191.75000000001205 74.49999983505276 -11.99999999041489
  endloop
endfacet
facet normal -1.0 0.0 -0.0
  outer loop
    vertex 191.75000000001205 70.99999983505278 -11.999999938147946
    vertex 191.75000000001205 74.49999981265265 -13.499999990414887
    vertex 191.75000000001205 70.99999981265266 -13.499999938147942
  endloop
endfacet
facet normal 0.0 1.4933412780733483e-08 1.0
  outer loop
    vertex 198.50000000002223 74.49999983505278 -11.99999999041489
    vertex 191.75000000001205 70.99999983505278 -11.999999938147946
    vertex 198.50000000002223 70.99999983505276 -11.999999938147946
  endloop
endfacet
facet normal 0.0 1.4933412780733483e-08 1.0
  outer loop
    vertex 191.75000000001205 70.99999983505278 -11.999999938147946
    vertex 198.50000000002223 74.49999983505278 -11.99999999041489
    vertex 191.75000000001205 74.49999983505276 -11.99999999041489
  endloop
endfacet
facet normal 1.0 0.0 0.0
  outer loop
    vertex 133.25000000001532 70.99999981265266 -13.499999938142414
    vertex 133.25000000001532 74.49999983505278 -11.999999990409364
    vertex 133.25000000001532 70.99999983505278 -11.999999938142418
  endloop
endfacet
facet normal 1.0 0.0 0.0
  outer loop
    vertex 133.25000000001532 74.49999983505278 -11.999999990409364
    vertex 133.25000000001532 70.99999981265266 -13.499999938142414
    vertex 133.25000000001532 74.49999981265265 -13.499999990409359
  endloop
endfacet
facet normal 1.3318395917574558e-13 1.4933412780733483e-08 1.0
  outer loop
    vertex 183.25000000001532 74.49999983505276 -11.99999999041489
    vertex 141.75000000001205 70.99999983505278 -11.999999938142418
    vertex 183.25000000001532 70.99999983505278 -11.999999938147946
  endloop
endfacet
facet normal 1.3318395917574558e-13 1.4933412780733483e-08 1.0
  outer loop
    vertex 141.75000000001205 70.99999983505278 -11.999999938142418
    vertex 183.25000000001532 74.49999983505276 -11.99999999041489
    vertex 141.75000000001205 74.49999983505278 -11.999999990409364
  endloop
endfacet
facet normal -6.701075908165296e-13 1.4933412780733483e-08 1.0
  outer loop
    vertex 133.25000000001532 74.49999983505278 -11.999999990409364
    vertex 126.50000000002242 70.9999998350528 -11.999999938146942
    vertex 133.25000000001532 70.99999983505278 -11.999999938142418
  endloop
endfacet
facet normal -6.701075908165296e-13 1.4933412780733483e-08 1.0
  outer loop
    vertex 126.50000000002242 70.9999998350528 -11.999999938146942
    vertex 133.25000000001532 74.49999983505278 -11.999999990409364
    vertex 126.50000000002242 74.49999983505279 -11.999999990413887
  endloop
endfacet
facet normal -1.0 0.0 -0.0
  outer loop
    vertex 141.75000000001205 74.49999981265265 -13.499999990409359
    vertex 141.75000000001205 70.99999983505278 -11.999999938142418
    vertex 141.75000000001205 74.49999983505278 -11.999999990409364
  endloop
endfacet
facet normal -1.0 0.0 -0.0
  outer loop
    vertex 141.75000000001205 70.99999983505278 -11.999999938142418
    vertex 141.75000000001205 74.49999981265265 -13.499999990409359
    vertex 141.75000000001205 70.99999981265266 -13.499999938142414
  endloop
endfacet
facet normal -1.0 -3.986667999883753e-13 3.501714288931758e-14
  outer loop
    vertex 125.00000000001963 75.99999981265267 -13.500000012815008
    vertex 125.00000000002242 71.000000185988 11.500000061852056
    vertex 125.00000000001963 76.000000185988 11.499999987184992
  endloop
endfacet
facet normal -1.0 -3.986667999883753e-13 3.501714288931758e-14
  outer loop
    vertex 125.00000000002242 71.000000185988 11.500000061852056
    vertex 125.00000000001963 75.99999981265267 -13.500000012815008
    vertex 125.00000000001963 70.99999981265267 -13.499999938147942
  endloop
endfacet
facet normal 1.0 1.0006462329236646e-20 6.700720356828993e-13
  outer loop
    vertex 126.50000000002242 70.9999998350528 -11.999999938146942
    vertex 126.50000000000666 74.500000185988 11.500000009585111
    vertex 126.50000000000666 71.000000185988 11.500000061852056
  endloop
endfacet
facet normal 1.0 1.0006462329236646e-20 6.700720356828993e-13
  outer loop
    vertex 126.50000000000666 74.500000185988 11.500000009585111
    vertex 126.50000000002242 70.9999998350528 -11.999999938146942
    vertex 126.50000000002242 74.49999983505279 -11.999999990413887
  endloop
endfacet
facet normal -2.463392321129063e-16 -1.0 1.493341354681814e-08
  outer loop
    vertex 141.75000000001205 74.49999981265265 -13.499999990409359
    vertex 133.25000000001532 74.49999983505278 -11.999999990409364
    vertex 133.25000000001532 74.49999981265265 -13.499999990409359
  endloop
endfacet
facet normal -2.463392321129063e-16 -1.0 1.493341354681814e-08
  outer loop
    vertex 191.75000000001205 74.49999981265265 -13.499999990414887
    vertex 183.25000000001532 74.49999983505276 -11.99999999041489
    vertex 183.25000000001532 74.49999981265265 -13.499999990414887
  endloop
endfacet
facet normal -2.463392321129063e-16 -1.0 1.493341354681814e-08
  outer loop
    vertex 126.50000000002242 74.49999983505279 -11.999999990413887
    vertex 198.50000000002223 74.50000018598797 11.500000009585111
    vertex 126.50000000000666 74.500000185988 11.500000009585111
  endloop
endfacet
facet normal -2.463392321129063e-16 -1.0 1.493341354681814e-08
  outer loop
    vertex 198.50000000002223 74.50000018598797 11.500000009585111
    vertex 126.50000000002242 74.49999983505279 -11.999999990413887
    vertex 133.25000000001532 74.49999983505278 -11.999999990409364
  endloop
endfacet
facet normal -2.463392321129063e-16 -1.0 1.493341354681814e-08
  outer loop
    vertex 198.50000000002223 74.50000018598797 11.500000009585111
    vertex 133.25000000001532 74.49999983505278 -11.999999990409364
    vertex 141.75000000001205 74.49999983505278 -11.999999990409364
  endloop
endfacet
facet normal -2.463392321129063e-16 -1.0 1.493341354681814e-08
  outer loop
    vertex 141.75000000001205 74.49999983505278 -11.999999990409364
    vertex 133.25000000001532 74.49999983505278 -11.999999990409364
    vertex 141.75000000001205 74.49999981265265 -13.499999990409359
  endloop
endfacet
facet normal -2.463392321129063e-16 -1.0 1.493341354681814e-08
  outer loop
    vertex 198.50000000002223 74.50000018598797 11.500000009585111
    vertex 141.75000000001205 74.49999983505278 -11.999999990409364
    vertex 183.25000000001532 74.49999983505276 -11.99999999041489
  endloop
endfacet
facet normal -2.463392321129063e-16 -1.0 1.493341354681814e-08
  outer loop
    vertex 198.50000000002223 74.50000018598797 11.500000009585111
    vertex 183.25000000001532 74.49999983505276 -11.99999999041489
    vertex 191.75000000001205 74.49999983505276 -11.99999999041489
  endloop
endfacet
facet normal -2.463392321129063e-16 -1.0 1.493341354681814e-08
  outer loop
    vertex 191.75000000001205 74.49999983505276 -11.99999999041489
    vertex 183.25000000001532 74.49999983505276 -11.99999999041489
    vertex 191.75000000001205 74.49999981265265 -13.499999990414887
  endloop
endfacet
facet normal -2.463392321129063e-16 -1.0 1.493341354681814e-08
  outer loop
    vertex 198.50000000002223 74.50000018598797 11.500000009585111
    vertex 191.75000000001205 74.49999983505276 -11.99999999041489
    vertex 198.50000000002223 74.49999983505278 -11.99999999041489
  endloop
endfacet
facet normal -1.0 0.0 -0.0
  outer loop
    vertex 198.50000000002223 74.49999983505278 -11.99999999041489
    vertex 198.50000000002223 71.00000018598797 11.500000061852056
    vertex 198.50000000002223 74.50000018598797 11.500000009585111
  endloop
endfacet
facet normal -1.0 0.0 -0.0
  outer loop
    vertex 198.50000000002223 71.00000018598797 11.500000061852056
    vertex 198.50000000002223 74.49999983505278 -11.99999999041489
    vertex 198.50000000002223 70.99999983505276 -11.999999938147946
  endloop
endfacet
endsolid LED Numbers
