solid LED Numbers
facet normal -7.744087915681588e-35 1.905382758478327e-17 1.0
  outer loop
    vertex 294.92445937733277 463.58825420876155 0.9000000000000868
    vertex 294.92445937733277 482.0882542087614 0.9000000000000865
    vertex 285.6744593773327 472.83825420876155 0.9000000000000865
  endloop
endfacet
facet normal -7.744087915681588e-35 1.905382758478327e-17 1.0
  outer loop
    vertex 294.92445937733277 482.0882542087614 0.9000000000000865
    vertex 294.92445937733277 463.58825420876155 0.9000000000000868
    vertex 391.98207122190774 482.0882542087614 0.9000000000000865
  endloop
endfacet
facet normal -7.744087915681588e-35 1.905382758478327e-17 1.0
  outer loop
    vertex 391.98207122190774 482.0882542087614 0.9000000000000865
    vertex 294.92445937733277 463.58825420876155 0.9000000000000868
    vertex 391.98207122190774 463.58825420876155 0.9000000000000868
  endloop
endfacet
facet normal -7.744087915681588e-35 1.905382758478327e-17 1.0
  outer loop
    vertex 391.98207122190774 482.0882542087614 0.9000000000000865
    vertex 391.98207122190774 463.58825420876155 0.9000000000000868
    vertex 401.2320712219078 472.83825420876155 0.9000000000000865
  endloop
endfacet
facet normal 0.0 1.0 0.0
  outer loop
    vertex 294.92445937733277 463.58825420876155 2.0000000000000866
    vertex 391.98207122190774 463.58825420876155 0.9000000000000868
    vertex 294.92445937733277 463.58825420876155 0.9000000000000868
  endloop
endfacet
facet normal 0.0 1.0 0.0
  outer loop
    vertex 391.98207122190774 463.58825420876155 0.9000000000000868
    vertex 294.92445937733277 463.58825420876155 2.0000000000000866
    vertex 391.98207122190774 463.58825420876155 2.0000000000000866
  endloop
endfacet
facet normal 0.7071067811865462 0.7071067811865488 6.076596142519191e-15
  outer loop
    vertex 285.6744593773327 472.83825420876155 2.0000000000000866
    vertex 294.92445937733277 463.58825420876155 0.9000000000000868
    vertex 285.6744593773327 472.83825420876155 0.9000000000000865
  endloop
endfacet
facet normal 0.7071067811865462 0.7071067811865488 6.076596142519191e-15
  outer loop
    vertex 294.92445937733277 463.58825420876155 0.9000000000000868
    vertex 285.6744593773327 472.83825420876155 2.0000000000000866
    vertex 294.92445937733277 463.58825420876155 2.0000000000000866
  endloop
endfacet
facet normal 0.7071067811865429 -0.7071067811865521 3.0382980712596125e-15
  outer loop
    vertex 294.92445937733277 482.0882542087614 2.0000000000000866
    vertex 285.6744593773327 472.83825420876155 0.9000000000000865
    vertex 294.92445937733277 482.0882542087614 0.9000000000000865
  endloop
endfacet
facet normal 0.7071067811865429 -0.7071067811865521 3.0382980712596125e-15
  outer loop
    vertex 285.6744593773327 472.83825420876155 0.9000000000000865
    vertex 294.92445937733277 482.0882542087614 2.0000000000000866
    vertex 285.6744593773327 472.83825420876155 2.0000000000000866
  endloop
endfacet
facet normal -0.7071067811865425 -0.7071067811865527 3.5057285437610854e-15
  outer loop
    vertex 401.2320712219078 472.83825420876155 2.0000000000000866
    vertex 391.98207122190774 482.0882542087614 0.9000000000000865
    vertex 401.2320712219078 472.83825420876155 0.9000000000000865
  endloop
endfacet
facet normal -0.7071067811865425 -0.7071067811865527 3.5057285437610854e-15
  outer loop
    vertex 391.98207122190774 482.0882542087614 0.9000000000000865
    vertex 401.2320712219078 472.83825420876155 2.0000000000000866
    vertex 391.98207122190774 482.0882542087614 2.0000000000000866
  endloop
endfacet
facet normal 0.0 -1.0 0.0
  outer loop
    vertex 391.98207122190774 482.0882542087614 2.0000000000000866
    vertex 294.92445937733277 482.0882542087614 0.9000000000000865
    vertex 391.98207122190774 482.0882542087614 0.9000000000000865
  endloop
endfacet
facet normal 0.0 -1.0 0.0
  outer loop
    vertex 294.92445937733277 482.0882542087614 0.9000000000000865
    vertex 391.98207122190774 482.0882542087614 2.0000000000000866
    vertex 294.92445937733277 482.0882542087614 2.0000000000000866
  endloop
endfacet
facet normal -0.7071067811865459 0.7071067811865492 -1.0517185631283192e-15
  outer loop
    vertex 391.98207122190774 463.58825420876155 0.9000000000000868
    vertex 401.2320712219078 472.83825420876155 2.0000000000000866
    vertex 401.2320712219078 472.83825420876155 0.9000000000000865
  endloop
endfacet
facet normal -0.7071067811865459 0.7071067811865492 -1.0517185631283192e-15
  outer loop
    vertex 401.2320712219078 472.83825420876155 2.0000000000000866
    vertex 391.98207122190774 463.58825420876155 0.9000000000000868
    vertex 391.98207122190774 463.58825420876155 2.0000000000000866
  endloop
endfacet
facet normal 1.4684119919669382e-18 -1.1567301034117325e-18 -1.0
  outer loop
    vertex 284.2255706378991 473.2264827764153 8.741896095898482e-14
    vertex 284.2255706378991 472.45002564110774 8.741896095898482e-14
    vertex 284.17445937733277 472.83825420876155 8.741896095898482e-14
  endloop
endfacet
facet normal 1.4684119919669382e-18 -1.1567301034117325e-18 -1.0
  outer loop
    vertex 284.2255706378991 472.45002564110774 8.741896095898482e-14
    vertex 284.2255706378991 473.2264827764153 8.741896095898482e-14
    vertex 284.3754212716561 473.58825420876155 8.741896095898482e-14
  endloop
endfacet
facet normal 1.4684119919669382e-18 -1.1567301034117325e-18 -1.0
  outer loop
    vertex 284.2255706378991 472.45002564110774 8.741896095898482e-14
    vertex 284.3754212716561 473.58825420876155 8.741896095898482e-14
    vertex 284.3754212716561 472.0882542087615 8.741896095898482e-14
  endloop
endfacet
facet normal 1.4684119919669382e-18 -1.1567301034117325e-18 -1.0
  outer loop
    vertex 284.3754212716561 472.0882542087615 8.741896095898482e-14
    vertex 284.3754212716561 473.58825420876155 8.741896095898482e-14
    vertex 284.61379920555294 473.8989143805413 8.741896095898482e-14
  endloop
endfacet
facet normal 1.4684119919669382e-18 -1.1567301034117325e-18 -1.0
  outer loop
    vertex 284.3754212716561 472.0882542087615 8.741896095898482e-14
    vertex 284.61379920555294 473.8989143805413 8.741896095898482e-14
    vertex 284.61379920555294 471.7775940369817 8.741896095898482e-14
  endloop
endfacet
facet normal 1.4684119919669382e-18 -1.1567301034117325e-18 -1.0
  outer loop
    vertex 284.61379920555294 471.7775940369817 8.741896095898482e-14
    vertex 284.61379920555294 473.8989143805413 8.741896095898482e-14
    vertex 293.8637992055529 483.1489143805412 8.706646514866633e-14
  endloop
endfacet
facet normal 1.4684119919669382e-18 -1.1567301034117325e-18 -1.0
  outer loop
    vertex 284.61379920555294 471.7775940369817 8.741896095898482e-14
    vertex 293.8637992055529 483.1489143805412 8.706646514866633e-14
    vertex 293.8637992055529 462.5275940369818 8.724271305382558e-14
  endloop
endfacet
facet normal 1.4684119919669382e-18 -1.1567301034117325e-18 -1.0
  outer loop
    vertex 293.8637992055529 462.5275940369818 8.724271305382558e-14
    vertex 293.8637992055529 483.1489143805412 8.706646514866633e-14
    vertex 294.17445937733277 483.38729231443807 8.706646514866633e-14
  endloop
endfacet
facet normal 1.4684119919669382e-18 -1.1567301034117325e-18 -1.0
  outer loop
    vertex 293.8637992055529 462.5275940369818 8.724271305382558e-14
    vertex 294.17445937733277 483.38729231443807 8.706646514866633e-14
    vertex 294.17445937733277 462.28921610308487 8.724271305382558e-14
  endloop
endfacet
facet normal 1.4684119919669382e-18 -1.1567301034117325e-18 -1.0
  outer loop
    vertex 294.17445937733277 462.28921610308487 8.724271305382558e-14
    vertex 294.17445937733277 483.38729231443807 8.706646514866633e-14
    vertex 294.53623080967895 483.537142948195 8.706646514866633e-14
  endloop
endfacet
facet normal 1.4684119919669382e-18 -1.1567301034117325e-18 -1.0
  outer loop
    vertex 294.17445937733277 462.28921610308487 8.724271305382558e-14
    vertex 294.53623080967895 483.537142948195 8.706646514866633e-14
    vertex 294.53623080967895 462.13936546932797 8.724271305382558e-14
  endloop
endfacet
facet normal 1.4684119919669382e-18 -1.1567301034117325e-18 -1.0
  outer loop
    vertex 294.53623080967895 462.13936546932797 8.724271305382558e-14
    vertex 294.53623080967895 483.537142948195 8.706646514866633e-14
    vertex 294.92445937733277 483.58825420876144 8.706646514866633e-14
  endloop
endfacet
facet normal 1.4684119919669382e-18 -1.1567301034117325e-18 -1.0
  outer loop
    vertex 294.53623080967895 462.13936546932797 8.724271305382558e-14
    vertex 294.92445937733277 483.58825420876144 8.706646514866633e-14
    vertex 294.92445937733277 462.08825420876155 8.724271305382558e-14
  endloop
endfacet
facet normal 1.4684119919669382e-18 -1.1567301034117325e-18 -1.0
  outer loop
    vertex 294.92445937733277 462.08825420876155 8.724271305382558e-14
    vertex 294.92445937733277 483.58825420876144 8.706646514866633e-14
    vertex 391.98207122190774 483.58825420876144 8.741896095898482e-14
  endloop
endfacet
facet normal 1.4684119919669382e-18 -1.1567301034117325e-18 -1.0
  outer loop
    vertex 294.92445937733277 462.08825420876155 8.724271305382558e-14
    vertex 391.98207122190774 483.58825420876144 8.741896095898482e-14
    vertex 391.98207122190774 462.0882542087616 8.741896095898482e-14
  endloop
endfacet
facet normal 1.4684119919669382e-18 -1.1567301034117325e-18 -1.0
  outer loop
    vertex 391.98207122190774 462.0882542087616 8.741896095898482e-14
    vertex 391.98207122190774 483.58825420876144 8.741896095898482e-14
    vertex 392.37029978956156 483.537142948195 8.741896095898482e-14
  endloop
endfacet
facet normal 1.4684119919669382e-18 -1.1567301034117325e-18 -1.0
  outer loop
    vertex 391.98207122190774 462.0882542087616 8.741896095898482e-14
    vertex 392.37029978956156 483.537142948195 8.741896095898482e-14
    vertex 392.3702997895615 462.13936546932797 8.741896095898482e-14
  endloop
endfacet
facet normal 1.4684119919669382e-18 -1.1567301034117325e-18 -1.0
  outer loop
    vertex 392.3702997895615 462.13936546932797 8.741896095898482e-14
    vertex 392.37029978956156 483.537142948195 8.741896095898482e-14
    vertex 392.73207122190774 462.28921610308487 8.741896095898482e-14
  endloop
endfacet
facet normal 1.4684119919669382e-18 -1.1567301034117325e-18 -1.0
  outer loop
    vertex 392.73207122190774 462.28921610308487 8.741896095898482e-14
    vertex 392.37029978956156 483.537142948195 8.741896095898482e-14
    vertex 392.73207122190774 483.38729231443807 8.741896095898482e-14
  endloop
endfacet
facet normal 1.4684119919669382e-18 -1.1567301034117325e-18 -1.0
  outer loop
    vertex 392.73207122190774 462.28921610308487 8.741896095898482e-14
    vertex 392.73207122190774 483.38729231443807 8.741896095898482e-14
    vertex 393.0427313936876 462.5275940369818 8.741896095898482e-14
  endloop
endfacet
facet normal 1.4684119919669382e-18 -1.1567301034117325e-18 -1.0
  outer loop
    vertex 393.0427313936876 462.5275940369818 8.741896095898482e-14
    vertex 392.73207122190774 483.38729231443807 8.741896095898482e-14
    vertex 393.04273139368763 483.1489143805412 8.741896095898482e-14
  endloop
endfacet
facet normal 1.4684119919669382e-18 -1.1567301034117325e-18 -1.0
  outer loop
    vertex 393.0427313936876 462.5275940369818 8.741896095898482e-14
    vertex 393.04273139368763 483.1489143805412 8.741896095898482e-14
    vertex 402.2927313936876 471.7775940369817 8.741896095898482e-14
  endloop
endfacet
facet normal 1.4684119919669382e-18 -1.1567301034117325e-18 -1.0
  outer loop
    vertex 402.2927313936876 471.7775940369817 8.741896095898482e-14
    vertex 393.04273139368763 483.1489143805412 8.741896095898482e-14
    vertex 402.2927313936876 473.8989143805413 8.741896095898482e-14
  endloop
endfacet
facet normal 1.4684119919669382e-18 -1.1567301034117325e-18 -1.0
  outer loop
    vertex 402.2927313936876 471.7775940369817 8.741896095898482e-14
    vertex 402.2927313936876 473.8989143805413 8.741896095898482e-14
    vertex 402.53110932758443 472.0882542087615 8.741896095898482e-14
  endloop
endfacet
facet normal 1.4684119919669382e-18 -1.1567301034117325e-18 -1.0
  outer loop
    vertex 402.53110932758443 472.0882542087615 8.741896095898482e-14
    vertex 402.2927313936876 473.8989143805413 8.741896095898482e-14
    vertex 402.53110932758443 473.58825420876155 8.741896095898482e-14
  endloop
endfacet
facet normal 1.4684119919669382e-18 -1.1567301034117325e-18 -1.0
  outer loop
    vertex 402.53110932758443 472.0882542087615 8.741896095898482e-14
    vertex 402.53110932758443 473.58825420876155 8.741896095898482e-14
    vertex 402.6809599613414 472.45002564110774 8.741896095898482e-14
  endloop
endfacet
facet normal 1.4684119919669382e-18 -1.1567301034117325e-18 -1.0
  outer loop
    vertex 402.6809599613414 472.45002564110774 8.741896095898482e-14
    vertex 402.53110932758443 473.58825420876155 8.741896095898482e-14
    vertex 402.6809599613414 473.2264827764153 8.741896095898482e-14
  endloop
endfacet
facet normal 1.4684119919669382e-18 -1.1567301034117325e-18 -1.0
  outer loop
    vertex 402.6809599613414 472.45002564110774 8.741896095898482e-14
    vertex 402.6809599613414 473.2264827764153 8.741896095898482e-14
    vertex 402.73207122190774 472.83825420876155 8.741896095898482e-14
  endloop
endfacet
facet normal 0.7071067811865458 -0.7071067811865493 0.0
  outer loop
    vertex 402.2927313936876 471.7775940369817 2.0000000000000866
    vertex 393.0427313936876 462.5275940369818 8.741896095898482e-14
    vertex 402.2927313936876 471.7775940369817 8.741896095898482e-14
  endloop
endfacet
facet normal 0.7071067811865458 -0.7071067811865493 0.0
  outer loop
    vertex 393.0427313936876 462.5275940369818 8.741896095898482e-14
    vertex 402.2927313936876 471.7775940369817 2.0000000000000866
    vertex 393.0427313936876 462.5275940369818 2.0000000000000866
  endloop
endfacet
facet normal -0.7071067811865474 -0.7071067811865478 9.892195807074474e-17
  outer loop
    vertex 293.8637992055529 462.5275940369818 2.0000000000000866
    vertex 284.61379920555294 471.7775940369817 8.741896095898482e-14
    vertex 293.8637992055529 462.5275940369818 8.724271305382558e-14
  endloop
endfacet
facet normal -0.7071067811865474 -0.7071067811865478 9.892195807074474e-17
  outer loop
    vertex 284.61379920555294 471.7775940369817 8.741896095898482e-14
    vertex 293.8637992055529 462.5275940369818 2.0000000000000866
    vertex 284.61379920555294 471.7775940369817 2.0000000000000866
  endloop
endfacet
facet normal -0.7071067811865436 0.7071067811865516 3.2710260096163336e-30
  outer loop
    vertex 284.61379920555294 473.8989143805413 8.741896095898482e-14
    vertex 293.8637992055529 483.1489143805412 2.0000000000000866
    vertex 293.8637992055529 483.1489143805412 8.706646514866633e-14
  endloop
endfacet
facet normal -0.7071067811865436 0.7071067811865516 3.2710260096163336e-30
  outer loop
    vertex 293.8637992055529 483.1489143805412 2.0000000000000866
    vertex 284.61379920555294 473.8989143805413 8.741896095898482e-14
    vertex 284.61379920555294 473.8989143805413 2.0000000000000866
  endloop
endfacet
facet normal 0.0 1.0 0.0
  outer loop
    vertex 294.92445937733277 483.58825420876144 2.0000000000000866
    vertex 391.98207122190774 483.58825420876144 8.741896095898482e-14
    vertex 294.92445937733277 483.58825420876144 8.706646514866633e-14
  endloop
endfacet
facet normal 0.0 1.0 0.0
  outer loop
    vertex 391.98207122190774 483.58825420876144 8.741896095898482e-14
    vertex 294.92445937733277 483.58825420876144 2.0000000000000866
    vertex 391.98207122190774 483.58825420876144 2.0000000000000866
  endloop
endfacet
facet normal 0.7071067811865428 0.7071067811865522 0.0
  outer loop
    vertex 393.04273139368763 483.1489143805412 2.0000000000000866
    vertex 402.2927313936876 473.8989143805413 8.741896095898482e-14
    vertex 393.04273139368763 483.1489143805412 8.741896095898482e-14
  endloop
endfacet
facet normal 0.7071067811865428 0.7071067811865522 0.0
  outer loop
    vertex 402.2927313936876 473.8989143805413 8.741896095898482e-14
    vertex 393.04273139368763 483.1489143805412 2.0000000000000866
    vertex 402.2927313936876 473.8989143805413 2.0000000000000866
  endloop
endfacet
facet normal 9.297460109160575e-16 -1.0 -9.304275110391296e-32
  outer loop
    vertex 391.98207122190774 462.0882542087616 8.741896095898482e-14
    vertex 294.92445937733277 462.08825420876155 2.0000000000000866
    vertex 294.92445937733277 462.08825420876155 8.724271305382558e-14
  endloop
endfacet
facet normal 9.297460109160575e-16 -1.0 -9.304275110391296e-32
  outer loop
    vertex 294.92445937733277 462.08825420876155 2.0000000000000866
    vertex 391.98207122190774 462.0882542087616 8.741896095898482e-14
    vertex 391.98207122190774 462.0882542087616 2.0000000000000866
  endloop
endfacet
facet normal -0.7933533402912093 -0.6087614290087545 0.0
  outer loop
    vertex 284.3754212716561 472.0882542087615 2.0000000000000866
    vertex 284.61379920555294 471.7775940369817 8.741896095898482e-14
    vertex 284.61379920555294 471.7775940369817 2.0000000000000866
  endloop
endfacet
facet normal -0.7933533402912093 -0.6087614290087545 0.0
  outer loop
    vertex 284.61379920555294 471.7775940369817 8.741896095898482e-14
    vertex 284.3754212716561 472.0882542087615 2.0000000000000866
    vertex 284.3754212716561 472.0882542087615 8.741896095898482e-14
  endloop
endfacet
facet normal -0.9238795325112812 -0.3826834323651033 -0.0
  outer loop
    vertex 284.2255706378991 472.45002564110774 2.0000000000000866
    vertex 284.3754212716561 472.0882542087615 8.741896095898482e-14
    vertex 284.3754212716561 472.0882542087615 2.0000000000000866
  endloop
endfacet
facet normal -0.9238795325112812 -0.3826834323651033 -0.0
  outer loop
    vertex 284.3754212716561 472.0882542087615 8.741896095898482e-14
    vertex 284.2255706378991 472.45002564110774 2.0000000000000866
    vertex 284.2255706378991 472.45002564110774 8.741896095898482e-14
  endloop
endfacet
facet normal -0.9914448613738103 -0.1305261922200522 -0.0
  outer loop
    vertex 284.17445937733277 472.83825420876155 2.0000000000000866
    vertex 284.2255706378991 472.45002564110774 8.741896095898482e-14
    vertex 284.2255706378991 472.45002564110774 2.0000000000000866
  endloop
endfacet
facet normal -0.9914448613738103 -0.1305261922200522 -0.0
  outer loop
    vertex 284.2255706378991 472.45002564110774 8.741896095898482e-14
    vertex 284.17445937733277 472.83825420876155 2.0000000000000866
    vertex 284.17445937733277 472.83825420876155 8.741896095898482e-14
  endloop
endfacet
facet normal -0.9914448613738133 0.130526192220031 0.0
  outer loop
    vertex 284.2255706378991 473.2264827764153 2.0000000000000866
    vertex 284.17445937733277 472.83825420876155 8.741896095898482e-14
    vertex 284.17445937733277 472.83825420876155 2.0000000000000866
  endloop
endfacet
facet normal -0.9914448613738133 0.130526192220031 0.0
  outer loop
    vertex 284.17445937733277 472.83825420876155 8.741896095898482e-14
    vertex 284.2255706378991 473.2264827764153 2.0000000000000866
    vertex 284.2255706378991 473.2264827764153 8.741896095898482e-14
  endloop
endfacet
facet normal -0.9238795325112863 0.382683432365091 0.0
  outer loop
    vertex 284.3754212716561 473.58825420876155 2.0000000000000866
    vertex 284.2255706378991 473.2264827764153 8.741896095898482e-14
    vertex 284.2255706378991 473.2264827764153 2.0000000000000866
  endloop
endfacet
facet normal -0.9238795325112863 0.382683432365091 0.0
  outer loop
    vertex 284.2255706378991 473.2264827764153 8.741896095898482e-14
    vertex 284.3754212716561 473.58825420876155 2.0000000000000866
    vertex 284.3754212716561 473.58825420876155 8.741896095898482e-14
  endloop
endfacet
facet normal -0.7933533402912128 0.60876142900875 0.0
  outer loop
    vertex 284.61379920555294 473.8989143805413 2.0000000000000866
    vertex 284.3754212716561 473.58825420876155 8.741896095898482e-14
    vertex 284.3754212716561 473.58825420876155 2.0000000000000866
  endloop
endfacet
facet normal -0.7933533402912128 0.60876142900875 0.0
  outer loop
    vertex 284.3754212716561 473.58825420876155 8.741896095898482e-14
    vertex 284.61379920555294 473.8989143805413 2.0000000000000866
    vertex 284.61379920555294 473.8989143805413 8.741896095898482e-14
  endloop
endfacet
facet normal -5.841056475878471e-34 8.893059616753832e-34 1.0
  outer loop
    vertex 293.8637992055529 462.5275940369818 2.0000000000000866
    vertex 285.6744593773327 472.83825420876155 2.0000000000000866
    vertex 284.61379920555294 471.7775940369817 2.0000000000000866
  endloop
endfacet
facet normal -5.841056475878471e-34 8.893059616753832e-34 1.0
  outer loop
    vertex 285.6744593773327 472.83825420876155 2.0000000000000866
    vertex 293.8637992055529 462.5275940369818 2.0000000000000866
    vertex 294.92445937733277 463.58825420876155 2.0000000000000866
  endloop
endfacet
facet normal -5.841056475878471e-34 8.893059616753832e-34 1.0
  outer loop
    vertex 294.92445937733277 463.58825420876155 2.0000000000000866
    vertex 293.8637992055529 462.5275940369818 2.0000000000000866
    vertex 294.17445937733277 462.28921610308487 2.0000000000000866
  endloop
endfacet
facet normal -5.841056475878471e-34 8.893059616753832e-34 1.0
  outer loop
    vertex 294.92445937733277 463.58825420876155 2.0000000000000866
    vertex 294.17445937733277 462.28921610308487 2.0000000000000866
    vertex 294.53623080967895 462.13936546932797 2.0000000000000866
  endloop
endfacet
facet normal -5.841056475878471e-34 8.893059616753832e-34 1.0
  outer loop
    vertex 294.92445937733277 463.58825420876155 2.0000000000000866
    vertex 294.53623080967895 462.13936546932797 2.0000000000000866
    vertex 294.92445937733277 462.08825420876155 2.0000000000000866
  endloop
endfacet
facet normal -5.841056475878471e-34 8.893059616753832e-34 1.0
  outer loop
    vertex 294.92445937733277 463.58825420876155 2.0000000000000866
    vertex 294.92445937733277 462.08825420876155 2.0000000000000866
    vertex 391.98207122190774 462.0882542087616 2.0000000000000866
  endloop
endfacet
facet normal -5.841056475878471e-34 8.893059616753832e-34 1.0
  outer loop
    vertex 294.92445937733277 463.58825420876155 2.0000000000000866
    vertex 391.98207122190774 462.0882542087616 2.0000000000000866
    vertex 391.98207122190774 463.58825420876155 2.0000000000000866
  endloop
endfacet
facet normal -5.841056475878471e-34 8.893059616753832e-34 1.0
  outer loop
    vertex 391.98207122190774 463.58825420876155 2.0000000000000866
    vertex 391.98207122190774 462.0882542087616 2.0000000000000866
    vertex 392.3702997895615 462.13936546932797 2.0000000000000866
  endloop
endfacet
facet normal -5.841056475878471e-34 8.893059616753832e-34 1.0
  outer loop
    vertex 391.98207122190774 463.58825420876155 2.0000000000000866
    vertex 392.3702997895615 462.13936546932797 2.0000000000000866
    vertex 401.2320712219078 472.83825420876155 2.0000000000000866
  endloop
endfacet
facet normal -5.841056475878471e-34 8.893059616753832e-34 1.0
  outer loop
    vertex 401.2320712219078 472.83825420876155 2.0000000000000866
    vertex 392.3702997895615 462.13936546932797 2.0000000000000866
    vertex 392.73207122190774 462.28921610308487 2.0000000000000866
  endloop
endfacet
facet normal -5.841056475878471e-34 8.893059616753832e-34 1.0
  outer loop
    vertex 401.2320712219078 472.83825420876155 2.0000000000000866
    vertex 392.73207122190774 462.28921610308487 2.0000000000000866
    vertex 393.0427313936876 462.5275940369818 2.0000000000000866
  endloop
endfacet
facet normal -5.841056475878471e-34 8.893059616753832e-34 1.0
  outer loop
    vertex 401.2320712219078 472.83825420876155 2.0000000000000866
    vertex 393.0427313936876 462.5275940369818 2.0000000000000866
    vertex 402.2927313936876 471.7775940369817 2.0000000000000866
  endloop
endfacet
facet normal -5.841056475878471e-34 8.893059616753832e-34 1.0
  outer loop
    vertex 284.2255706378991 472.45002564110774 2.0000000000000866
    vertex 284.2255706378991 473.2264827764153 2.0000000000000866
    vertex 284.17445937733277 472.83825420876155 2.0000000000000866
  endloop
endfacet
facet normal -5.841056475878471e-34 8.893059616753832e-34 1.0
  outer loop
    vertex 284.2255706378991 473.2264827764153 2.0000000000000866
    vertex 284.2255706378991 472.45002564110774 2.0000000000000866
    vertex 284.3754212716561 473.58825420876155 2.0000000000000866
  endloop
endfacet
facet normal -5.841056475878471e-34 8.893059616753832e-34 1.0
  outer loop
    vertex 284.3754212716561 473.58825420876155 2.0000000000000866
    vertex 284.2255706378991 472.45002564110774 2.0000000000000866
    vertex 284.3754212716561 472.0882542087615 2.0000000000000866
  endloop
endfacet
facet normal -5.841056475878471e-34 8.893059616753832e-34 1.0
  outer loop
    vertex 284.3754212716561 473.58825420876155 2.0000000000000866
    vertex 284.3754212716561 472.0882542087615 2.0000000000000866
    vertex 284.61379920555294 473.8989143805413 2.0000000000000866
  endloop
endfacet
facet normal -5.841056475878471e-34 8.893059616753832e-34 1.0
  outer loop
    vertex 284.61379920555294 473.8989143805413 2.0000000000000866
    vertex 284.3754212716561 472.0882542087615 2.0000000000000866
    vertex 284.61379920555294 471.7775940369817 2.0000000000000866
  endloop
endfacet
facet normal -5.841056475878471e-34 8.893059616753832e-34 1.0
  outer loop
    vertex 284.61379920555294 473.8989143805413 2.0000000000000866
    vertex 284.61379920555294 471.7775940369817 2.0000000000000866
    vertex 293.8637992055529 483.1489143805412 2.0000000000000866
  endloop
endfacet
facet normal -5.841056475878471e-34 8.893059616753832e-34 1.0
  outer loop
    vertex 293.8637992055529 483.1489143805412 2.0000000000000866
    vertex 284.61379920555294 471.7775940369817 2.0000000000000866
    vertex 285.6744593773327 472.83825420876155 2.0000000000000866
  endloop
endfacet
facet normal -5.841056475878471e-34 8.893059616753832e-34 1.0
  outer loop
    vertex 293.8637992055529 483.1489143805412 2.0000000000000866
    vertex 285.6744593773327 472.83825420876155 2.0000000000000866
    vertex 294.92445937733277 482.0882542087614 2.0000000000000866
  endloop
endfacet
facet normal -5.841056475878471e-34 8.893059616753832e-34 1.0
  outer loop
    vertex 293.8637992055529 483.1489143805412 2.0000000000000866
    vertex 294.92445937733277 482.0882542087614 2.0000000000000866
    vertex 294.17445937733277 483.38729231443807 2.0000000000000866
  endloop
endfacet
facet normal -5.841056475878471e-34 8.893059616753832e-34 1.0
  outer loop
    vertex 294.17445937733277 483.38729231443807 2.0000000000000866
    vertex 294.92445937733277 482.0882542087614 2.0000000000000866
    vertex 294.53623080967895 483.537142948195 2.0000000000000866
  endloop
endfacet
facet normal -5.841056475878471e-34 8.893059616753832e-34 1.0
  outer loop
    vertex 294.53623080967895 483.537142948195 2.0000000000000866
    vertex 294.92445937733277 482.0882542087614 2.0000000000000866
    vertex 294.92445937733277 483.58825420876144 2.0000000000000866
  endloop
endfacet
facet normal -5.841056475878471e-34 8.893059616753832e-34 1.0
  outer loop
    vertex 294.92445937733277 483.58825420876144 2.0000000000000866
    vertex 294.92445937733277 482.0882542087614 2.0000000000000866
    vertex 391.98207122190774 483.58825420876144 2.0000000000000866
  endloop
endfacet
facet normal -5.841056475878471e-34 8.893059616753832e-34 1.0
  outer loop
    vertex 391.98207122190774 483.58825420876144 2.0000000000000866
    vertex 294.92445937733277 482.0882542087614 2.0000000000000866
    vertex 391.98207122190774 482.0882542087614 2.0000000000000866
  endloop
endfacet
facet normal -5.841056475878471e-34 8.893059616753832e-34 1.0
  outer loop
    vertex 391.98207122190774 483.58825420876144 2.0000000000000866
    vertex 391.98207122190774 482.0882542087614 2.0000000000000866
    vertex 401.2320712219078 472.83825420876155 2.0000000000000866
  endloop
endfacet
facet normal -5.841056475878471e-34 8.893059616753832e-34 1.0
  outer loop
    vertex 391.98207122190774 483.58825420876144 2.0000000000000866
    vertex 401.2320712219078 472.83825420876155 2.0000000000000866
    vertex 392.37029978956156 483.537142948195 2.0000000000000866
  endloop
endfacet
facet normal -5.841056475878471e-34 8.893059616753832e-34 1.0
  outer loop
    vertex 392.37029978956156 483.537142948195 2.0000000000000866
    vertex 401.2320712219078 472.83825420876155 2.0000000000000866
    vertex 392.73207122190774 483.38729231443807 2.0000000000000866
  endloop
endfacet
facet normal -5.841056475878471e-34 8.893059616753832e-34 1.0
  outer loop
    vertex 392.73207122190774 483.38729231443807 2.0000000000000866
    vertex 401.2320712219078 472.83825420876155 2.0000000000000866
    vertex 393.04273139368763 483.1489143805412 2.0000000000000866
  endloop
endfacet
facet normal -5.841056475878471e-34 8.893059616753832e-34 1.0
  outer loop
    vertex 393.04273139368763 483.1489143805412 2.0000000000000866
    vertex 401.2320712219078 472.83825420876155 2.0000000000000866
    vertex 402.2927313936876 473.8989143805413 2.0000000000000866
  endloop
endfacet
facet normal -5.841056475878471e-34 8.893059616753832e-34 1.0
  outer loop
    vertex 402.2927313936876 473.8989143805413 2.0000000000000866
    vertex 401.2320712219078 472.83825420876155 2.0000000000000866
    vertex 402.2927313936876 471.7775940369817 2.0000000000000866
  endloop
endfacet
facet normal -5.841056475878471e-34 8.893059616753832e-34 1.0
  outer loop
    vertex 402.2927313936876 473.8989143805413 2.0000000000000866
    vertex 402.2927313936876 471.7775940369817 2.0000000000000866
    vertex 402.53110932758443 472.0882542087615 2.0000000000000866
  endloop
endfacet
facet normal -5.841056475878471e-34 8.893059616753832e-34 1.0
  outer loop
    vertex 402.2927313936876 473.8989143805413 2.0000000000000866
    vertex 402.53110932758443 472.0882542087615 2.0000000000000866
    vertex 402.53110932758443 473.58825420876155 2.0000000000000866
  endloop
endfacet
facet normal -5.841056475878471e-34 8.893059616753832e-34 1.0
  outer loop
    vertex 402.53110932758443 473.58825420876155 2.0000000000000866
    vertex 402.53110932758443 472.0882542087615 2.0000000000000866
    vertex 402.6809599613414 472.45002564110774 2.0000000000000866
  endloop
endfacet
facet normal -5.841056475878471e-34 8.893059616753832e-34 1.0
  outer loop
    vertex 402.53110932758443 473.58825420876155 2.0000000000000866
    vertex 402.6809599613414 472.45002564110774 2.0000000000000866
    vertex 402.6809599613414 473.2264827764153 2.0000000000000866
  endloop
endfacet
facet normal -5.841056475878471e-34 8.893059616753832e-34 1.0
  outer loop
    vertex 402.6809599613414 473.2264827764153 2.0000000000000866
    vertex 402.6809599613414 472.45002564110774 2.0000000000000866
    vertex 402.73207122190774 472.83825420876155 2.0000000000000866
  endloop
endfacet
facet normal 0.7933533402912198 0.6087614290087409 0.0
  outer loop
    vertex 402.2927313936876 473.8989143805413 8.741896095898482e-14
    vertex 402.53110932758443 473.58825420876155 2.0000000000000866
    vertex 402.53110932758443 473.58825420876155 8.741896095898482e-14
  endloop
endfacet
facet normal 0.7933533402912198 0.6087614290087409 0.0
  outer loop
    vertex 402.53110932758443 473.58825420876155 2.0000000000000866
    vertex 402.2927313936876 473.8989143805413 8.741896095898482e-14
    vertex 402.2927313936876 473.8989143805413 2.0000000000000866
  endloop
endfacet
facet normal 0.9238795325112863 0.382683432365091 0.0
  outer loop
    vertex 402.53110932758443 473.58825420876155 8.741896095898482e-14
    vertex 402.6809599613414 473.2264827764153 2.0000000000000866
    vertex 402.6809599613414 473.2264827764153 8.741896095898482e-14
  endloop
endfacet
facet normal 0.9238795325112863 0.382683432365091 0.0
  outer loop
    vertex 402.6809599613414 473.2264827764153 2.0000000000000866
    vertex 402.53110932758443 473.58825420876155 8.741896095898482e-14
    vertex 402.53110932758443 473.58825420876155 2.0000000000000866
  endloop
endfacet
facet normal 0.9914448613738123 0.13052619222003808 0.0
  outer loop
    vertex 402.6809599613414 473.2264827764153 8.741896095898482e-14
    vertex 402.73207122190774 472.83825420876155 2.0000000000000866
    vertex 402.73207122190774 472.83825420876155 8.741896095898482e-14
  endloop
endfacet
facet normal 0.9914448613738123 0.13052619222003808 0.0
  outer loop
    vertex 402.73207122190774 472.83825420876155 2.0000000000000866
    vertex 402.6809599613414 473.2264827764153 8.741896095898482e-14
    vertex 402.6809599613414 473.2264827764153 2.0000000000000866
  endloop
endfacet
facet normal 0.9914448613738123 -0.13052619222003808 0.0
  outer loop
    vertex 402.73207122190774 472.83825420876155 8.741896095898482e-14
    vertex 402.6809599613414 472.45002564110774 2.0000000000000866
    vertex 402.6809599613414 472.45002564110774 8.741896095898482e-14
  endloop
endfacet
facet normal 0.9914448613738123 -0.13052619222003808 0.0
  outer loop
    vertex 402.6809599613414 472.45002564110774 2.0000000000000866
    vertex 402.73207122190774 472.83825420876155 8.741896095898482e-14
    vertex 402.73207122190774 472.83825420876155 2.0000000000000866
  endloop
endfacet
facet normal 0.9238795325112762 -0.3826834323651156 0.0
  outer loop
    vertex 402.6809599613414 472.45002564110774 8.741896095898482e-14
    vertex 402.53110932758443 472.0882542087615 2.0000000000000866
    vertex 402.53110932758443 472.0882542087615 8.741896095898482e-14
  endloop
endfacet
facet normal 0.9238795325112762 -0.3826834323651156 0.0
  outer loop
    vertex 402.53110932758443 472.0882542087615 2.0000000000000866
    vertex 402.6809599613414 472.45002564110774 8.741896095898482e-14
    vertex 402.6809599613414 472.45002564110774 2.0000000000000866
  endloop
endfacet
facet normal 0.7933533402912057 -0.608761429008759 0.0
  outer loop
    vertex 402.53110932758443 472.0882542087615 8.741896095898482e-14
    vertex 402.2927313936876 471.7775940369817 2.0000000000000866
    vertex 402.2927313936876 471.7775940369817 8.741896095898482e-14
  endloop
endfacet
facet normal 0.7933533402912057 -0.608761429008759 0.0
  outer loop
    vertex 402.2927313936876 471.7775940369817 2.0000000000000866
    vertex 402.53110932758443 472.0882542087615 8.741896095898482e-14
    vertex 402.53110932758443 472.0882542087615 2.0000000000000866
  endloop
endfacet
facet normal 0.13052619221987563 -0.9914448613738337 0.0
  outer loop
    vertex 392.3702997895615 462.13936546932797 2.0000000000000866
    vertex 391.98207122190774 462.0882542087616 8.741896095898482e-14
    vertex 392.3702997895615 462.13936546932797 8.741896095898482e-14
  endloop
endfacet
facet normal 0.13052619221987563 -0.9914448613738337 0.0
  outer loop
    vertex 391.98207122190774 462.0882542087616 8.741896095898482e-14
    vertex 392.3702997895615 462.13936546932797 2.0000000000000866
    vertex 391.98207122190774 462.0882542087616 2.0000000000000866
  endloop
endfacet
facet normal 0.6087614290087855 -0.7933533402911855 0.0
  outer loop
    vertex 393.0427313936876 462.5275940369818 2.0000000000000866
    vertex 392.73207122190774 462.28921610308487 8.741896095898482e-14
    vertex 393.0427313936876 462.5275940369818 8.741896095898482e-14
  endloop
endfacet
facet normal 0.6087614290087855 -0.7933533402911855 0.0
  outer loop
    vertex 392.73207122190774 462.28921610308487 8.741896095898482e-14
    vertex 393.0427313936876 462.5275940369818 2.0000000000000866
    vertex 392.73207122190774 462.28921610308487 2.0000000000000866
  endloop
endfacet
facet normal 0.38268343236506636 -0.9238795325112964 0.0
  outer loop
    vertex 392.73207122190774 462.28921610308487 2.0000000000000866
    vertex 392.3702997895615 462.13936546932797 8.741896095898482e-14
    vertex 392.73207122190774 462.28921610308487 8.741896095898482e-14
  endloop
endfacet
facet normal 0.38268343236506636 -0.9238795325112964 0.0
  outer loop
    vertex 392.3702997895615 462.13936546932797 8.741896095898482e-14
    vertex 392.73207122190774 462.28921610308487 2.0000000000000866
    vertex 392.3702997895615 462.13936546932797 2.0000000000000866
  endloop
endfacet
facet normal 0.6087614290087716 0.7933533402911962 0.0
  outer loop
    vertex 392.73207122190774 483.38729231443807 2.0000000000000866
    vertex 393.04273139368763 483.1489143805412 8.741896095898482e-14
    vertex 392.73207122190774 483.38729231443807 8.741896095898482e-14
  endloop
endfacet
facet normal 0.6087614290087716 0.7933533402911962 0.0
  outer loop
    vertex 393.04273139368763 483.1489143805412 8.741896095898482e-14
    vertex 392.73207122190774 483.38729231443807 2.0000000000000866
    vertex 393.04273139368763 483.1489143805412 2.0000000000000866
  endloop
endfacet
facet normal 0.1305261922200985 0.9914448613738044 0.0
  outer loop
    vertex 391.98207122190774 483.58825420876144 2.0000000000000866
    vertex 392.37029978956156 483.537142948195 8.741896095898482e-14
    vertex 391.98207122190774 483.58825420876144 8.741896095898482e-14
  endloop
endfacet
facet normal 0.1305261922200985 0.9914448613738044 0.0
  outer loop
    vertex 392.37029978956156 483.537142948195 8.741896095898482e-14
    vertex 391.98207122190774 483.58825420876144 2.0000000000000866
    vertex 392.37029978956156 483.537142948195 2.0000000000000866
  endloop
endfacet
facet normal 0.38268343236505625 0.9238795325113007 0.0
  outer loop
    vertex 392.37029978956156 483.537142948195 2.0000000000000866
    vertex 392.73207122190774 483.38729231443807 8.741896095898482e-14
    vertex 392.37029978956156 483.537142948195 8.741896095898482e-14
  endloop
endfacet
facet normal 0.38268343236505625 0.9238795325113007 0.0
  outer loop
    vertex 392.73207122190774 483.38729231443807 8.741896095898482e-14
    vertex 392.37029978956156 483.537142948195 2.0000000000000866
    vertex 392.73207122190774 483.38729231443807 2.0000000000000866
  endloop
endfacet
facet normal -0.6087614290087716 0.7933533402911962 -3.4683616725124244e-18
  outer loop
    vertex 293.8637992055529 483.1489143805412 2.0000000000000866
    vertex 294.17445937733277 483.38729231443807 8.706646514866633e-14
    vertex 293.8637992055529 483.1489143805412 8.706646514866633e-14
  endloop
endfacet
facet normal -0.6087614290087716 0.7933533402911962 -3.4683616725124244e-18
  outer loop
    vertex 294.17445937733277 483.38729231443807 8.706646514866633e-14
    vertex 293.8637992055529 483.1489143805412 2.0000000000000866
    vertex 294.17445937733277 483.38729231443807 2.0000000000000866
  endloop
endfacet
facet normal -0.3826834323650537 0.9238795325113018 0.0
  outer loop
    vertex 294.17445937733277 483.38729231443807 2.0000000000000866
    vertex 294.53623080967895 483.537142948195 8.706646514866633e-14
    vertex 294.17445937733277 483.38729231443807 8.706646514866633e-14
  endloop
endfacet
facet normal -0.3826834323650537 0.9238795325113018 0.0
  outer loop
    vertex 294.53623080967895 483.537142948195 8.706646514866633e-14
    vertex 294.17445937733277 483.38729231443807 2.0000000000000866
    vertex 294.53623080967895 483.537142948195 2.0000000000000866
  endloop
endfacet
facet normal -0.13052619222009934 0.9914448613738042 1.083593268890998e-18
  outer loop
    vertex 294.53623080967895 483.537142948195 2.0000000000000866
    vertex 294.92445937733277 483.58825420876144 8.706646514866633e-14
    vertex 294.53623080967895 483.537142948195 8.706646514866633e-14
  endloop
endfacet
facet normal -0.13052619222009934 0.9914448613738042 1.083593268890998e-18
  outer loop
    vertex 294.92445937733277 483.58825420876144 8.706646514866633e-14
    vertex 294.53623080967895 483.537142948195 2.0000000000000866
    vertex 294.92445937733277 483.58825420876144 2.0000000000000866
  endloop
endfacet
facet normal -0.13052619222009934 -0.9914448613738042 -3.958307657397286e-30
  outer loop
    vertex 294.92445937733277 462.08825420876155 2.0000000000000866
    vertex 294.53623080967895 462.13936546932797 8.724271305382558e-14
    vertex 294.92445937733277 462.08825420876155 8.724271305382558e-14
  endloop
endfacet
facet normal -0.13052619222009934 -0.9914448613738042 -3.958307657397286e-30
  outer loop
    vertex 294.53623080967895 462.13936546932797 8.724271305382558e-14
    vertex 294.92445937733277 462.08825420876155 2.0000000000000866
    vertex 294.53623080967895 462.13936546932797 2.0000000000000866
  endloop
endfacet
facet normal -0.3826834323650537 -0.9238795325113018 -0.0
  outer loop
    vertex 294.53623080967895 462.13936546932797 2.0000000000000866
    vertex 294.17445937733277 462.28921610308487 8.724271305382558e-14
    vertex 294.53623080967895 462.13936546932797 8.724271305382558e-14
  endloop
endfacet
facet normal -0.3826834323650537 -0.9238795325113018 -0.0
  outer loop
    vertex 294.17445937733277 462.28921610308487 8.724271305382558e-14
    vertex 294.53623080967895 462.13936546932797 2.0000000000000866
    vertex 294.17445937733277 462.28921610308487 2.0000000000000866
  endloop
endfacet
facet normal -0.6087614290087716 -0.7933533402911962 -3.154456564976605e-30
  outer loop
    vertex 294.17445937733277 462.28921610308487 2.0000000000000866
    vertex 293.8637992055529 462.5275940369818 8.724271305382558e-14
    vertex 294.17445937733277 462.28921610308487 8.724271305382558e-14
  endloop
endfacet
facet normal -0.6087614290087716 -0.7933533402911962 -3.154456564976605e-30
  outer loop
    vertex 293.8637992055529 462.5275940369818 8.724271305382558e-14
    vertex 294.17445937733277 462.28921610308487 2.0000000000000866
    vertex 293.8637992055529 462.5275940369818 2.0000000000000866
  endloop
endfacet
endsolid LED Numbers
