solid LED Numbers
facet normal 0.0 0.0 1.0
  outer loop
    vertex 211.38548712225517 455.00055192681236 18.899999999999967
    vertex 211.38548712225517 473.50055192681214 18.899999999999967
    vertex 202.13548712225514 464.25055192681236 18.899999999999967
  endloop
endfacet
facet normal 0.0 0.0 1.0
  outer loop
    vertex 211.38548712225517 473.50055192681214 18.899999999999967
    vertex 211.38548712225517 455.00055192681236 18.899999999999967
    vertex 248.69309724483426 455.00055192681236 18.899999999999967
  endloop
endfacet
facet normal 0.0 0.0 1.0
  outer loop
    vertex 211.38548712225517 473.50055192681214 18.899999999999967
    vertex 248.69309724483426 455.00055192681236 18.899999999999967
    vertex 248.69309724483426 473.50055192681214 18.899999999999967
  endloop
endfacet
facet normal 0.0 0.0 1.0
  outer loop
    vertex 248.69309724483426 473.50055192681214 18.899999999999967
    vertex 248.69309724483426 455.00055192681236 18.899999999999967
    vertex 257.94309724483435 464.25055192681236 18.899999999999967
  endloop
endfacet
facet normal -1.9628057152062544e-15 1.0 0.0
  outer loop
    vertex 211.38548712225517 455.00055192681236 19.999999999999964
    vertex 248.69309724483426 455.00055192681236 18.899999999999967
    vertex 211.38548712225517 455.00055192681236 18.899999999999967
  endloop
endfacet
facet normal -1.9628057152062544e-15 1.0 0.0
  outer loop
    vertex 248.69309724483426 455.00055192681236 18.899999999999967
    vertex 211.38548712225517 455.00055192681236 19.999999999999964
    vertex 248.69309724483426 455.00055192681236 19.999999999999964
  endloop
endfacet
facet normal 0.7071067811865488 0.7071067811865464 0.0
  outer loop
    vertex 202.13548712225514 464.25055192681236 18.899999999999967
    vertex 211.38548712225517 455.00055192681236 19.999999999999964
    vertex 211.38548712225517 455.00055192681236 18.899999999999967
  endloop
endfacet
facet normal 0.7071067811865488 0.7071067811865464 0.0
  outer loop
    vertex 211.38548712225517 455.00055192681236 19.999999999999964
    vertex 202.13548712225514 464.25055192681236 18.899999999999967
    vertex 202.13548712225514 464.25055192681236 19.999999999999964
  endloop
endfacet
facet normal 0.7071067811865404 -0.7071067811865548 0.0
  outer loop
    vertex 211.38548712225517 473.50055192681214 19.999999999999964
    vertex 202.13548712225514 464.25055192681236 18.899999999999967
    vertex 211.38548712225517 473.50055192681214 18.899999999999967
  endloop
endfacet
facet normal 0.7071067811865404 -0.7071067811865548 0.0
  outer loop
    vertex 202.13548712225514 464.25055192681236 18.899999999999967
    vertex 211.38548712225517 473.50055192681214 19.999999999999964
    vertex 202.13548712225514 464.25055192681236 19.999999999999964
  endloop
endfacet
facet normal -0.7071067811865395 -0.7071067811865558 0.0
  outer loop
    vertex 257.94309724483435 464.25055192681236 19.999999999999964
    vertex 248.69309724483426 473.50055192681214 18.899999999999967
    vertex 257.94309724483435 464.25055192681236 18.899999999999967
  endloop
endfacet
facet normal -0.7071067811865395 -0.7071067811865558 0.0
  outer loop
    vertex 248.69309724483426 473.50055192681214 18.899999999999967
    vertex 257.94309724483435 464.25055192681236 19.999999999999964
    vertex 248.69309724483426 473.50055192681214 19.999999999999964
  endloop
endfacet
facet normal 7.534153586779576e-16 -1.0 0.0
  outer loop
    vertex 248.69309724483426 473.50055192681214 19.999999999999964
    vertex 211.38548712225517 473.50055192681214 18.899999999999967
    vertex 248.69309724483426 473.50055192681214 18.899999999999967
  endloop
endfacet
facet normal 7.534153586779576e-16 -1.0 0.0
  outer loop
    vertex 211.38548712225517 473.50055192681214 18.899999999999967
    vertex 248.69309724483426 473.50055192681214 19.999999999999964
    vertex 211.38548712225517 473.50055192681214 19.999999999999964
  endloop
endfacet
facet normal -0.7071067811865437 0.7071067811865515 0.0
  outer loop
    vertex 248.69309724483426 455.00055192681236 19.999999999999964
    vertex 257.94309724483435 464.25055192681236 18.899999999999967
    vertex 248.69309724483426 455.00055192681236 18.899999999999967
  endloop
endfacet
facet normal -0.7071067811865437 0.7071067811865515 0.0
  outer loop
    vertex 257.94309724483435 464.25055192681236 18.899999999999967
    vertex 248.69309724483426 455.00055192681236 19.999999999999964
    vertex 257.94309724483435 464.25055192681236 19.999999999999964
  endloop
endfacet
facet normal 0.0 0.0 -1.0
  outer loop
    vertex 200.68659838282156 464.6387804944661 17.999999999999964
    vertex 200.6865983828216 463.86232335915855 17.999999999999964
    vertex 200.63548712225517 464.25055192681225 17.999999999999964
  endloop
endfacet
facet normal 0.0 0.0 -1.0
  outer loop
    vertex 200.6865983828216 463.86232335915855 17.999999999999964
    vertex 200.68659838282156 464.6387804944661 17.999999999999964
    vertex 200.83644901657848 465.00055192681236 17.999999999999964
  endloop
endfacet
facet normal 0.0 0.0 -1.0
  outer loop
    vertex 200.6865983828216 463.86232335915855 17.999999999999964
    vertex 200.83644901657848 465.00055192681236 17.999999999999964
    vertex 200.83644901657854 463.5005519268123 17.999999999999964
  endloop
endfacet
facet normal 0.0 0.0 -1.0
  outer loop
    vertex 200.83644901657854 463.5005519268123 17.999999999999964
    vertex 200.83644901657848 465.00055192681236 17.999999999999964
    vertex 201.07482695047534 465.31121209859214 17.999999999999964
  endloop
endfacet
facet normal 0.0 0.0 -1.0
  outer loop
    vertex 200.83644901657854 463.5005519268123 17.999999999999964
    vertex 201.07482695047534 465.31121209859214 17.999999999999964
    vertex 201.07482695047534 463.18989175503253 17.999999999999964
  endloop
endfacet
facet normal 0.0 0.0 -1.0
  outer loop
    vertex 201.07482695047534 463.18989175503253 17.999999999999964
    vertex 201.07482695047534 465.31121209859214 17.999999999999964
    vertex 210.3248269504753 474.561212098592 17.999999999999964
  endloop
endfacet
facet normal 0.0 0.0 -1.0
  outer loop
    vertex 201.07482695047534 463.18989175503253 17.999999999999964
    vertex 210.3248269504753 474.561212098592 17.999999999999964
    vertex 210.3248269504753 453.9398917550326 17.999999999999964
  endloop
endfacet
facet normal 0.0 0.0 -1.0
  outer loop
    vertex 210.3248269504753 453.9398917550326 17.999999999999964
    vertex 210.3248269504753 474.561212098592 17.999999999999964
    vertex 210.63548712225517 474.7995900324889 17.999999999999964
  endloop
endfacet
facet normal 0.0 0.0 -1.0
  outer loop
    vertex 210.3248269504753 453.9398917550326 17.999999999999964
    vertex 210.63548712225517 474.7995900324889 17.999999999999964
    vertex 210.63548712225517 453.7015138211357 17.999999999999964
  endloop
endfacet
facet normal 0.0 0.0 -1.0
  outer loop
    vertex 210.63548712225517 453.7015138211357 17.999999999999964
    vertex 210.63548712225517 474.7995900324889 17.999999999999964
    vertex 210.99725855460136 474.94944066624583 17.999999999999964
  endloop
endfacet
facet normal 0.0 0.0 -1.0
  outer loop
    vertex 210.63548712225517 453.7015138211357 17.999999999999964
    vertex 210.99725855460136 474.94944066624583 17.999999999999964
    vertex 210.99725855460136 453.5516631873788 17.999999999999964
  endloop
endfacet
facet normal 0.0 0.0 -1.0
  outer loop
    vertex 210.99725855460136 453.5516631873788 17.999999999999964
    vertex 210.99725855460136 474.94944066624583 17.999999999999964
    vertex 211.38548712225517 475.00055192681214 17.999999999999964
  endloop
endfacet
facet normal 0.0 0.0 -1.0
  outer loop
    vertex 210.99725855460136 453.5516631873788 17.999999999999964
    vertex 211.38548712225517 475.00055192681214 17.999999999999964
    vertex 211.38548712225517 453.50055192681236 17.999999999999964
  endloop
endfacet
facet normal 0.0 0.0 -1.0
  outer loop
    vertex 211.38548712225517 453.50055192681236 17.999999999999964
    vertex 211.38548712225517 475.00055192681214 17.999999999999964
    vertex 248.69309724483426 475.00055192681214 17.999999999999964
  endloop
endfacet
facet normal 0.0 0.0 -1.0
  outer loop
    vertex 211.38548712225517 453.50055192681236 17.999999999999964
    vertex 248.69309724483426 475.00055192681214 17.999999999999964
    vertex 248.69309724483426 453.5005519268124 17.999999999999964
  endloop
endfacet
facet normal 0.0 0.0 -1.0
  outer loop
    vertex 248.69309724483426 453.5005519268124 17.999999999999964
    vertex 248.69309724483426 475.00055192681214 17.999999999999964
    vertex 249.081325812488 474.94944066624583 17.999999999999964
  endloop
endfacet
facet normal 0.0 0.0 -1.0
  outer loop
    vertex 248.69309724483426 453.5005519268124 17.999999999999964
    vertex 249.081325812488 474.94944066624583 17.999999999999964
    vertex 249.081325812488 453.5516631873788 17.999999999999964
  endloop
endfacet
facet normal 0.0 0.0 -1.0
  outer loop
    vertex 249.081325812488 453.5516631873788 17.999999999999964
    vertex 249.081325812488 474.94944066624583 17.999999999999964
    vertex 249.44309724483426 474.7995900324889 17.999999999999964
  endloop
endfacet
facet normal 0.0 0.0 -1.0
  outer loop
    vertex 249.081325812488 453.5516631873788 17.999999999999964
    vertex 249.44309724483426 474.7995900324889 17.999999999999964
    vertex 249.44309724483418 453.7015138211357 17.999999999999964
  endloop
endfacet
facet normal 0.0 0.0 -1.0
  outer loop
    vertex 249.44309724483418 453.7015138211357 17.999999999999964
    vertex 249.44309724483426 474.7995900324889 17.999999999999964
    vertex 249.75375741661406 453.9398917550326 17.999999999999964
  endloop
endfacet
facet normal 0.0 0.0 -1.0
  outer loop
    vertex 249.75375741661406 453.9398917550326 17.999999999999964
    vertex 249.44309724483426 474.7995900324889 17.999999999999964
    vertex 249.75375741661406 474.561212098592 17.999999999999964
  endloop
endfacet
facet normal 0.0 0.0 -1.0
  outer loop
    vertex 249.75375741661406 453.9398917550326 17.999999999999964
    vertex 249.75375741661406 474.561212098592 17.999999999999964
    vertex 259.00375741661406 463.18989175503253 17.999999999999964
  endloop
endfacet
facet normal 0.0 0.0 -1.0
  outer loop
    vertex 259.00375741661406 463.18989175503253 17.999999999999964
    vertex 249.75375741661406 474.561212098592 17.999999999999964
    vertex 259.00375741661406 465.31121209859214 17.999999999999964
  endloop
endfacet
facet normal 0.0 0.0 -1.0
  outer loop
    vertex 259.00375741661406 463.18989175503253 17.999999999999964
    vertex 259.00375741661406 465.31121209859214 17.999999999999964
    vertex 259.2421353505109 465.00055192681236 17.999999999999964
  endloop
endfacet
facet normal 0.0 0.0 -1.0
  outer loop
    vertex 259.00375741661406 463.18989175503253 17.999999999999964
    vertex 259.2421353505109 465.00055192681236 17.999999999999964
    vertex 259.2421353505108 463.5005519268123 17.999999999999964
  endloop
endfacet
facet normal 0.0 0.0 -1.0
  outer loop
    vertex 259.2421353505108 463.5005519268123 17.999999999999964
    vertex 259.2421353505109 465.00055192681236 17.999999999999964
    vertex 259.39198598426793 463.86232335915855 17.999999999999964
  endloop
endfacet
facet normal 0.0 0.0 -1.0
  outer loop
    vertex 259.39198598426793 463.86232335915855 17.999999999999964
    vertex 259.2421353505109 465.00055192681236 17.999999999999964
    vertex 259.39198598426793 464.6387804944661 17.999999999999964
  endloop
endfacet
facet normal 0.0 0.0 -1.0
  outer loop
    vertex 259.39198598426793 463.86232335915855 17.999999999999964
    vertex 259.39198598426793 464.6387804944661 17.999999999999964
    vertex 259.44309724483423 464.25055192681225 17.999999999999964
  endloop
endfacet
facet normal 0.7071067811865472 -0.707106781186548 0.0
  outer loop
    vertex 259.00375741661406 463.18989175503253 19.999999999999964
    vertex 249.75375741661406 453.9398917550326 17.999999999999964
    vertex 259.00375741661406 463.18989175503253 17.999999999999964
  endloop
endfacet
facet normal 0.7071067811865472 -0.707106781186548 0.0
  outer loop
    vertex 249.75375741661406 453.9398917550326 17.999999999999964
    vertex 259.00375741661406 463.18989175503253 19.999999999999964
    vertex 249.75375741661406 453.9398917550326 19.999999999999964
  endloop
endfacet
facet normal -0.7071067811865488 -0.7071067811865464 -9.892195954480144e-17
  outer loop
    vertex 201.07482695047534 463.18989175503253 19.999999999999964
    vertex 210.3248269504753 453.9398917550326 17.999999999999964
    vertex 210.3248269504753 453.9398917550326 19.999999999999964
  endloop
endfacet
facet normal -0.7071067811865488 -0.7071067811865464 -9.892195954480144e-17
  outer loop
    vertex 210.3248269504753 453.9398917550326 17.999999999999964
    vertex 201.07482695047534 463.18989175503253 19.999999999999964
    vertex 201.07482695047534 463.18989175503253 17.999999999999964
  endloop
endfacet
facet normal -0.707106781186543 0.7071067811865522 -5.623062347422048e-29
  outer loop
    vertex 201.07482695047534 465.31121209859214 19.999999999999964
    vertex 210.3248269504753 474.561212098592 17.999999999999964
    vertex 201.07482695047534 465.31121209859214 17.999999999999964
  endloop
endfacet
facet normal -0.707106781186543 0.7071067811865522 -5.623062347422048e-29
  outer loop
    vertex 210.3248269504753 474.561212098592 17.999999999999964
    vertex 201.07482695047534 465.31121209859214 19.999999999999964
    vertex 210.3248269504753 474.561212098592 19.999999999999964
  endloop
endfacet
facet normal -7.534153752215699e-16 1.0 -3.180884385077427e-29
  outer loop
    vertex 211.38548712225517 475.00055192681214 19.999999999999964
    vertex 248.69309724483426 475.00055192681214 17.999999999999964
    vertex 211.38548712225517 475.00055192681214 17.999999999999964
  endloop
endfacet
facet normal -7.534153752215699e-16 1.0 -3.180884385077427e-29
  outer loop
    vertex 248.69309724483426 475.00055192681214 17.999999999999964
    vertex 211.38548712225517 475.00055192681214 19.999999999999964
    vertex 248.69309724483426 475.00055192681214 19.999999999999964
  endloop
endfacet
facet normal 0.7071067811865445 0.7071067811865507 0.0
  outer loop
    vertex 249.75375741661406 474.561212098592 19.999999999999964
    vertex 259.00375741661406 465.31121209859214 17.999999999999964
    vertex 249.75375741661406 474.561212098592 17.999999999999964
  endloop
endfacet
facet normal 0.7071067811865445 0.7071067811865507 0.0
  outer loop
    vertex 259.00375741661406 465.31121209859214 17.999999999999964
    vertex 249.75375741661406 474.561212098592 19.999999999999964
    vertex 259.00375741661406 465.31121209859214 19.999999999999964
  endloop
endfacet
facet normal 4.3815864249541255e-15 -1.0 0.0
  outer loop
    vertex 248.69309724483426 453.5005519268124 19.999999999999964
    vertex 211.38548712225517 453.50055192681236 17.999999999999964
    vertex 248.69309724483426 453.5005519268124 17.999999999999964
  endloop
endfacet
facet normal 4.3815864249541255e-15 -1.0 0.0
  outer loop
    vertex 211.38548712225517 453.50055192681236 17.999999999999964
    vertex 248.69309724483426 453.5005519268124 19.999999999999964
    vertex 211.38548712225517 453.50055192681236 19.999999999999964
  endloop
endfacet
facet normal -0.7933533402912654 -0.6087614290086812 -1.9363996861661035e-29
  outer loop
    vertex 200.83644901657854 463.5005519268123 19.999999999999964
    vertex 201.07482695047534 463.18989175503253 17.999999999999964
    vertex 201.07482695047534 463.18989175503253 19.999999999999964
  endloop
endfacet
facet normal -0.7933533402912654 -0.6087614290086812 -1.9363996861661035e-29
  outer loop
    vertex 201.07482695047534 463.18989175503253 17.999999999999964
    vertex 200.83644901657854 463.5005519268123 19.999999999999964
    vertex 200.83644901657854 463.5005519268123 17.999999999999964
  endloop
endfacet
facet normal -0.9238795325112846 -0.38268343236509483 2.0194963691597137e-18
  outer loop
    vertex 200.6865983828216 463.86232335915855 19.999999999999964
    vertex 200.83644901657854 463.5005519268123 17.999999999999964
    vertex 200.83644901657854 463.5005519268123 19.999999999999964
  endloop
endfacet
facet normal -0.9238795325112846 -0.38268343236509483 2.0194963691597137e-18
  outer loop
    vertex 200.83644901657854 463.5005519268123 17.999999999999964
    vertex 200.6865983828216 463.86232335915855 19.999999999999964
    vertex 200.6865983828216 463.86232335915855 17.999999999999964
  endloop
endfacet
facet normal -0.9914448613738055 -0.13052619222008946 4.15188679681908e-30
  outer loop
    vertex 200.63548712225517 464.25055192681225 19.999999999999964
    vertex 200.6865983828216 463.86232335915855 17.999999999999964
    vertex 200.6865983828216 463.86232335915855 19.999999999999964
  endloop
endfacet
facet normal -0.9914448613738055 -0.13052619222008946 4.15188679681908e-30
  outer loop
    vertex 200.6865983828216 463.86232335915855 17.999999999999964
    vertex 200.63548712225517 464.25055192681225 19.999999999999964
    vertex 200.63548712225517 464.25055192681225 17.999999999999964
  endloop
endfacet
facet normal -0.991444861373819 0.13052619221998674 -1.0835932668004943e-18
  outer loop
    vertex 200.68659838282156 464.6387804944661 19.999999999999964
    vertex 200.63548712225517 464.25055192681225 17.999999999999964
    vertex 200.63548712225517 464.25055192681225 19.999999999999964
  endloop
endfacet
facet normal -0.991444861373819 0.13052619221998674 -1.0835932668004943e-18
  outer loop
    vertex 200.63548712225517 464.25055192681225 17.999999999999964
    vertex 200.68659838282156 464.6387804944661 19.999999999999964
    vertex 200.68659838282156 464.6387804944661 17.999999999999964
  endloop
endfacet
facet normal -0.9238795325113082 0.38268343236503793 2.019496344253737e-18
  outer loop
    vertex 200.83644901657848 465.00055192681236 19.999999999999964
    vertex 200.68659838282156 464.6387804944661 17.999999999999964
    vertex 200.68659838282156 464.6387804944661 19.999999999999964
  endloop
endfacet
facet normal -0.9238795325113082 0.38268343236503793 2.019496344253737e-18
  outer loop
    vertex 200.68659838282156 464.6387804944661 17.999999999999964
    vertex 200.83644901657848 465.00055192681236 19.999999999999964
    vertex 200.83644901657848 465.00055192681236 17.999999999999964
  endloop
endfacet
facet normal -0.793353340291174 0.6087614290088006 -1.9363997613765445e-29
  outer loop
    vertex 201.07482695047534 465.31121209859214 19.999999999999964
    vertex 200.83644901657848 465.00055192681236 17.999999999999964
    vertex 200.83644901657848 465.00055192681236 19.999999999999964
  endloop
endfacet
facet normal -0.793353340291174 0.6087614290088006 -1.9363997613765445e-29
  outer loop
    vertex 200.83644901657848 465.00055192681236 17.999999999999964
    vertex 201.07482695047534 465.31121209859214 19.999999999999964
    vertex 201.07482695047534 465.31121209859214 17.999999999999964
  endloop
endfacet
facet normal 0.0 0.0 1.0
  outer loop
    vertex 200.6865983828216 463.86232335915855 19.999999999999964
    vertex 200.68659838282156 464.6387804944661 19.999999999999964
    vertex 200.63548712225517 464.25055192681225 19.999999999999964
  endloop
endfacet
facet normal 0.0 0.0 1.0
  outer loop
    vertex 200.68659838282156 464.6387804944661 19.999999999999964
    vertex 200.6865983828216 463.86232335915855 19.999999999999964
    vertex 200.83644901657848 465.00055192681236 19.999999999999964
  endloop
endfacet
facet normal 0.0 0.0 1.0
  outer loop
    vertex 200.83644901657848 465.00055192681236 19.999999999999964
    vertex 200.6865983828216 463.86232335915855 19.999999999999964
    vertex 200.83644901657854 463.5005519268123 19.999999999999964
  endloop
endfacet
facet normal 0.0 0.0 1.0
  outer loop
    vertex 200.83644901657848 465.00055192681236 19.999999999999964
    vertex 200.83644901657854 463.5005519268123 19.999999999999964
    vertex 201.07482695047534 465.31121209859214 19.999999999999964
  endloop
endfacet
facet normal 0.0 0.0 1.0
  outer loop
    vertex 201.07482695047534 465.31121209859214 19.999999999999964
    vertex 200.83644901657854 463.5005519268123 19.999999999999964
    vertex 201.07482695047534 463.18989175503253 19.999999999999964
  endloop
endfacet
facet normal 0.0 0.0 1.0
  outer loop
    vertex 201.07482695047534 465.31121209859214 19.999999999999964
    vertex 201.07482695047534 463.18989175503253 19.999999999999964
    vertex 210.3248269504753 453.9398917550326 19.999999999999964
  endloop
endfacet
facet normal 0.0 0.0 1.0
  outer loop
    vertex 201.07482695047534 465.31121209859214 19.999999999999964
    vertex 210.3248269504753 453.9398917550326 19.999999999999964
    vertex 202.13548712225514 464.25055192681236 19.999999999999964
  endloop
endfacet
facet normal 0.0 0.0 1.0
  outer loop
    vertex 202.13548712225514 464.25055192681236 19.999999999999964
    vertex 210.3248269504753 453.9398917550326 19.999999999999964
    vertex 211.38548712225517 455.00055192681236 19.999999999999964
  endloop
endfacet
facet normal 0.0 0.0 1.0
  outer loop
    vertex 211.38548712225517 455.00055192681236 19.999999999999964
    vertex 210.3248269504753 453.9398917550326 19.999999999999964
    vertex 210.63548712225517 453.7015138211357 19.999999999999964
  endloop
endfacet
facet normal 0.0 0.0 1.0
  outer loop
    vertex 211.38548712225517 455.00055192681236 19.999999999999964
    vertex 210.63548712225517 453.7015138211357 19.999999999999964
    vertex 210.99725855460136 453.5516631873788 19.999999999999964
  endloop
endfacet
facet normal 0.0 0.0 1.0
  outer loop
    vertex 211.38548712225517 455.00055192681236 19.999999999999964
    vertex 210.99725855460136 453.5516631873788 19.999999999999964
    vertex 211.38548712225517 453.50055192681236 19.999999999999964
  endloop
endfacet
facet normal 0.0 0.0 1.0
  outer loop
    vertex 211.38548712225517 455.00055192681236 19.999999999999964
    vertex 211.38548712225517 453.50055192681236 19.999999999999964
    vertex 248.69309724483426 455.00055192681236 19.999999999999964
  endloop
endfacet
facet normal 0.0 0.0 1.0
  outer loop
    vertex 248.69309724483426 455.00055192681236 19.999999999999964
    vertex 211.38548712225517 453.50055192681236 19.999999999999964
    vertex 248.69309724483426 453.5005519268124 19.999999999999964
  endloop
endfacet
facet normal 0.0 0.0 1.0
  outer loop
    vertex 248.69309724483426 455.00055192681236 19.999999999999964
    vertex 248.69309724483426 453.5005519268124 19.999999999999964
    vertex 257.94309724483435 464.25055192681236 19.999999999999964
  endloop
endfacet
facet normal 0.0 0.0 1.0
  outer loop
    vertex 257.94309724483435 464.25055192681236 19.999999999999964
    vertex 248.69309724483426 453.5005519268124 19.999999999999964
    vertex 249.081325812488 453.5516631873788 19.999999999999964
  endloop
endfacet
facet normal 0.0 0.0 1.0
  outer loop
    vertex 257.94309724483435 464.25055192681236 19.999999999999964
    vertex 249.081325812488 453.5516631873788 19.999999999999964
    vertex 249.44309724483418 453.7015138211357 19.999999999999964
  endloop
endfacet
facet normal 0.0 0.0 1.0
  outer loop
    vertex 257.94309724483435 464.25055192681236 19.999999999999964
    vertex 249.44309724483418 453.7015138211357 19.999999999999964
    vertex 249.75375741661406 453.9398917550326 19.999999999999964
  endloop
endfacet
facet normal 0.0 0.0 1.0
  outer loop
    vertex 257.94309724483435 464.25055192681236 19.999999999999964
    vertex 249.75375741661406 453.9398917550326 19.999999999999964
    vertex 259.00375741661406 463.18989175503253 19.999999999999964
  endloop
endfacet
facet normal 0.0 0.0 1.0
  outer loop
    vertex 202.13548712225514 464.25055192681236 19.999999999999964
    vertex 210.3248269504753 474.561212098592 19.999999999999964
    vertex 201.07482695047534 465.31121209859214 19.999999999999964
  endloop
endfacet
facet normal 0.0 0.0 1.0
  outer loop
    vertex 210.3248269504753 474.561212098592 19.999999999999964
    vertex 202.13548712225514 464.25055192681236 19.999999999999964
    vertex 211.38548712225517 473.50055192681214 19.999999999999964
  endloop
endfacet
facet normal 0.0 0.0 1.0
  outer loop
    vertex 210.3248269504753 474.561212098592 19.999999999999964
    vertex 211.38548712225517 473.50055192681214 19.999999999999964
    vertex 210.63548712225517 474.7995900324889 19.999999999999964
  endloop
endfacet
facet normal 0.0 0.0 1.0
  outer loop
    vertex 210.63548712225517 474.7995900324889 19.999999999999964
    vertex 211.38548712225517 473.50055192681214 19.999999999999964
    vertex 210.99725855460136 474.94944066624583 19.999999999999964
  endloop
endfacet
facet normal 0.0 0.0 1.0
  outer loop
    vertex 210.99725855460136 474.94944066624583 19.999999999999964
    vertex 211.38548712225517 473.50055192681214 19.999999999999964
    vertex 211.38548712225517 475.00055192681214 19.999999999999964
  endloop
endfacet
facet normal 0.0 0.0 1.0
  outer loop
    vertex 211.38548712225517 475.00055192681214 19.999999999999964
    vertex 211.38548712225517 473.50055192681214 19.999999999999964
    vertex 248.69309724483426 473.50055192681214 19.999999999999964
  endloop
endfacet
facet normal 0.0 0.0 1.0
  outer loop
    vertex 211.38548712225517 475.00055192681214 19.999999999999964
    vertex 248.69309724483426 473.50055192681214 19.999999999999964
    vertex 248.69309724483426 475.00055192681214 19.999999999999964
  endloop
endfacet
facet normal 0.0 0.0 1.0
  outer loop
    vertex 248.69309724483426 475.00055192681214 19.999999999999964
    vertex 248.69309724483426 473.50055192681214 19.999999999999964
    vertex 257.94309724483435 464.25055192681236 19.999999999999964
  endloop
endfacet
facet normal 0.0 0.0 1.0
  outer loop
    vertex 248.69309724483426 475.00055192681214 19.999999999999964
    vertex 257.94309724483435 464.25055192681236 19.999999999999964
    vertex 249.081325812488 474.94944066624583 19.999999999999964
  endloop
endfacet
facet normal 0.0 0.0 1.0
  outer loop
    vertex 249.081325812488 474.94944066624583 19.999999999999964
    vertex 257.94309724483435 464.25055192681236 19.999999999999964
    vertex 249.44309724483426 474.7995900324889 19.999999999999964
  endloop
endfacet
facet normal 0.0 0.0 1.0
  outer loop
    vertex 249.44309724483426 474.7995900324889 19.999999999999964
    vertex 257.94309724483435 464.25055192681236 19.999999999999964
    vertex 249.75375741661406 474.561212098592 19.999999999999964
  endloop
endfacet
facet normal 0.0 0.0 1.0
  outer loop
    vertex 249.75375741661406 474.561212098592 19.999999999999964
    vertex 257.94309724483435 464.25055192681236 19.999999999999964
    vertex 259.00375741661406 465.31121209859214 19.999999999999964
  endloop
endfacet
facet normal 0.0 0.0 1.0
  outer loop
    vertex 259.00375741661406 465.31121209859214 19.999999999999964
    vertex 257.94309724483435 464.25055192681236 19.999999999999964
    vertex 259.00375741661406 463.18989175503253 19.999999999999964
  endloop
endfacet
facet normal 0.0 0.0 1.0
  outer loop
    vertex 259.00375741661406 465.31121209859214 19.999999999999964
    vertex 259.00375741661406 463.18989175503253 19.999999999999964
    vertex 259.2421353505108 463.5005519268123 19.999999999999964
  endloop
endfacet
facet normal 0.0 0.0 1.0
  outer loop
    vertex 259.00375741661406 465.31121209859214 19.999999999999964
    vertex 259.2421353505108 463.5005519268123 19.999999999999964
    vertex 259.2421353505109 465.00055192681236 19.999999999999964
  endloop
endfacet
facet normal 0.0 0.0 1.0
  outer loop
    vertex 259.2421353505109 465.00055192681236 19.999999999999964
    vertex 259.2421353505108 463.5005519268123 19.999999999999964
    vertex 259.39198598426793 463.86232335915855 19.999999999999964
  endloop
endfacet
facet normal 0.0 0.0 1.0
  outer loop
    vertex 259.2421353505109 465.00055192681236 19.999999999999964
    vertex 259.39198598426793 463.86232335915855 19.999999999999964
    vertex 259.39198598426793 464.6387804944661 19.999999999999964
  endloop
endfacet
facet normal 0.0 0.0 1.0
  outer loop
    vertex 259.39198598426793 464.6387804944661 19.999999999999964
    vertex 259.39198598426793 463.86232335915855 19.999999999999964
    vertex 259.44309724483423 464.25055192681225 19.999999999999964
  endloop
endfacet
facet normal 0.7933533402912097 0.6087614290087537 -1.9363996861663344e-29
  outer loop
    vertex 259.00375741661406 465.31121209859214 17.999999999999964
    vertex 259.2421353505109 465.00055192681236 19.999999999999964
    vertex 259.2421353505109 465.00055192681236 17.999999999999964
  endloop
endfacet
facet normal 0.7933533402912097 0.6087614290087537 -1.9363996861663344e-29
  outer loop
    vertex 259.2421353505109 465.00055192681236 19.999999999999964
    vertex 259.00375741661406 465.31121209859214 17.999999999999964
    vertex 259.00375741661406 465.31121209859214 19.999999999999964
  endloop
endfacet
facet normal 0.9238795325112236 0.38268343236524244 1.2172717106464476e-29
  outer loop
    vertex 259.2421353505109 465.00055192681236 17.999999999999964
    vertex 259.39198598426793 464.6387804944661 19.999999999999964
    vertex 259.39198598426793 464.6387804944661 17.999999999999964
  endloop
endfacet
facet normal 0.9238795325112236 0.38268343236524244 1.2172717106464476e-29
  outer loop
    vertex 259.39198598426793 464.6387804944661 19.999999999999964
    vertex 259.2421353505109 465.00055192681236 17.999999999999964
    vertex 259.2421353505109 465.00055192681236 19.999999999999964
  endloop
endfacet
facet normal 0.9914448613738411 0.1305261922198182 0.0
  outer loop
    vertex 259.39198598426793 464.6387804944661 17.999999999999964
    vertex 259.44309724483423 464.25055192681225 19.999999999999964
    vertex 259.44309724483423 464.25055192681225 17.999999999999964
  endloop
endfacet
facet normal 0.9914448613738411 0.1305261922198182 0.0
  outer loop
    vertex 259.44309724483423 464.25055192681225 19.999999999999964
    vertex 259.39198598426793 464.6387804944661 17.999999999999964
    vertex 259.39198598426793 464.6387804944661 19.999999999999964
  endloop
endfacet
facet normal 0.991444861373843 -0.13052619221980494 -1.0835932667415992e-18
  outer loop
    vertex 259.44309724483423 464.25055192681225 17.999999999999964
    vertex 259.39198598426793 463.86232335915855 19.999999999999964
    vertex 259.39198598426793 463.86232335915855 17.999999999999964
  endloop
endfacet
facet normal 0.991444861373843 -0.13052619221980494 -1.0835932667415992e-18
  outer loop
    vertex 259.39198598426793 463.86232335915855 19.999999999999964
    vertex 259.44309724483423 464.25055192681225 17.999999999999964
    vertex 259.44309724483423 464.25055192681225 19.999999999999964
  endloop
endfacet
facet normal 0.9238795325111656 -0.3826834323653822 4.1560257587490285e-29
  outer loop
    vertex 259.39198598426793 463.86232335915855 17.999999999999964
    vertex 259.2421353505108 463.5005519268123 19.999999999999964
    vertex 259.2421353505108 463.5005519268123 17.999999999999964
  endloop
endfacet
facet normal 0.9238795325111656 -0.3826834323653822 4.1560257587490285e-29
  outer loop
    vertex 259.2421353505108 463.5005519268123 19.999999999999964
    vertex 259.39198598426793 463.86232335915855 17.999999999999964
    vertex 259.39198598426793 463.86232335915855 19.999999999999964
  endloop
endfacet
facet normal 0.7933533402912296 -0.608761429008728 1.936399761376314e-29
  outer loop
    vertex 259.2421353505108 463.5005519268123 17.999999999999964
    vertex 259.00375741661406 463.18989175503253 19.999999999999964
    vertex 259.00375741661406 463.18989175503253 17.999999999999964
  endloop
endfacet
facet normal 0.7933533402912296 -0.608761429008728 1.936399761376314e-29
  outer loop
    vertex 259.00375741661406 463.18989175503253 19.999999999999964
    vertex 259.2421353505108 463.5005519268123 17.999999999999964
    vertex 259.2421353505108 463.5005519268123 19.999999999999964
  endloop
endfacet
facet normal 0.13052619221986292 -0.9914448613738353 4.1518867968118736e-30
  outer loop
    vertex 249.081325812488 453.5516631873788 19.999999999999964
    vertex 248.69309724483426 453.5005519268124 17.999999999999964
    vertex 249.081325812488 453.5516631873788 17.999999999999964
  endloop
endfacet
facet normal 0.13052619221986292 -0.9914448613738353 4.1518867968118736e-30
  outer loop
    vertex 248.69309724483426 453.5005519268124 17.999999999999964
    vertex 249.081325812488 453.5516631873788 19.999999999999964
    vertex 248.69309724483426 453.5005519268124 19.999999999999964
  endloop
endfacet
facet normal 0.6087614290087706 -0.7933533402911968 -2.5235652808366408e-29
  outer loop
    vertex 249.75375741661406 453.9398917550326 19.999999999999964
    vertex 249.44309724483418 453.7015138211357 17.999999999999964
    vertex 249.75375741661406 453.9398917550326 17.999999999999964
  endloop
endfacet
facet normal 0.6087614290087706 -0.7933533402911968 -2.5235652808366408e-29
  outer loop
    vertex 249.44309724483418 453.7015138211357 17.999999999999964
    vertex 249.75375741661406 453.9398917550326 19.999999999999964
    vertex 249.44309724483418 453.7015138211357 19.999999999999964
  endloop
endfacet
facet normal 0.3826834323650457 -0.9238795325113051 -7.094779704239978e-29
  outer loop
    vertex 249.44309724483418 453.7015138211357 19.999999999999964
    vertex 249.081325812488 453.5516631873788 17.999999999999964
    vertex 249.44309724483418 453.7015138211357 17.999999999999964
  endloop
endfacet
facet normal 0.3826834323650457 -0.9238795325113051 -7.094779704239978e-29
  outer loop
    vertex 249.081325812488 453.5516631873788 17.999999999999964
    vertex 249.44309724483418 453.7015138211357 19.999999999999964
    vertex 249.081325812488 453.5516631873788 19.999999999999964
  endloop
endfacet
facet normal 0.6087614290087449 0.7933533402912166 -3.468361632872944e-18
  outer loop
    vertex 249.44309724483426 474.7995900324889 19.999999999999964
    vertex 249.75375741661406 474.561212098592 17.999999999999964
    vertex 249.44309724483426 474.7995900324889 17.999999999999964
  endloop
endfacet
facet normal 0.6087614290087449 0.7933533402912166 -3.468361632872944e-18
  outer loop
    vertex 249.75375741661406 474.561212098592 17.999999999999964
    vertex 249.44309724483426 474.7995900324889 19.999999999999964
    vertex 249.75375741661406 474.561212098592 19.999999999999964
  endloop
endfacet
facet normal 0.13052619222003148 0.9914448613738132 1.0835932668046399e-18
  outer loop
    vertex 248.69309724483426 475.00055192681214 19.999999999999964
    vertex 249.081325812488 474.94944066624583 17.999999999999964
    vertex 248.69309724483426 475.00055192681214 17.999999999999964
  endloop
endfacet
facet normal 0.13052619222003148 0.9914448613738132 1.0835932668046399e-18
  outer loop
    vertex 249.081325812488 474.94944066624583 17.999999999999964
    vertex 248.69309724483426 475.00055192681214 19.999999999999964
    vertex 249.081325812488 474.94944066624583 19.999999999999964
  endloop
endfacet
facet normal 0.38268343236504637 0.9238795325113047 5.877507921037216e-29
  outer loop
    vertex 249.081325812488 474.94944066624583 19.999999999999964
    vertex 249.44309724483426 474.7995900324889 17.999999999999964
    vertex 249.081325812488 474.94944066624583 17.999999999999964
  endloop
endfacet
facet normal 0.38268343236504637 0.9238795325113047 5.877507921037216e-29
  outer loop
    vertex 249.44309724483426 474.7995900324889 17.999999999999964
    vertex 249.081325812488 474.94944066624583 19.999999999999964
    vertex 249.44309724483426 474.7995900324889 19.999999999999964
  endloop
endfacet
facet normal -0.6087614290088262 0.7933533402911542 -2.523565280836505e-29
  outer loop
    vertex 210.3248269504753 474.561212098592 19.999999999999964
    vertex 210.63548712225517 474.7995900324889 17.999999999999964
    vertex 210.3248269504753 474.561212098592 17.999999999999964
  endloop
endfacet
facet normal -0.6087614290088262 0.7933533402911542 -2.523565280836505e-29
  outer loop
    vertex 210.63548712225517 474.7995900324889 17.999999999999964
    vertex 210.3248269504753 474.561212098592 19.999999999999964
    vertex 210.63548712225517 474.7995900324889 19.999999999999964
  endloop
endfacet
facet normal -0.38268343236502533 0.9238795325113134 -6.0863585532287854e-30
  outer loop
    vertex 210.63548712225517 474.7995900324889 19.999999999999964
    vertex 210.99725855460136 474.94944066624583 17.999999999999964
    vertex 210.63548712225517 474.7995900324889 17.999999999999964
  endloop
endfacet
facet normal -0.38268343236502533 0.9238795325113134 -6.0863585532287854e-30
  outer loop
    vertex 210.99725855460136 474.94944066624583 17.999999999999964
    vertex 210.63548712225517 474.7995900324889 19.999999999999964
    vertex 210.99725855460136 474.94944066624583 19.999999999999964
  endloop
endfacet
facet normal -0.13052619221995385 0.9914448613738233 -1.0835932709911447e-18
  outer loop
    vertex 210.99725855460136 474.94944066624583 19.999999999999964
    vertex 211.38548712225517 475.00055192681214 17.999999999999964
    vertex 210.99725855460136 474.94944066624583 17.999999999999964
  endloop
endfacet
facet normal -0.13052619221995385 0.9914448613738233 -1.0835932709911447e-18
  outer loop
    vertex 211.38548712225517 475.00055192681214 17.999999999999964
    vertex 210.99725855460136 474.94944066624583 19.999999999999964
    vertex 211.38548712225517 475.00055192681214 19.999999999999964
  endloop
endfacet
facet normal -0.13052619222023562 -0.9914448613737863 1.0835932667436131e-18
  outer loop
    vertex 211.38548712225517 453.50055192681236 19.999999999999964
    vertex 210.99725855460136 453.5516631873788 17.999999999999964
    vertex 211.38548712225517 453.50055192681236 17.999999999999964
  endloop
endfacet
facet normal -0.13052619222023562 -0.9914448613737863 1.0835932667436131e-18
  outer loop
    vertex 210.99725855460136 453.5516631873788 17.999999999999964
    vertex 211.38548712225517 453.50055192681236 19.999999999999964
    vertex 210.99725855460136 453.5516631873788 19.999999999999964
  endloop
endfacet
facet normal -0.3826834323650871 -0.9238795325112878 0.0
  outer loop
    vertex 210.99725855460136 453.5516631873788 19.999999999999964
    vertex 210.63548712225517 453.7015138211357 17.999999999999964
    vertex 210.99725855460136 453.5516631873788 17.999999999999964
  endloop
endfacet
facet normal -0.3826834323650871 -0.9238795325112878 0.0
  outer loop
    vertex 210.63548712225517 453.7015138211357 17.999999999999964
    vertex 210.99725855460136 453.5516631873788 19.999999999999964
    vertex 210.63548712225517 453.7015138211357 19.999999999999964
  endloop
endfacet
facet normal -0.6087614290086445 -0.7933533402912937 9.681998806880242e-30
  outer loop
    vertex 210.63548712225517 453.7015138211357 19.999999999999964
    vertex 210.3248269504753 453.9398917550326 17.999999999999964
    vertex 210.63548712225517 453.7015138211357 17.999999999999964
  endloop
endfacet
facet normal -0.6087614290086445 -0.7933533402912937 9.681998806880242e-30
  outer loop
    vertex 210.3248269504753 453.9398917550326 17.999999999999964
    vertex 210.63548712225517 453.7015138211357 19.999999999999964
    vertex 210.3248269504753 453.9398917550326 19.999999999999964
  endloop
endfacet
endsolid LED Numbers
