solid LED Numbers
facet normal 1.0 0.0 0.0
  outer loop
    vertex 308.25000000001535 196.75000000013713 -13.500000000041169
    vertex 308.25000000001535 200.25000000012184 -12.000000000005544
    vertex 308.25000000001535 196.75000000012184 -12.000000000041174
  endloop
endfacet
facet normal 1.0 0.0 0.0
  outer loop
    vertex 308.25000000001535 200.25000000012184 -12.000000000005544
    vertex 308.25000000001535 196.75000000013713 -13.500000000041169
    vertex 308.25000000001535 200.25000000013713 -13.500000000005542
  endloop
endfacet
facet normal 1.0 0.0 0.0
  outer loop
    vertex 433.25000000001546 196.75000000013713 -13.500000000041169
    vertex 433.25000000001546 200.25000000012184 -12.000000000005544
    vertex 433.25000000001546 196.75000000012184 -12.000000000041174
  endloop
endfacet
facet normal 1.0 0.0 0.0
  outer loop
    vertex 433.25000000001546 200.25000000012184 -12.000000000005544
    vertex 433.25000000001546 196.75000000013713 -13.500000000041169
    vertex 433.25000000001546 200.25000000013713 -13.500000000005542
  endloop
endfacet
facet normal -1.0 0.0 0.0
  outer loop
    vertex 441.75000000001216 200.25000000013713 -13.500000000005542
    vertex 441.75000000001216 196.75000000012184 -12.000000000041174
    vertex 441.75000000001216 200.25000000012184 -12.000000000005544
  endloop
endfacet
facet normal -1.0 0.0 0.0
  outer loop
    vertex 441.75000000001216 196.75000000012184 -12.000000000041174
    vertex 441.75000000001216 200.25000000013713 -13.500000000005542
    vertex 441.75000000001216 196.75000000013713 -13.500000000041169
  endloop
endfacet
facet normal -1.0 0.0 0.0
  outer loop
    vertex 316.75000000001205 200.25000000013713 -13.500000000005542
    vertex 316.75000000001205 196.75000000012184 -12.000000000041174
    vertex 316.75000000001205 200.25000000012184 -12.000000000005544
  endloop
endfacet
facet normal -1.0 0.0 0.0
  outer loop
    vertex 316.75000000001205 196.75000000012184 -12.000000000041174
    vertex 316.75000000001205 200.25000000013713 -13.500000000005542
    vertex 316.75000000001205 196.75000000013713 -13.500000000041169
  endloop
endfacet
facet normal -3.342182497838634e-15 -1.0179893719935698e-11 1.0
  outer loop
    vertex 308.25000000001535 200.25000000012184 -12.000000000005544
    vertex 301.5000000000236 196.75000000012196 -12.000000000041195
    vertex 308.25000000001535 196.75000000012184 -12.000000000041174
  endloop
endfacet
facet normal -3.342182497838634e-15 -1.0179893719935698e-11 1.0
  outer loop
    vertex 301.5000000000236 196.75000000012196 -12.000000000041195
    vertex 308.25000000001535 200.25000000012184 -12.000000000005544
    vertex 301.5000000000236 200.25000000012193 -12.000000000005565
  endloop
endfacet
facet normal -1.120345393519029e-14 -1.0 -1.0178204165823774e-11
  outer loop
    vertex 308.25000000001535 196.75000000013713 -13.500000000041169
    vertex 300.0000000000236 196.75000000012196 -12.000000000041208
    vertex 300.0000000000208 196.75000000013722 -13.500000000041203
  endloop
endfacet
facet normal -1.120345393519029e-14 -1.0 -1.0178204165823774e-11
  outer loop
    vertex 300.0000000000236 196.75000000012196 -12.000000000041208
    vertex 308.25000000001535 196.75000000013713 -13.500000000041169
    vertex 301.5000000000236 196.75000000012196 -12.000000000041195
  endloop
endfacet
facet normal -1.120345393519029e-14 -1.0 -1.0178204165823774e-11
  outer loop
    vertex 301.5000000000236 196.75000000012196 -12.000000000041195
    vertex 308.25000000001535 196.75000000013713 -13.500000000041169
    vertex 308.25000000001535 196.75000000012184 -12.000000000041174
  endloop
endfacet
facet normal 0.0 -1.0179893719935698e-11 1.0
  outer loop
    vertex 433.25000000001546 200.25000000012184 -12.000000000005544
    vertex 379.2500000000225 196.75000000012184 -12.000000000041174
    vertex 433.25000000001546 196.75000000012184 -12.000000000041174
  endloop
endfacet
facet normal 0.0 -1.0179893719935698e-11 1.0
  outer loop
    vertex 379.2500000000225 196.75000000012184 -12.000000000041174
    vertex 433.25000000001546 200.25000000012184 -12.000000000005544
    vertex 379.2500000000225 200.25000000012184 -12.000000000005544
  endloop
endfacet
facet normal 0.0 1.0 1.0179893719935698e-11
  outer loop
    vertex 387.7500000000258 201.74999999988262 11.500000000009774
    vertex 362.25000000002245 201.75000000013713 -13.49999999999027
    vertex 362.25000000002245 201.74999999988262 11.500000000009774
  endloop
endfacet
facet normal 0.0 1.0 1.0179893719935698e-11
  outer loop
    vertex 362.25000000002245 201.75000000013713 -13.49999999999027
    vertex 387.7500000000258 201.74999999988262 11.500000000009774
    vertex 387.7500000000258 201.75000000013713 -13.49999999999027
  endloop
endfacet
facet normal 0.0 -1.0 -1.0179893719935698e-11
  outer loop
    vertex 370.75000000002575 196.75000000013713 -13.500000000041169
    vertex 316.75000000001205 196.75000000012184 -12.000000000041174
    vertex 316.75000000001205 196.75000000013713 -13.500000000041169
  endloop
endfacet
facet normal 0.0 -1.0 -1.0179893719935698e-11
  outer loop
    vertex 316.75000000001205 196.75000000012184 -12.000000000041174
    vertex 370.75000000002575 196.75000000013713 -13.500000000041169
    vertex 370.75000000002575 196.75000000012184 -12.000000000041174
  endloop
endfacet
facet normal -1.0 0.0 0.0
  outer loop
    vertex 379.2500000000225 200.25000000013713 -13.500000000005542
    vertex 379.2500000000225 196.75000000012184 -12.000000000041174
    vertex 379.2500000000225 200.25000000012184 -12.000000000005544
  endloop
endfacet
facet normal -1.0 0.0 0.0
  outer loop
    vertex 379.2500000000225 196.75000000012184 -12.000000000041174
    vertex 379.2500000000225 200.25000000013713 -13.500000000005542
    vertex 379.2500000000225 196.75000000013713 -13.500000000041169
  endloop
endfacet
facet normal 0.0 -1.0 -1.0179893719935698e-11
  outer loop
    vertex 433.25000000001546 196.75000000013713 -13.500000000041169
    vertex 379.2500000000225 196.75000000012184 -12.000000000041174
    vertex 379.2500000000225 196.75000000013713 -13.500000000041169
  endloop
endfacet
facet normal 0.0 -1.0 -1.0179893719935698e-11
  outer loop
    vertex 379.2500000000225 196.75000000012184 -12.000000000041174
    vertex 433.25000000001546 196.75000000013713 -13.500000000041169
    vertex 433.25000000001546 196.75000000012184 -12.000000000041174
  endloop
endfacet
facet normal 1.0 0.0 0.0
  outer loop
    vertex 370.75000000002575 196.75000000013713 -13.500000000041169
    vertex 370.75000000002575 200.25000000012184 -12.000000000005544
    vertex 370.75000000002575 196.75000000012184 -12.000000000041174
  endloop
endfacet
facet normal 1.0 0.0 0.0
  outer loop
    vertex 370.75000000002575 200.25000000012184 -12.000000000005544
    vertex 370.75000000002575 196.75000000013713 -13.500000000041169
    vertex 370.75000000002575 200.25000000013713 -13.500000000005542
  endloop
endfacet
facet normal 0.0 -1.0179893719935698e-11 1.0
  outer loop
    vertex 370.75000000002575 200.25000000012184 -12.000000000005544
    vertex 316.75000000001205 196.75000000012184 -12.000000000041174
    vertex 370.75000000002575 196.75000000012184 -12.000000000041174
  endloop
endfacet
facet normal 0.0 -1.0179893719935698e-11 1.0
  outer loop
    vertex 316.75000000001205 196.75000000012184 -12.000000000041174
    vertex 370.75000000002575 200.25000000012184 -12.000000000005544
    vertex 316.75000000001205 200.25000000012184 -12.000000000005544
  endloop
endfacet
facet normal 0.0 1.0 1.0179893719935698e-11
  outer loop
    vertex 389.25000000002245 204.7499999998818 11.500000000040313
    vertex 387.7500000000258 204.7500000001363 -13.499999999959734
    vertex 387.7500000000258 204.7499999998818 11.500000000040313
  endloop
endfacet
facet normal 0.0 1.0 1.0179893719935698e-11
  outer loop
    vertex 387.7500000000258 204.7500000001363 -13.499999999959734
    vertex 389.25000000002245 204.7499999998818 11.500000000040313
    vertex 389.25000000002245 204.7500000001363 -13.499999999959734
  endloop
endfacet
facet normal 0.0 1.0 1.0179893719935698e-11
  outer loop
    vertex 360.7500000000258 201.74999999988262 11.500000000009774
    vertex 326.74999999999994 201.75000000013713 -13.49999999999027
    vertex 326.74999999999994 201.74999999988262 11.500000000009774
  endloop
endfacet
facet normal 0.0 1.0 1.0179893719935698e-11
  outer loop
    vertex 326.74999999999994 201.75000000013713 -13.49999999999027
    vertex 360.7500000000258 201.74999999988262 11.500000000009774
    vertex 360.7500000000258 201.75000000013713 -13.49999999999027
  endloop
endfacet
facet normal 0.0 1.0 1.0179893719935698e-11
  outer loop
    vertex 362.25000000002245 201.74999999988262 11.500000000009774
    vertex 360.7500000000258 201.75000000013713 -13.49999999999027
    vertex 360.7500000000258 201.74999999988262 11.500000000009774
  endloop
endfacet
facet normal 0.0 1.0 1.0179893719935698e-11
  outer loop
    vertex 360.7500000000258 201.75000000013713 -13.49999999999027
    vertex 362.25000000002245 201.74999999988262 11.500000000009774
    vertex 362.25000000002245 201.75000000013713 -13.49999999999027
  endloop
endfacet
facet normal 1.0 0.0 0.0
  outer loop
    vertex 389.25000000002245 201.75000000013713 -13.49999999999027
    vertex 389.25000000002245 204.7499999998818 11.500000000040313
    vertex 389.25000000002245 201.74999999988262 11.500000000009774
  endloop
endfacet
facet normal 1.0 0.0 0.0
  outer loop
    vertex 389.25000000002245 204.7499999998818 11.500000000040313
    vertex 389.25000000002245 201.75000000013713 -13.49999999999027
    vertex 389.25000000002245 204.7500000001363 -13.499999999959734
  endloop
endfacet
facet normal -1.0 0.0 0.0
  outer loop
    vertex 387.7500000000258 204.7500000001363 -13.499999999959734
    vertex 387.7500000000258 201.74999999988262 11.500000000009774
    vertex 387.7500000000258 204.7499999998818 11.500000000040313
  endloop
endfacet
facet normal -1.0 0.0 0.0
  outer loop
    vertex 387.7500000000258 201.74999999988262 11.500000000009774
    vertex 387.7500000000258 204.7500000001363 -13.499999999959734
    vertex 387.7500000000258 201.75000000013713 -13.49999999999027
  endloop
endfacet
facet normal 0.0 1.0 1.0179893719935698e-11
  outer loop
    vertex 423.25000000000966 201.74999999988262 11.500000000009774
    vertex 389.25000000002245 201.75000000013713 -13.49999999999027
    vertex 389.25000000002245 201.74999999988262 11.500000000009774
  endloop
endfacet
facet normal 0.0 1.0 1.0179893719935698e-11
  outer loop
    vertex 389.25000000002245 201.75000000013713 -13.49999999999027
    vertex 423.25000000000966 201.74999999988262 11.500000000009774
    vertex 423.25000000000966 201.75000000013713 -13.49999999999027
  endloop
endfacet
facet normal -1.0 -3.9866680051165713e-13 3.501713693180321e-14
  outer loop
    vertex 300.0000000000208 201.75000000013722 -13.499999999990303
    vertex 300.0000000000236 196.74999999988273 11.49999999995884
    vertex 300.0000000000208 201.7499999998827 11.500000000009738
  endloop
endfacet
facet normal -1.0 -3.9866680051165713e-13 3.501713693180321e-14
  outer loop
    vertex 300.0000000000236 196.74999999988273 11.49999999995884
    vertex 300.0000000000208 201.75000000013722 -13.499999999990303
    vertex 300.0000000000236 196.75000000012196 -12.000000000041208
  endloop
endfacet
facet normal -1.0 -3.9866680051165713e-13 3.501713693180321e-14
  outer loop
    vertex 300.0000000000236 196.75000000012196 -12.000000000041208
    vertex 300.0000000000208 201.75000000013722 -13.499999999990303
    vertex 300.0000000000208 196.75000000013722 -13.500000000041203
  endloop
endfacet
facet normal 6.820849174316901e-17 1.018014694794895e-11 -1.0
  outer loop
    vertex 379.2500000000225 200.25000000013713 -13.500000000005542
    vertex 433.25000000001546 196.75000000013713 -13.500000000041169
    vertex 379.2500000000225 196.75000000013713 -13.500000000041169
  endloop
endfacet
facet normal 6.820849174316901e-17 1.018014694794895e-11 -1.0
  outer loop
    vertex 433.25000000001546 196.75000000013713 -13.500000000041169
    vertex 379.2500000000225 200.25000000013713 -13.500000000005542
    vertex 433.25000000001546 200.25000000013713 -13.500000000005542
  endloop
endfacet
facet normal 6.820849174316901e-17 1.018014694794895e-11 -1.0
  outer loop
    vertex 433.25000000001546 200.25000000013713 -13.500000000005542
    vertex 379.2500000000225 200.25000000013713 -13.500000000005542
    vertex 441.75000000001216 200.25000000013713 -13.500000000005542
  endloop
endfacet
facet normal 6.820849174316901e-17 1.018014694794895e-11 -1.0
  outer loop
    vertex 300.0000000000208 196.75000000013722 -13.500000000041203
    vertex 308.25000000001535 200.25000000013713 -13.500000000005542
    vertex 308.25000000001535 196.75000000013713 -13.500000000041169
  endloop
endfacet
facet normal 6.820849174316901e-17 1.018014694794895e-11 -1.0
  outer loop
    vertex 308.25000000001535 200.25000000013713 -13.500000000005542
    vertex 300.0000000000208 196.75000000013722 -13.500000000041203
    vertex 300.0000000000208 201.75000000013722 -13.499999999990303
  endloop
endfacet
facet normal 6.820849174316901e-17 1.018014694794895e-11 -1.0
  outer loop
    vertex 308.25000000001535 200.25000000013713 -13.500000000005542
    vertex 300.0000000000208 201.75000000013722 -13.499999999990303
    vertex 316.75000000001205 200.25000000013713 -13.500000000005542
  endloop
endfacet
facet normal 6.820849174316901e-17 1.018014694794895e-11 -1.0
  outer loop
    vertex 316.75000000001205 200.25000000013713 -13.500000000005542
    vertex 300.0000000000208 201.75000000013722 -13.499999999990303
    vertex 370.75000000002575 200.25000000013713 -13.500000000005542
  endloop
endfacet
facet normal 6.820849174316901e-17 1.018014694794895e-11 -1.0
  outer loop
    vertex 370.75000000002575 200.25000000013713 -13.500000000005542
    vertex 300.0000000000208 201.75000000013722 -13.499999999990303
    vertex 379.2500000000225 200.25000000013713 -13.500000000005542
  endloop
endfacet
facet normal 6.820849174316901e-17 1.018014694794895e-11 -1.0
  outer loop
    vertex 379.2500000000225 200.25000000013713 -13.500000000005542
    vertex 300.0000000000208 201.75000000013722 -13.499999999990303
    vertex 325.25 201.75000000013713 -13.49999999999027
  endloop
endfacet
facet normal 6.820849174316901e-17 1.018014694794895e-11 -1.0
  outer loop
    vertex 325.25 204.75000000013625 -13.499999999959734
    vertex 326.74999999999994 201.75000000013713 -13.49999999999027
    vertex 325.25 201.75000000013713 -13.49999999999027
  endloop
endfacet
facet normal 6.820849174316901e-17 1.018014694794895e-11 -1.0
  outer loop
    vertex 326.74999999999994 201.75000000013713 -13.49999999999027
    vertex 325.25 204.75000000013625 -13.499999999959734
    vertex 326.74999999999994 204.75000000013625 -13.499999999959734
  endloop
endfacet
facet normal 6.820849174316901e-17 1.018014694794895e-11 -1.0
  outer loop
    vertex 387.7500000000258 204.7500000001363 -13.499999999959734
    vertex 389.25000000002245 201.75000000013713 -13.49999999999027
    vertex 387.7500000000258 201.75000000013713 -13.49999999999027
  endloop
endfacet
facet normal 6.820849174316901e-17 1.018014694794895e-11 -1.0
  outer loop
    vertex 389.25000000002245 201.75000000013713 -13.49999999999027
    vertex 387.7500000000258 204.7500000001363 -13.499999999959734
    vertex 389.25000000002245 204.7500000001363 -13.499999999959734
  endloop
endfacet
facet normal 6.820849174316901e-17 1.018014694794895e-11 -1.0
  outer loop
    vertex 423.25000000000966 204.75000000013625 -13.499999999959734
    vertex 424.7500000000096 201.75000000013713 -13.49999999999027
    vertex 423.25000000000966 201.75000000013713 -13.49999999999027
  endloop
endfacet
facet normal 6.820849174316901e-17 1.018014694794895e-11 -1.0
  outer loop
    vertex 424.7500000000096 201.75000000013713 -13.49999999999027
    vertex 423.25000000000966 204.75000000013625 -13.499999999959734
    vertex 424.7500000000096 204.75000000013625 -13.499999999959734
  endloop
endfacet
facet normal 6.820849174316901e-17 1.018014694794895e-11 -1.0
  outer loop
    vertex 441.75000000001216 200.25000000013713 -13.500000000005542
    vertex 450.000000000022 196.7500000001388 -13.500000000041169
    vertex 441.75000000001216 196.75000000013713 -13.500000000041169
  endloop
endfacet
facet normal 6.820849174316901e-17 1.018014694794895e-11 -1.0
  outer loop
    vertex 450.000000000022 196.7500000001388 -13.500000000041169
    vertex 441.75000000001216 200.25000000013713 -13.500000000005542
    vertex 450.000000000022 201.75000000013713 -13.49999999999027
  endloop
endfacet
facet normal 6.820849174316901e-17 1.018014694794895e-11 -1.0
  outer loop
    vertex 450.000000000022 201.75000000013713 -13.49999999999027
    vertex 441.75000000001216 200.25000000013713 -13.500000000005542
    vertex 379.2500000000225 200.25000000013713 -13.500000000005542
  endloop
endfacet
facet normal 6.820849174316901e-17 1.018014694794895e-11 -1.0
  outer loop
    vertex 450.000000000022 201.75000000013713 -13.49999999999027
    vertex 379.2500000000225 200.25000000013713 -13.500000000005542
    vertex 325.25 201.75000000013713 -13.49999999999027
  endloop
endfacet
facet normal 6.820849174316901e-17 1.018014694794895e-11 -1.0
  outer loop
    vertex 450.000000000022 201.75000000013713 -13.49999999999027
    vertex 325.25 201.75000000013713 -13.49999999999027
    vertex 326.74999999999994 201.75000000013713 -13.49999999999027
  endloop
endfacet
facet normal 6.820849174316901e-17 1.018014694794895e-11 -1.0
  outer loop
    vertex 450.000000000022 201.75000000013713 -13.49999999999027
    vertex 326.74999999999994 201.75000000013713 -13.49999999999027
    vertex 360.7500000000258 201.75000000013713 -13.49999999999027
  endloop
endfacet
facet normal 6.820849174316901e-17 1.018014694794895e-11 -1.0
  outer loop
    vertex 450.000000000022 201.75000000013713 -13.49999999999027
    vertex 360.7500000000258 201.75000000013713 -13.49999999999027
    vertex 362.25000000002245 201.75000000013713 -13.49999999999027
  endloop
endfacet
facet normal 6.820849174316901e-17 1.018014694794895e-11 -1.0
  outer loop
    vertex 450.000000000022 201.75000000013713 -13.49999999999027
    vertex 362.25000000002245 201.75000000013713 -13.49999999999027
    vertex 387.7500000000258 201.75000000013713 -13.49999999999027
  endloop
endfacet
facet normal 6.820849174316901e-17 1.018014694794895e-11 -1.0
  outer loop
    vertex 450.000000000022 201.75000000013713 -13.49999999999027
    vertex 387.7500000000258 201.75000000013713 -13.49999999999027
    vertex 389.25000000002245 201.75000000013713 -13.49999999999027
  endloop
endfacet
facet normal 6.820849174316901e-17 1.018014694794895e-11 -1.0
  outer loop
    vertex 450.000000000022 201.75000000013713 -13.49999999999027
    vertex 389.25000000002245 201.75000000013713 -13.49999999999027
    vertex 423.25000000000966 201.75000000013713 -13.49999999999027
  endloop
endfacet
facet normal 6.820849174316901e-17 1.018014694794895e-11 -1.0
  outer loop
    vertex 450.000000000022 201.75000000013713 -13.49999999999027
    vertex 423.25000000000966 201.75000000013713 -13.49999999999027
    vertex 424.7500000000096 201.75000000013713 -13.49999999999027
  endloop
endfacet
facet normal 6.820849174316901e-17 1.018014694794895e-11 -1.0
  outer loop
    vertex 316.75000000001205 200.25000000013713 -13.500000000005542
    vertex 370.75000000002575 196.75000000013713 -13.500000000041169
    vertex 316.75000000001205 196.75000000013713 -13.500000000041169
  endloop
endfacet
facet normal 6.820849174316901e-17 1.018014694794895e-11 -1.0
  outer loop
    vertex 370.75000000002575 196.75000000013713 -13.500000000041169
    vertex 316.75000000001205 200.25000000013713 -13.500000000005542
    vertex 370.75000000002575 200.25000000013713 -13.500000000005542
  endloop
endfacet
facet normal 0.0 1.0 1.0179893719935698e-11
  outer loop
    vertex 325.25 201.74999999988262 11.500000000009774
    vertex 300.0000000000208 201.75000000013722 -13.499999999990303
    vertex 300.0000000000208 201.7499999998827 11.500000000009738
  endloop
endfacet
facet normal 0.0 1.0 1.0179893719935698e-11
  outer loop
    vertex 300.0000000000208 201.75000000013722 -13.499999999990303
    vertex 325.25 201.74999999988262 11.500000000009774
    vertex 325.25 201.75000000013713 -13.49999999999027
  endloop
endfacet
facet normal 9.63870608177686e-14 -1.0 -1.0802541106393498e-11
  outer loop
    vertex 450.000000000022 196.7500000001388 -13.500000000041169
    vertex 441.75000000001216 196.75000000012184 -12.000000000041174
    vertex 441.75000000001216 196.75000000013713 -13.500000000041169
  endloop
endfacet
facet normal 9.63870608177686e-14 -1.0 -1.0802541106393498e-11
  outer loop
    vertex 441.75000000001216 196.75000000012184 -12.000000000041174
    vertex 450.000000000022 196.7500000001388 -13.500000000041169
    vertex 448.500000000022 196.75000000012184 -12.000000000041174
  endloop
endfacet
facet normal 9.63870608177686e-14 -1.0 -1.0802541106393498e-11
  outer loop
    vertex 448.500000000022 196.75000000012184 -12.000000000041174
    vertex 450.000000000022 196.7500000001388 -13.500000000041169
    vertex 450.000000000022 196.75000000012184 -12.000000000041174
  endloop
endfacet
facet normal -1.1741627086424458e-16 -1.0180581122365712e-11 1.0
  outer loop
    vertex 450.000000000022 201.74999999988262 11.500000000009774
    vertex 448.500000000022 196.74999999988265 11.499999999958874
    vertex 450.000000000022 196.74999999988265 11.499999999958874
  endloop
endfacet
facet normal -1.1741627086424458e-16 -1.0180581122365712e-11 1.0
  outer loop
    vertex 448.500000000022 196.74999999988265 11.499999999958874
    vertex 450.000000000022 201.74999999988262 11.500000000009774
    vertex 448.500000000022 200.24999999988262 11.499999999994504
  endloop
endfacet
facet normal -1.1741627086424458e-16 -1.0180581122365712e-11 1.0
  outer loop
    vertex 448.500000000022 200.24999999988262 11.499999999994504
    vertex 450.000000000022 201.74999999988262 11.500000000009774
    vertex 301.5000000000236 200.2499999998827 11.49999999999447
  endloop
endfacet
facet normal -1.1741627086424458e-16 -1.0180581122365712e-11 1.0
  outer loop
    vertex 424.7500000000096 204.7499999998818 11.500000000040313
    vertex 423.25000000000966 201.74999999988262 11.500000000009774
    vertex 424.7500000000096 201.74999999988262 11.500000000009774
  endloop
endfacet
facet normal -1.1741627086424458e-16 -1.0180581122365712e-11 1.0
  outer loop
    vertex 423.25000000000966 201.74999999988262 11.500000000009774
    vertex 424.7500000000096 204.7499999998818 11.500000000040313
    vertex 423.25000000000966 204.7499999998818 11.500000000040313
  endloop
endfacet
facet normal -1.1741627086424458e-16 -1.0180581122365712e-11 1.0
  outer loop
    vertex 389.25000000002245 204.7499999998818 11.500000000040313
    vertex 387.7500000000258 201.74999999988262 11.500000000009774
    vertex 389.25000000002245 201.74999999988262 11.500000000009774
  endloop
endfacet
facet normal -1.1741627086424458e-16 -1.0180581122365712e-11 1.0
  outer loop
    vertex 387.7500000000258 201.74999999988262 11.500000000009774
    vertex 389.25000000002245 204.7499999998818 11.500000000040313
    vertex 387.7500000000258 204.7499999998818 11.500000000040313
  endloop
endfacet
facet normal -1.1741627086424458e-16 -1.0180581122365712e-11 1.0
  outer loop
    vertex 326.74999999999994 204.74999999988174 11.500000000040313
    vertex 325.25 201.74999999988262 11.500000000009774
    vertex 326.74999999999994 201.74999999988262 11.500000000009774
  endloop
endfacet
facet normal -1.1741627086424458e-16 -1.0180581122365712e-11 1.0
  outer loop
    vertex 325.25 201.74999999988262 11.500000000009774
    vertex 326.74999999999994 204.74999999988174 11.500000000040313
    vertex 325.25 204.74999999988174 11.500000000040313
  endloop
endfacet
facet normal -1.1741627086424458e-16 -1.0180581122365712e-11 1.0
  outer loop
    vertex 301.5000000000236 200.2499999998827 11.49999999999447
    vertex 300.0000000000236 196.74999999988273 11.49999999995884
    vertex 301.5000000000236 196.74999999988273 11.49999999995884
  endloop
endfacet
facet normal -1.1741627086424458e-16 -1.0180581122365712e-11 1.0
  outer loop
    vertex 300.0000000000236 196.74999999988273 11.49999999995884
    vertex 301.5000000000236 200.2499999998827 11.49999999999447
    vertex 300.0000000000208 201.7499999998827 11.500000000009738
  endloop
endfacet
facet normal -1.1741627086424458e-16 -1.0180581122365712e-11 1.0
  outer loop
    vertex 300.0000000000208 201.7499999998827 11.500000000009738
    vertex 301.5000000000236 200.2499999998827 11.49999999999447
    vertex 325.25 201.74999999988262 11.500000000009774
  endloop
endfacet
facet normal -1.1741627086424458e-16 -1.0180581122365712e-11 1.0
  outer loop
    vertex 325.25 201.74999999988262 11.500000000009774
    vertex 301.5000000000236 200.2499999998827 11.49999999999447
    vertex 450.000000000022 201.74999999988262 11.500000000009774
  endloop
endfacet
facet normal -1.1741627086424458e-16 -1.0180581122365712e-11 1.0
  outer loop
    vertex 325.25 201.74999999988262 11.500000000009774
    vertex 450.000000000022 201.74999999988262 11.500000000009774
    vertex 424.7500000000096 201.74999999988262 11.500000000009774
  endloop
endfacet
facet normal -1.1741627086424458e-16 -1.0180581122365712e-11 1.0
  outer loop
    vertex 325.25 201.74999999988262 11.500000000009774
    vertex 424.7500000000096 201.74999999988262 11.500000000009774
    vertex 423.25000000000966 201.74999999988262 11.500000000009774
  endloop
endfacet
facet normal -1.1741627086424458e-16 -1.0180581122365712e-11 1.0
  outer loop
    vertex 325.25 201.74999999988262 11.500000000009774
    vertex 423.25000000000966 201.74999999988262 11.500000000009774
    vertex 389.25000000002245 201.74999999988262 11.500000000009774
  endloop
endfacet
facet normal -1.1741627086424458e-16 -1.0180581122365712e-11 1.0
  outer loop
    vertex 325.25 201.74999999988262 11.500000000009774
    vertex 389.25000000002245 201.74999999988262 11.500000000009774
    vertex 387.7500000000258 201.74999999988262 11.500000000009774
  endloop
endfacet
facet normal -1.1741627086424458e-16 -1.0180581122365712e-11 1.0
  outer loop
    vertex 325.25 201.74999999988262 11.500000000009774
    vertex 387.7500000000258 201.74999999988262 11.500000000009774
    vertex 362.25000000002245 201.74999999988262 11.500000000009774
  endloop
endfacet
facet normal -1.1741627086424458e-16 -1.0180581122365712e-11 1.0
  outer loop
    vertex 325.25 201.74999999988262 11.500000000009774
    vertex 362.25000000002245 201.74999999988262 11.500000000009774
    vertex 360.7500000000258 201.74999999988262 11.500000000009774
  endloop
endfacet
facet normal -1.1741627086424458e-16 -1.0180581122365712e-11 1.0
  outer loop
    vertex 325.25 201.74999999988262 11.500000000009774
    vertex 360.7500000000258 201.74999999988262 11.500000000009774
    vertex 326.74999999999994 201.74999999988262 11.500000000009774
  endloop
endfacet
facet normal 1.0 0.0 0.0
  outer loop
    vertex 326.74999999999994 201.75000000013713 -13.49999999999027
    vertex 326.74999999999994 204.74999999988174 11.500000000040313
    vertex 326.74999999999994 201.74999999988262 11.500000000009774
  endloop
endfacet
facet normal 1.0 0.0 0.0
  outer loop
    vertex 326.74999999999994 204.74999999988174 11.500000000040313
    vertex 326.74999999999994 201.75000000013713 -13.49999999999027
    vertex 326.74999999999994 204.75000000013625 -13.499999999959734
  endloop
endfacet
facet normal 0.0 1.0 1.0179893719935698e-11
  outer loop
    vertex 450.000000000022 201.74999999988262 11.500000000009774
    vertex 424.7500000000096 201.75000000013713 -13.49999999999027
    vertex 424.7500000000096 201.74999999988262 11.500000000009774
  endloop
endfacet
facet normal 0.0 1.0 1.0179893719935698e-11
  outer loop
    vertex 424.7500000000096 201.75000000013713 -13.49999999999027
    vertex 450.000000000022 201.74999999988262 11.500000000009774
    vertex 450.000000000022 201.75000000013713 -13.49999999999027
  endloop
endfacet
facet normal -1.0 0.0 0.0
  outer loop
    vertex 325.25 204.75000000013625 -13.499999999959734
    vertex 325.25 201.74999999988262 11.500000000009774
    vertex 325.25 204.74999999988174 11.500000000040313
  endloop
endfacet
facet normal -1.0 0.0 0.0
  outer loop
    vertex 325.25 201.74999999988262 11.500000000009774
    vertex 325.25 204.75000000013625 -13.499999999959734
    vertex 325.25 201.75000000013713 -13.49999999999027
  endloop
endfacet
facet normal 0.0 1.0 1.0179893719935698e-11
  outer loop
    vertex 424.7500000000096 204.7499999998818 11.500000000040313
    vertex 423.25000000000966 204.75000000013625 -13.499999999959734
    vertex 423.25000000000966 204.7499999998818 11.500000000040313
  endloop
endfacet
facet normal 0.0 1.0 1.0179893719935698e-11
  outer loop
    vertex 423.25000000000966 204.75000000013625 -13.499999999959734
    vertex 424.7500000000096 204.7499999998818 11.500000000040313
    vertex 424.7500000000096 204.75000000013625 -13.499999999959734
  endloop
endfacet
facet normal -1.0 0.0 0.0
  outer loop
    vertex 423.25000000000966 204.75000000013625 -13.499999999959734
    vertex 423.25000000000966 201.74999999988262 11.500000000009774
    vertex 423.25000000000966 204.7499999998818 11.500000000040313
  endloop
endfacet
facet normal -1.0 0.0 0.0
  outer loop
    vertex 423.25000000000966 201.74999999988262 11.500000000009774
    vertex 423.25000000000966 204.75000000013625 -13.499999999959734
    vertex 423.25000000000966 201.75000000013713 -13.49999999999027
  endloop
endfacet
facet normal 0.0 1.0 1.0179893719935698e-11
  outer loop
    vertex 326.74999999999994 204.74999999988174 11.500000000040313
    vertex 325.25 204.75000000013625 -13.499999999959734
    vertex 325.25 204.74999999988174 11.500000000040313
  endloop
endfacet
facet normal 0.0 1.0 1.0179893719935698e-11
  outer loop
    vertex 325.25 204.75000000013625 -13.499999999959734
    vertex 326.74999999999994 204.74999999988174 11.500000000040313
    vertex 326.74999999999994 204.75000000013625 -13.499999999959734
  endloop
endfacet
facet normal 0.0 -1.0179893719935698e-11 1.0
  outer loop
    vertex 448.500000000022 200.25000000012184 -12.000000000005544
    vertex 441.75000000001216 196.75000000012184 -12.000000000041174
    vertex 448.500000000022 196.75000000012184 -12.000000000041174
  endloop
endfacet
facet normal 0.0 -1.0179893719935698e-11 1.0
  outer loop
    vertex 441.75000000001216 196.75000000012184 -12.000000000041174
    vertex 448.500000000022 200.25000000012184 -12.000000000005544
    vertex 441.75000000001216 200.25000000012184 -12.000000000005544
  endloop
endfacet
facet normal 1.0 0.0 0.0
  outer loop
    vertex 424.7500000000096 201.75000000013713 -13.49999999999027
    vertex 424.7500000000096 204.7499999998818 11.500000000040313
    vertex 424.7500000000096 201.74999999988262 11.500000000009774
  endloop
endfacet
facet normal 1.0 0.0 0.0
  outer loop
    vertex 424.7500000000096 204.7499999998818 11.500000000040313
    vertex 424.7500000000096 201.75000000013713 -13.49999999999027
    vertex 424.7500000000096 204.75000000013625 -13.499999999959734
  endloop
endfacet
facet normal 1.0 0.0 0.0
  outer loop
    vertex 450.000000000022 196.75000000012184 -12.000000000041174
    vertex 450.000000000022 201.74999999988262 11.500000000009774
    vertex 450.000000000022 196.74999999988265 11.499999999958874
  endloop
endfacet
facet normal 1.0 0.0 0.0
  outer loop
    vertex 450.000000000022 201.74999999988262 11.500000000009774
    vertex 450.000000000022 196.75000000012184 -12.000000000041174
    vertex 450.000000000022 201.75000000013713 -13.49999999999027
  endloop
endfacet
facet normal 1.0 0.0 0.0
  outer loop
    vertex 450.000000000022 201.75000000013713 -13.49999999999027
    vertex 450.000000000022 196.75000000012184 -12.000000000041174
    vertex 450.000000000022 196.7500000001388 -13.500000000041169
  endloop
endfacet
facet normal -2.8199664825478608e-15 -1.0 -1.0179683722431678e-11
  outer loop
    vertex 301.5000000000236 196.75000000012196 -12.000000000041195
    vertex 300.0000000000236 196.74999999988273 11.49999999995884
    vertex 300.0000000000236 196.75000000012196 -12.000000000041208
  endloop
endfacet
facet normal -2.8199664825478608e-15 -1.0 -1.0179683722431678e-11
  outer loop
    vertex 300.0000000000236 196.74999999988273 11.49999999995884
    vertex 301.5000000000236 196.75000000012196 -12.000000000041195
    vertex 301.5000000000236 196.74999999988273 11.49999999995884
  endloop
endfacet
facet normal 1.0 0.0 0.0
  outer loop
    vertex 301.5000000000236 196.75000000012196 -12.000000000041195
    vertex 301.5000000000236 200.2499999998827 11.49999999999447
    vertex 301.5000000000236 196.74999999988273 11.49999999995884
  endloop
endfacet
facet normal 1.0 0.0 0.0
  outer loop
    vertex 301.5000000000236 200.2499999998827 11.49999999999447
    vertex 301.5000000000236 196.75000000012196 -12.000000000041195
    vertex 301.5000000000236 200.25000000012193 -12.000000000005565
  endloop
endfacet
facet normal -2.751321259532547e-16 -1.0 -1.0178138100447429e-11
  outer loop
    vertex 316.75000000001205 200.25000000013713 -13.500000000005542
    vertex 308.25000000001535 200.25000000012184 -12.000000000005544
    vertex 308.25000000001535 200.25000000013713 -13.500000000005542
  endloop
endfacet
facet normal -2.751321259532547e-16 -1.0 -1.0178138100447429e-11
  outer loop
    vertex 379.2500000000225 200.25000000013713 -13.500000000005542
    vertex 370.75000000002575 200.25000000012184 -12.000000000005544
    vertex 370.75000000002575 200.25000000013713 -13.500000000005542
  endloop
endfacet
facet normal -2.751321259532547e-16 -1.0 -1.0178138100447429e-11
  outer loop
    vertex 441.75000000001216 200.25000000013713 -13.500000000005542
    vertex 433.25000000001546 200.25000000012184 -12.000000000005544
    vertex 433.25000000001546 200.25000000013713 -13.500000000005542
  endloop
endfacet
facet normal -2.751321259532547e-16 -1.0 -1.0178138100447429e-11
  outer loop
    vertex 308.25000000001535 200.25000000012184 -12.000000000005544
    vertex 301.5000000000236 200.2499999998827 11.49999999999447
    vertex 301.5000000000236 200.25000000012193 -12.000000000005565
  endloop
endfacet
facet normal -2.751321259532547e-16 -1.0 -1.0178138100447429e-11
  outer loop
    vertex 301.5000000000236 200.2499999998827 11.49999999999447
    vertex 308.25000000001535 200.25000000012184 -12.000000000005544
    vertex 448.500000000022 200.24999999988262 11.499999999994504
  endloop
endfacet
facet normal -2.751321259532547e-16 -1.0 -1.0178138100447429e-11
  outer loop
    vertex 448.500000000022 200.24999999988262 11.499999999994504
    vertex 308.25000000001535 200.25000000012184 -12.000000000005544
    vertex 316.75000000001205 200.25000000012184 -12.000000000005544
  endloop
endfacet
facet normal -2.751321259532547e-16 -1.0 -1.0178138100447429e-11
  outer loop
    vertex 316.75000000001205 200.25000000012184 -12.000000000005544
    vertex 308.25000000001535 200.25000000012184 -12.000000000005544
    vertex 316.75000000001205 200.25000000013713 -13.500000000005542
  endloop
endfacet
facet normal -2.751321259532547e-16 -1.0 -1.0178138100447429e-11
  outer loop
    vertex 448.500000000022 200.24999999988262 11.499999999994504
    vertex 316.75000000001205 200.25000000012184 -12.000000000005544
    vertex 370.75000000002575 200.25000000012184 -12.000000000005544
  endloop
endfacet
facet normal -2.751321259532547e-16 -1.0 -1.0178138100447429e-11
  outer loop
    vertex 448.500000000022 200.24999999988262 11.499999999994504
    vertex 370.75000000002575 200.25000000012184 -12.000000000005544
    vertex 379.2500000000225 200.25000000012184 -12.000000000005544
  endloop
endfacet
facet normal -2.751321259532547e-16 -1.0 -1.0178138100447429e-11
  outer loop
    vertex 379.2500000000225 200.25000000012184 -12.000000000005544
    vertex 370.75000000002575 200.25000000012184 -12.000000000005544
    vertex 379.2500000000225 200.25000000013713 -13.500000000005542
  endloop
endfacet
facet normal -2.751321259532547e-16 -1.0 -1.0178138100447429e-11
  outer loop
    vertex 448.500000000022 200.24999999988262 11.499999999994504
    vertex 379.2500000000225 200.25000000012184 -12.000000000005544
    vertex 433.25000000001546 200.25000000012184 -12.000000000005544
  endloop
endfacet
facet normal -2.751321259532547e-16 -1.0 -1.0178138100447429e-11
  outer loop
    vertex 448.500000000022 200.24999999988262 11.499999999994504
    vertex 433.25000000001546 200.25000000012184 -12.000000000005544
    vertex 441.75000000001216 200.25000000012184 -12.000000000005544
  endloop
endfacet
facet normal -2.751321259532547e-16 -1.0 -1.0178138100447429e-11
  outer loop
    vertex 441.75000000001216 200.25000000012184 -12.000000000005544
    vertex 433.25000000001546 200.25000000012184 -12.000000000005544
    vertex 441.75000000001216 200.25000000013713 -13.500000000005542
  endloop
endfacet
facet normal -2.751321259532547e-16 -1.0 -1.0178138100447429e-11
  outer loop
    vertex 448.500000000022 200.24999999988262 11.499999999994504
    vertex 441.75000000001216 200.25000000012184 -12.000000000005544
    vertex 448.500000000022 200.25000000012184 -12.000000000005544
  endloop
endfacet
facet normal 4.699944137579767e-16 -1.0 -1.0179893719935698e-11
  outer loop
    vertex 450.000000000022 196.75000000012184 -12.000000000041174
    vertex 448.500000000022 196.74999999988265 11.499999999958874
    vertex 448.500000000022 196.75000000012184 -12.000000000041174
  endloop
endfacet
facet normal 4.699944137579767e-16 -1.0 -1.0179893719935698e-11
  outer loop
    vertex 448.500000000022 196.74999999988265 11.499999999958874
    vertex 450.000000000022 196.75000000012184 -12.000000000041174
    vertex 450.000000000022 196.74999999988265 11.499999999958874
  endloop
endfacet
facet normal -1.0 0.0 0.0
  outer loop
    vertex 448.500000000022 200.25000000012184 -12.000000000005544
    vertex 448.500000000022 196.74999999988265 11.499999999958874
    vertex 448.500000000022 200.24999999988262 11.499999999994504
  endloop
endfacet
facet normal -1.0 0.0 0.0
  outer loop
    vertex 448.500000000022 196.74999999988265 11.499999999958874
    vertex 448.500000000022 200.25000000012184 -12.000000000005544
    vertex 448.500000000022 196.75000000012184 -12.000000000041174
  endloop
endfacet
endsolid LED Numbers
